M48
; DRILL file {KiCad 7.0.1} date Пт 03 ноя 2023 16:30:52
; FORMAT={-:-/ absolute / metric / decimal}
; #@! TF.CreationDate,2023-11-03T16:30:52+00:00
; #@! TF.GenerationSoftware,Kicad,Pcbnew,7.0.1
; #@! TF.FileFunction,Plated,1,2,PTH
FMAT,2
METRIC
; #@! TA.AperFunction,Plated,PTH,ViaDrill
T1C0.400
; #@! TA.AperFunction,Plated,PTH,ComponentDrill
T2C0.500
; #@! TA.AperFunction,Plated,PTH,ComponentDrill
T3C0.600
; #@! TA.AperFunction,Plated,PTH,ComponentDrill
T4C0.700
; #@! TA.AperFunction,Plated,PTH,ComponentDrill
T5C0.750
; #@! TA.AperFunction,Plated,PTH,ComponentDrill
T6C0.800
; #@! TA.AperFunction,Plated,PTH,ComponentDrill
T7C1.000
; #@! TA.AperFunction,Plated,PTH,ComponentDrill
T8C1.118
; #@! TA.AperFunction,Plated,PTH,ComponentDrill
T9C1.500
; #@! TA.AperFunction,Plated,PTH,ComponentDrill
T10C1.700
%
G90
G05
T1
X135.775Y-109.35
X138.625Y-101.5
X143.35Y-85.0
X144.355Y-144.901
X144.625Y-108.1
X144.677Y-85.0
X147.275Y-84.95
X150.73Y-99.25
X151.91Y-99.26
X158.75Y-112.2
X159.775Y-107.075
X160.7Y-104.6
X162.0Y-132.875
T2
X142.5Y-109.75
X144.4Y-109.75
T3
X138.875Y-134.121
X138.875Y-136.121
X142.125Y-128.8
X142.125Y-130.8
X150.075Y-114.898
X150.075Y-116.898
X151.825Y-128.648
X151.825Y-130.648
X154.875Y-114.8
X154.875Y-116.8
T4
X140.75Y-116.34
X146.175Y-116.25
T5
X141.466Y-139.372
X142.736Y-139.372
X144.006Y-139.372
X147.213Y-128.8
X147.213Y-130.07
X147.213Y-131.34
X156.95Y-128.623
X156.95Y-129.893
X156.95Y-131.163
T6
X130.445Y-114.99
X130.455Y-117.515
X133.025Y-86.6
X133.04Y-84.1
X134.95Y-157.15
X134.95Y-159.15
X137.825Y-92.325
X137.825Y-97.405
X138.065Y-114.99
X138.075Y-117.515
X140.25Y-158.197
X140.645Y-86.6
X140.66Y-84.1
X144.05Y-158.197
X147.055Y-136.351
X147.055Y-143.971
X148.65Y-109.95
X148.65Y-112.45
X149.595Y-136.351
X149.595Y-143.971
X152.135Y-136.351
X152.135Y-143.971
X152.67Y-104.0
X152.87Y-89.795
X152.87Y-91.795
X152.9Y-95.27
X152.9Y-97.27
X153.775Y-81.75
X153.775Y-83.75
X154.67Y-104.0
X154.675Y-136.351
X154.675Y-143.971
X155.825Y-110.075
X155.825Y-112.575
X157.525Y-158.2
X161.325Y-158.2
T7
X128.475Y-98.8
X128.475Y-102.8
X148.293Y-159.937
X148.298Y-156.362
X149.92Y-121.2
X150.833Y-159.937
X150.838Y-156.362
X152.46Y-121.2
X153.373Y-159.937
X153.378Y-156.362
X155.0Y-121.2
X162.509Y-89.332
X162.509Y-91.872
X162.509Y-94.412
X162.509Y-96.952
X162.509Y-99.492
X162.509Y-102.032
X162.509Y-104.572
X162.509Y-107.112
X162.509Y-109.652
X162.509Y-112.192
X162.509Y-114.732
X162.509Y-117.272
T8
X127.125Y-133.6
X127.125Y-136.14
X127.125Y-138.68
X127.125Y-141.22
X127.125Y-143.76
X127.125Y-146.3
X127.125Y-148.84
X127.125Y-151.38
X127.125Y-153.92
X134.745Y-133.6
X134.745Y-136.14
X134.745Y-138.68
X134.745Y-141.22
X134.745Y-143.76
X134.745Y-146.3
X134.745Y-148.84
X134.745Y-151.38
X134.745Y-153.92
T9
X129.485Y-109.11
X129.49Y-92.34
T10
X126.945Y-106.57
X126.945Y-111.65
X126.95Y-89.8
X126.95Y-94.88
X132.025Y-106.57
X132.025Y-111.65
X132.03Y-89.8
X132.03Y-94.88
T0
M30
