%TF.GenerationSoftware,KiCad,Pcbnew,7.0.1*%
%TF.CreationDate,2023-11-03T16:30:40+00:00*%
%TF.ProjectId,SI4735,53493437-3335-42e6-9b69-6361645f7063,rev?*%
%TF.SameCoordinates,Original*%
%TF.FileFunction,AssemblyDrawing,Bot*%
%FSLAX45Y45*%
G04 Gerber Fmt 4.5, Leading zero omitted, Abs format (unit mm)*
G04 Created by KiCad (PCBNEW 7.0.1) date 2023-11-03 16:30:40*
%MOMM*%
%LPD*%
G01*
G04 APERTURE LIST*
%ADD10C,0.150000*%
%ADD11C,0.120000*%
%ADD12C,0.100000*%
%ADD13C,0.127000*%
%ADD14C,0.200000*%
%ADD15C,0.100000*%
%TD*%
%TA.AperFunction,Profile*%
%ADD16C,0.050000*%
%TD*%
%TA.AperFunction,Profile*%
%ADD17C,0.100000*%
%TD*%
G04 APERTURE END LIST*
D10*
%TO.C,R13*%
X16698794Y-11195262D02*
X16755937Y-11195262D01*
X16727365Y-11195262D02*
X16727365Y-11095262D01*
X16727365Y-11095262D02*
X16736889Y-11109548D01*
X16736889Y-11109548D02*
X16746413Y-11119071D01*
X16746413Y-11119071D02*
X16755937Y-11123833D01*
X16636889Y-11095262D02*
X16627365Y-11095262D01*
X16627365Y-11095262D02*
X16617841Y-11100024D01*
X16617841Y-11100024D02*
X16613079Y-11104786D01*
X16613079Y-11104786D02*
X16608318Y-11114310D01*
X16608318Y-11114310D02*
X16603556Y-11133357D01*
X16603556Y-11133357D02*
X16603556Y-11157167D01*
X16603556Y-11157167D02*
X16608318Y-11176214D01*
X16608318Y-11176214D02*
X16613079Y-11185738D01*
X16613079Y-11185738D02*
X16617841Y-11190500D01*
X16617841Y-11190500D02*
X16627365Y-11195262D01*
X16627365Y-11195262D02*
X16636889Y-11195262D01*
X16636889Y-11195262D02*
X16646413Y-11190500D01*
X16646413Y-11190500D02*
X16651175Y-11185738D01*
X16651175Y-11185738D02*
X16655937Y-11176214D01*
X16655937Y-11176214D02*
X16660698Y-11157167D01*
X16660698Y-11157167D02*
X16660698Y-11133357D01*
X16660698Y-11133357D02*
X16655937Y-11114310D01*
X16655937Y-11114310D02*
X16651175Y-11104786D01*
X16651175Y-11104786D02*
X16646413Y-11100024D01*
X16646413Y-11100024D02*
X16636889Y-11095262D01*
X16560698Y-11195262D02*
X16560698Y-11095262D01*
X16551175Y-11157167D02*
X16522603Y-11195262D01*
X16522603Y-11128595D02*
X16560698Y-11166690D01*
D11*
X16664698Y-11004170D02*
X16691365Y-10966074D01*
X16710413Y-11004170D02*
X16710413Y-10924170D01*
X16710413Y-10924170D02*
X16679937Y-10924170D01*
X16679937Y-10924170D02*
X16672318Y-10927979D01*
X16672318Y-10927979D02*
X16668508Y-10931789D01*
X16668508Y-10931789D02*
X16664698Y-10939408D01*
X16664698Y-10939408D02*
X16664698Y-10950836D01*
X16664698Y-10950836D02*
X16668508Y-10958455D01*
X16668508Y-10958455D02*
X16672318Y-10962265D01*
X16672318Y-10962265D02*
X16679937Y-10966074D01*
X16679937Y-10966074D02*
X16710413Y-10966074D01*
X16588508Y-11004170D02*
X16634222Y-11004170D01*
X16611365Y-11004170D02*
X16611365Y-10924170D01*
X16611365Y-10924170D02*
X16618984Y-10935598D01*
X16618984Y-10935598D02*
X16626603Y-10943217D01*
X16626603Y-10943217D02*
X16634222Y-10947027D01*
X16561841Y-10924170D02*
X16512318Y-10924170D01*
X16512318Y-10924170D02*
X16538984Y-10954646D01*
X16538984Y-10954646D02*
X16527556Y-10954646D01*
X16527556Y-10954646D02*
X16519937Y-10958455D01*
X16519937Y-10958455D02*
X16516127Y-10962265D01*
X16516127Y-10962265D02*
X16512318Y-10969884D01*
X16512318Y-10969884D02*
X16512318Y-10988931D01*
X16512318Y-10988931D02*
X16516127Y-10996550D01*
X16516127Y-10996550D02*
X16519937Y-11000360D01*
X16519937Y-11000360D02*
X16527556Y-11004170D01*
X16527556Y-11004170D02*
X16550413Y-11004170D01*
X16550413Y-11004170D02*
X16558032Y-11000360D01*
X16558032Y-11000360D02*
X16561841Y-10996550D01*
D10*
%TO.C,C2*%
X12953262Y-15030595D02*
X12953262Y-15040119D01*
X12953262Y-15040119D02*
X12958024Y-15049643D01*
X12958024Y-15049643D02*
X12962786Y-15054405D01*
X12962786Y-15054405D02*
X12972309Y-15059167D01*
X12972309Y-15059167D02*
X12991357Y-15063928D01*
X12991357Y-15063928D02*
X13015167Y-15063928D01*
X13015167Y-15063928D02*
X13034214Y-15059167D01*
X13034214Y-15059167D02*
X13043738Y-15054405D01*
X13043738Y-15054405D02*
X13048500Y-15049643D01*
X13048500Y-15049643D02*
X13053262Y-15040119D01*
X13053262Y-15040119D02*
X13053262Y-15030595D01*
X13053262Y-15030595D02*
X13048500Y-15021071D01*
X13048500Y-15021071D02*
X13043738Y-15016309D01*
X13043738Y-15016309D02*
X13034214Y-15011548D01*
X13034214Y-15011548D02*
X13015167Y-15006786D01*
X13015167Y-15006786D02*
X12991357Y-15006786D01*
X12991357Y-15006786D02*
X12972309Y-15011548D01*
X12972309Y-15011548D02*
X12962786Y-15016309D01*
X12962786Y-15016309D02*
X12958024Y-15021071D01*
X12958024Y-15021071D02*
X12953262Y-15030595D01*
X13043738Y-15106786D02*
X13048500Y-15111548D01*
X13048500Y-15111548D02*
X13053262Y-15106786D01*
X13053262Y-15106786D02*
X13048500Y-15102024D01*
X13048500Y-15102024D02*
X13043738Y-15106786D01*
X13043738Y-15106786D02*
X13053262Y-15106786D01*
X12953262Y-15173452D02*
X12953262Y-15182976D01*
X12953262Y-15182976D02*
X12958024Y-15192500D01*
X12958024Y-15192500D02*
X12962786Y-15197262D01*
X12962786Y-15197262D02*
X12972309Y-15202024D01*
X12972309Y-15202024D02*
X12991357Y-15206786D01*
X12991357Y-15206786D02*
X13015167Y-15206786D01*
X13015167Y-15206786D02*
X13034214Y-15202024D01*
X13034214Y-15202024D02*
X13043738Y-15197262D01*
X13043738Y-15197262D02*
X13048500Y-15192500D01*
X13048500Y-15192500D02*
X13053262Y-15182976D01*
X13053262Y-15182976D02*
X13053262Y-15173452D01*
X13053262Y-15173452D02*
X13048500Y-15163928D01*
X13048500Y-15163928D02*
X13043738Y-15159167D01*
X13043738Y-15159167D02*
X13034214Y-15154405D01*
X13034214Y-15154405D02*
X13015167Y-15149643D01*
X13015167Y-15149643D02*
X12991357Y-15149643D01*
X12991357Y-15149643D02*
X12972309Y-15154405D01*
X12972309Y-15154405D02*
X12962786Y-15159167D01*
X12962786Y-15159167D02*
X12958024Y-15163928D01*
X12958024Y-15163928D02*
X12953262Y-15173452D01*
X13053262Y-15302024D02*
X13053262Y-15244881D01*
X13053262Y-15273452D02*
X12953262Y-15273452D01*
X12953262Y-15273452D02*
X12967548Y-15263928D01*
X12967548Y-15263928D02*
X12977071Y-15254405D01*
X12977071Y-15254405D02*
X12981833Y-15244881D01*
X12986595Y-15387738D02*
X13053262Y-15387738D01*
X12986595Y-15344881D02*
X13038976Y-15344881D01*
X13038976Y-15344881D02*
X13048500Y-15349643D01*
X13048500Y-15349643D02*
X13053262Y-15359167D01*
X13053262Y-15359167D02*
X13053262Y-15373452D01*
X13053262Y-15373452D02*
X13048500Y-15382976D01*
X13048500Y-15382976D02*
X13043738Y-15387738D01*
X13000881Y-15468690D02*
X13000881Y-15435357D01*
X13053262Y-15435357D02*
X12953262Y-15435357D01*
X12953262Y-15435357D02*
X12953262Y-15482976D01*
D11*
X13221390Y-15229167D02*
X13225200Y-15225357D01*
X13225200Y-15225357D02*
X13229009Y-15213929D01*
X13229009Y-15213929D02*
X13229009Y-15206309D01*
X13229009Y-15206309D02*
X13225200Y-15194881D01*
X13225200Y-15194881D02*
X13217581Y-15187262D01*
X13217581Y-15187262D02*
X13209962Y-15183452D01*
X13209962Y-15183452D02*
X13194724Y-15179643D01*
X13194724Y-15179643D02*
X13183295Y-15179643D01*
X13183295Y-15179643D02*
X13168057Y-15183452D01*
X13168057Y-15183452D02*
X13160438Y-15187262D01*
X13160438Y-15187262D02*
X13152819Y-15194881D01*
X13152819Y-15194881D02*
X13149009Y-15206309D01*
X13149009Y-15206309D02*
X13149009Y-15213929D01*
X13149009Y-15213929D02*
X13152819Y-15225357D01*
X13152819Y-15225357D02*
X13156628Y-15229167D01*
X13156628Y-15259643D02*
X13152819Y-15263452D01*
X13152819Y-15263452D02*
X13149009Y-15271071D01*
X13149009Y-15271071D02*
X13149009Y-15290119D01*
X13149009Y-15290119D02*
X13152819Y-15297738D01*
X13152819Y-15297738D02*
X13156628Y-15301548D01*
X13156628Y-15301548D02*
X13164248Y-15305357D01*
X13164248Y-15305357D02*
X13171867Y-15305357D01*
X13171867Y-15305357D02*
X13183295Y-15301548D01*
X13183295Y-15301548D02*
X13229009Y-15255833D01*
X13229009Y-15255833D02*
X13229009Y-15305357D01*
D10*
%TO.C,C6*%
X14811262Y-9853214D02*
X14811262Y-9796071D01*
X14811262Y-9824643D02*
X14711262Y-9824643D01*
X14711262Y-9824643D02*
X14725548Y-9815119D01*
X14725548Y-9815119D02*
X14735071Y-9805595D01*
X14735071Y-9805595D02*
X14739833Y-9796071D01*
X14711262Y-9915119D02*
X14711262Y-9924643D01*
X14711262Y-9924643D02*
X14716024Y-9934167D01*
X14716024Y-9934167D02*
X14720786Y-9938929D01*
X14720786Y-9938929D02*
X14730309Y-9943690D01*
X14730309Y-9943690D02*
X14749357Y-9948452D01*
X14749357Y-9948452D02*
X14773167Y-9948452D01*
X14773167Y-9948452D02*
X14792214Y-9943690D01*
X14792214Y-9943690D02*
X14801738Y-9938929D01*
X14801738Y-9938929D02*
X14806500Y-9934167D01*
X14806500Y-9934167D02*
X14811262Y-9924643D01*
X14811262Y-9924643D02*
X14811262Y-9915119D01*
X14811262Y-9915119D02*
X14806500Y-9905595D01*
X14806500Y-9905595D02*
X14801738Y-9900833D01*
X14801738Y-9900833D02*
X14792214Y-9896071D01*
X14792214Y-9896071D02*
X14773167Y-9891310D01*
X14773167Y-9891310D02*
X14749357Y-9891310D01*
X14749357Y-9891310D02*
X14730309Y-9896071D01*
X14730309Y-9896071D02*
X14720786Y-9900833D01*
X14720786Y-9900833D02*
X14716024Y-9905595D01*
X14716024Y-9905595D02*
X14711262Y-9915119D01*
X14744595Y-9991310D02*
X14811262Y-9991310D01*
X14754119Y-9991310D02*
X14749357Y-9996071D01*
X14749357Y-9996071D02*
X14744595Y-10005595D01*
X14744595Y-10005595D02*
X14744595Y-10019881D01*
X14744595Y-10019881D02*
X14749357Y-10029405D01*
X14749357Y-10029405D02*
X14758881Y-10034167D01*
X14758881Y-10034167D02*
X14811262Y-10034167D01*
D11*
X14949390Y-9926667D02*
X14953200Y-9922857D01*
X14953200Y-9922857D02*
X14957009Y-9911429D01*
X14957009Y-9911429D02*
X14957009Y-9903810D01*
X14957009Y-9903810D02*
X14953200Y-9892381D01*
X14953200Y-9892381D02*
X14945581Y-9884762D01*
X14945581Y-9884762D02*
X14937962Y-9880952D01*
X14937962Y-9880952D02*
X14922724Y-9877143D01*
X14922724Y-9877143D02*
X14911295Y-9877143D01*
X14911295Y-9877143D02*
X14896057Y-9880952D01*
X14896057Y-9880952D02*
X14888438Y-9884762D01*
X14888438Y-9884762D02*
X14880819Y-9892381D01*
X14880819Y-9892381D02*
X14877009Y-9903810D01*
X14877009Y-9903810D02*
X14877009Y-9911429D01*
X14877009Y-9911429D02*
X14880819Y-9922857D01*
X14880819Y-9922857D02*
X14884628Y-9926667D01*
X14877009Y-9995238D02*
X14877009Y-9980000D01*
X14877009Y-9980000D02*
X14880819Y-9972381D01*
X14880819Y-9972381D02*
X14884628Y-9968571D01*
X14884628Y-9968571D02*
X14896057Y-9960952D01*
X14896057Y-9960952D02*
X14911295Y-9957143D01*
X14911295Y-9957143D02*
X14941771Y-9957143D01*
X14941771Y-9957143D02*
X14949390Y-9960952D01*
X14949390Y-9960952D02*
X14953200Y-9964762D01*
X14953200Y-9964762D02*
X14957009Y-9972381D01*
X14957009Y-9972381D02*
X14957009Y-9987619D01*
X14957009Y-9987619D02*
X14953200Y-9995238D01*
X14953200Y-9995238D02*
X14949390Y-9999048D01*
X14949390Y-9999048D02*
X14941771Y-10002857D01*
X14941771Y-10002857D02*
X14922724Y-10002857D01*
X14922724Y-10002857D02*
X14915105Y-9999048D01*
X14915105Y-9999048D02*
X14911295Y-9995238D01*
X14911295Y-9995238D02*
X14907486Y-9987619D01*
X14907486Y-9987619D02*
X14907486Y-9972381D01*
X14907486Y-9972381D02*
X14911295Y-9964762D01*
X14911295Y-9964762D02*
X14915105Y-9960952D01*
X14915105Y-9960952D02*
X14922724Y-9957143D01*
D10*
%TO.C,R4*%
X15810222Y-10478821D02*
X15810222Y-10540725D01*
X15810222Y-10540725D02*
X15848317Y-10507392D01*
X15848317Y-10507392D02*
X15848317Y-10521678D01*
X15848317Y-10521678D02*
X15853079Y-10531201D01*
X15853079Y-10531201D02*
X15857841Y-10535963D01*
X15857841Y-10535963D02*
X15867365Y-10540725D01*
X15867365Y-10540725D02*
X15891174Y-10540725D01*
X15891174Y-10540725D02*
X15900698Y-10535963D01*
X15900698Y-10535963D02*
X15905460Y-10531201D01*
X15905460Y-10531201D02*
X15910222Y-10521678D01*
X15910222Y-10521678D02*
X15910222Y-10493106D01*
X15910222Y-10493106D02*
X15905460Y-10483582D01*
X15905460Y-10483582D02*
X15900698Y-10478821D01*
X15910222Y-10583582D02*
X15810222Y-10583582D01*
X15872127Y-10593106D02*
X15910222Y-10621678D01*
X15843555Y-10621678D02*
X15881650Y-10583582D01*
D11*
%TO.C,C10*%
X13276624Y-9956211D02*
X13280433Y-9960020D01*
X13280433Y-9960020D02*
X13291862Y-9963830D01*
X13291862Y-9963830D02*
X13299481Y-9963830D01*
X13299481Y-9963830D02*
X13310909Y-9960020D01*
X13310909Y-9960020D02*
X13318528Y-9952401D01*
X13318528Y-9952401D02*
X13322338Y-9944782D01*
X13322338Y-9944782D02*
X13326147Y-9929544D01*
X13326147Y-9929544D02*
X13326147Y-9918115D01*
X13326147Y-9918115D02*
X13322338Y-9902877D01*
X13322338Y-9902877D02*
X13318528Y-9895258D01*
X13318528Y-9895258D02*
X13310909Y-9887639D01*
X13310909Y-9887639D02*
X13299481Y-9883830D01*
X13299481Y-9883830D02*
X13291862Y-9883830D01*
X13291862Y-9883830D02*
X13280433Y-9887639D01*
X13280433Y-9887639D02*
X13276624Y-9891449D01*
X13200433Y-9963830D02*
X13246147Y-9963830D01*
X13223290Y-9963830D02*
X13223290Y-9883830D01*
X13223290Y-9883830D02*
X13230909Y-9895258D01*
X13230909Y-9895258D02*
X13238528Y-9902877D01*
X13238528Y-9902877D02*
X13246147Y-9906687D01*
X13150909Y-9883830D02*
X13143290Y-9883830D01*
X13143290Y-9883830D02*
X13135671Y-9887639D01*
X13135671Y-9887639D02*
X13131862Y-9891449D01*
X13131862Y-9891449D02*
X13128052Y-9899068D01*
X13128052Y-9899068D02*
X13124243Y-9914306D01*
X13124243Y-9914306D02*
X13124243Y-9933353D01*
X13124243Y-9933353D02*
X13128052Y-9948592D01*
X13128052Y-9948592D02*
X13131862Y-9956211D01*
X13131862Y-9956211D02*
X13135671Y-9960020D01*
X13135671Y-9960020D02*
X13143290Y-9963830D01*
X13143290Y-9963830D02*
X13150909Y-9963830D01*
X13150909Y-9963830D02*
X13158528Y-9960020D01*
X13158528Y-9960020D02*
X13162338Y-9956211D01*
X13162338Y-9956211D02*
X13166147Y-9948592D01*
X13166147Y-9948592D02*
X13169957Y-9933353D01*
X13169957Y-9933353D02*
X13169957Y-9914306D01*
X13169957Y-9914306D02*
X13166147Y-9899068D01*
X13166147Y-9899068D02*
X13162338Y-9891449D01*
X13162338Y-9891449D02*
X13158528Y-9887639D01*
X13158528Y-9887639D02*
X13150909Y-9883830D01*
D10*
%TO.C,R11*%
X16708317Y-10337446D02*
X16703556Y-10332684D01*
X16703556Y-10332684D02*
X16694032Y-10327922D01*
X16694032Y-10327922D02*
X16670222Y-10327922D01*
X16670222Y-10327922D02*
X16660698Y-10332684D01*
X16660698Y-10332684D02*
X16655937Y-10337446D01*
X16655937Y-10337446D02*
X16651175Y-10346970D01*
X16651175Y-10346970D02*
X16651175Y-10356493D01*
X16651175Y-10356493D02*
X16655937Y-10370779D01*
X16655937Y-10370779D02*
X16713079Y-10427922D01*
X16713079Y-10427922D02*
X16651175Y-10427922D01*
X16608317Y-10427922D02*
X16608317Y-10327922D01*
X16598794Y-10389827D02*
X16570222Y-10427922D01*
X16570222Y-10361255D02*
X16608317Y-10399350D01*
D11*
X16676948Y-10101670D02*
X16703615Y-10063574D01*
X16722663Y-10101670D02*
X16722663Y-10021670D01*
X16722663Y-10021670D02*
X16692187Y-10021670D01*
X16692187Y-10021670D02*
X16684568Y-10025479D01*
X16684568Y-10025479D02*
X16680758Y-10029289D01*
X16680758Y-10029289D02*
X16676948Y-10036908D01*
X16676948Y-10036908D02*
X16676948Y-10048336D01*
X16676948Y-10048336D02*
X16680758Y-10055955D01*
X16680758Y-10055955D02*
X16684568Y-10059765D01*
X16684568Y-10059765D02*
X16692187Y-10063574D01*
X16692187Y-10063574D02*
X16722663Y-10063574D01*
X16600758Y-10101670D02*
X16646472Y-10101670D01*
X16623615Y-10101670D02*
X16623615Y-10021670D01*
X16623615Y-10021670D02*
X16631234Y-10033098D01*
X16631234Y-10033098D02*
X16638853Y-10040717D01*
X16638853Y-10040717D02*
X16646472Y-10044527D01*
X16524568Y-10101670D02*
X16570282Y-10101670D01*
X16547425Y-10101670D02*
X16547425Y-10021670D01*
X16547425Y-10021670D02*
X16555044Y-10033098D01*
X16555044Y-10033098D02*
X16562663Y-10040717D01*
X16562663Y-10040717D02*
X16570282Y-10044527D01*
D10*
%TO.C,R8*%
X14308155Y-14528262D02*
X14365297Y-14528262D01*
X14336726Y-14528262D02*
X14336726Y-14428262D01*
X14336726Y-14428262D02*
X14346250Y-14442548D01*
X14346250Y-14442548D02*
X14355774Y-14452071D01*
X14355774Y-14452071D02*
X14365297Y-14456833D01*
X14265297Y-14528262D02*
X14265297Y-14428262D01*
X14255774Y-14490167D02*
X14227202Y-14528262D01*
X14227202Y-14461595D02*
X14265297Y-14499690D01*
D11*
X14309583Y-14337009D02*
X14336250Y-14298914D01*
X14355297Y-14337009D02*
X14355297Y-14257009D01*
X14355297Y-14257009D02*
X14324821Y-14257009D01*
X14324821Y-14257009D02*
X14317202Y-14260819D01*
X14317202Y-14260819D02*
X14313393Y-14264628D01*
X14313393Y-14264628D02*
X14309583Y-14272248D01*
X14309583Y-14272248D02*
X14309583Y-14283676D01*
X14309583Y-14283676D02*
X14313393Y-14291295D01*
X14313393Y-14291295D02*
X14317202Y-14295105D01*
X14317202Y-14295105D02*
X14324821Y-14298914D01*
X14324821Y-14298914D02*
X14355297Y-14298914D01*
X14263869Y-14291295D02*
X14271488Y-14287486D01*
X14271488Y-14287486D02*
X14275297Y-14283676D01*
X14275297Y-14283676D02*
X14279107Y-14276057D01*
X14279107Y-14276057D02*
X14279107Y-14272248D01*
X14279107Y-14272248D02*
X14275297Y-14264628D01*
X14275297Y-14264628D02*
X14271488Y-14260819D01*
X14271488Y-14260819D02*
X14263869Y-14257009D01*
X14263869Y-14257009D02*
X14248631Y-14257009D01*
X14248631Y-14257009D02*
X14241012Y-14260819D01*
X14241012Y-14260819D02*
X14237202Y-14264628D01*
X14237202Y-14264628D02*
X14233393Y-14272248D01*
X14233393Y-14272248D02*
X14233393Y-14276057D01*
X14233393Y-14276057D02*
X14237202Y-14283676D01*
X14237202Y-14283676D02*
X14241012Y-14287486D01*
X14241012Y-14287486D02*
X14248631Y-14291295D01*
X14248631Y-14291295D02*
X14263869Y-14291295D01*
X14263869Y-14291295D02*
X14271488Y-14295105D01*
X14271488Y-14295105D02*
X14275297Y-14298914D01*
X14275297Y-14298914D02*
X14279107Y-14306533D01*
X14279107Y-14306533D02*
X14279107Y-14321771D01*
X14279107Y-14321771D02*
X14275297Y-14329390D01*
X14275297Y-14329390D02*
X14271488Y-14333200D01*
X14271488Y-14333200D02*
X14263869Y-14337009D01*
X14263869Y-14337009D02*
X14248631Y-14337009D01*
X14248631Y-14337009D02*
X14241012Y-14333200D01*
X14241012Y-14333200D02*
X14237202Y-14329390D01*
X14237202Y-14329390D02*
X14233393Y-14321771D01*
X14233393Y-14321771D02*
X14233393Y-14306533D01*
X14233393Y-14306533D02*
X14237202Y-14298914D01*
X14237202Y-14298914D02*
X14241012Y-14295105D01*
X14241012Y-14295105D02*
X14248631Y-14291295D01*
D10*
%TO.C,R20*%
X14732845Y-13060893D02*
X14799512Y-13060893D01*
X14694750Y-13037083D02*
X14766178Y-13013274D01*
X14766178Y-13013274D02*
X14766178Y-13075178D01*
X14789988Y-13113274D02*
X14794750Y-13118036D01*
X14794750Y-13118036D02*
X14799512Y-13113274D01*
X14799512Y-13113274D02*
X14794750Y-13108512D01*
X14794750Y-13108512D02*
X14789988Y-13113274D01*
X14789988Y-13113274D02*
X14799512Y-13113274D01*
X14699512Y-13151369D02*
X14699512Y-13218036D01*
X14699512Y-13218036D02*
X14799512Y-13175178D01*
X14799512Y-13256131D02*
X14699512Y-13256131D01*
X14761417Y-13265655D02*
X14799512Y-13294226D01*
X14732845Y-13294226D02*
X14770940Y-13256131D01*
D11*
X14972259Y-13102321D02*
X14934164Y-13075655D01*
X14972259Y-13056607D02*
X14892259Y-13056607D01*
X14892259Y-13056607D02*
X14892259Y-13087083D01*
X14892259Y-13087083D02*
X14896069Y-13094702D01*
X14896069Y-13094702D02*
X14899878Y-13098512D01*
X14899878Y-13098512D02*
X14907498Y-13102321D01*
X14907498Y-13102321D02*
X14918926Y-13102321D01*
X14918926Y-13102321D02*
X14926545Y-13098512D01*
X14926545Y-13098512D02*
X14930355Y-13094702D01*
X14930355Y-13094702D02*
X14934164Y-13087083D01*
X14934164Y-13087083D02*
X14934164Y-13056607D01*
X14899878Y-13132797D02*
X14896069Y-13136607D01*
X14896069Y-13136607D02*
X14892259Y-13144226D01*
X14892259Y-13144226D02*
X14892259Y-13163274D01*
X14892259Y-13163274D02*
X14896069Y-13170893D01*
X14896069Y-13170893D02*
X14899878Y-13174702D01*
X14899878Y-13174702D02*
X14907498Y-13178512D01*
X14907498Y-13178512D02*
X14915117Y-13178512D01*
X14915117Y-13178512D02*
X14926545Y-13174702D01*
X14926545Y-13174702D02*
X14972259Y-13128988D01*
X14972259Y-13128988D02*
X14972259Y-13178512D01*
X14892259Y-13228036D02*
X14892259Y-13235655D01*
X14892259Y-13235655D02*
X14896069Y-13243274D01*
X14896069Y-13243274D02*
X14899878Y-13247083D01*
X14899878Y-13247083D02*
X14907498Y-13250893D01*
X14907498Y-13250893D02*
X14922736Y-13254702D01*
X14922736Y-13254702D02*
X14941783Y-13254702D01*
X14941783Y-13254702D02*
X14957021Y-13250893D01*
X14957021Y-13250893D02*
X14964640Y-13247083D01*
X14964640Y-13247083D02*
X14968450Y-13243274D01*
X14968450Y-13243274D02*
X14972259Y-13235655D01*
X14972259Y-13235655D02*
X14972259Y-13228036D01*
X14972259Y-13228036D02*
X14968450Y-13220417D01*
X14968450Y-13220417D02*
X14964640Y-13216607D01*
X14964640Y-13216607D02*
X14957021Y-13212798D01*
X14957021Y-13212798D02*
X14941783Y-13208988D01*
X14941783Y-13208988D02*
X14922736Y-13208988D01*
X14922736Y-13208988D02*
X14907498Y-13212798D01*
X14907498Y-13212798D02*
X14899878Y-13216607D01*
X14899878Y-13216607D02*
X14896069Y-13220417D01*
X14896069Y-13220417D02*
X14892259Y-13228036D01*
%TO.C,C13*%
X13278928Y-10244390D02*
X13282738Y-10248200D01*
X13282738Y-10248200D02*
X13294167Y-10252010D01*
X13294167Y-10252010D02*
X13301786Y-10252010D01*
X13301786Y-10252010D02*
X13313214Y-10248200D01*
X13313214Y-10248200D02*
X13320833Y-10240581D01*
X13320833Y-10240581D02*
X13324643Y-10232962D01*
X13324643Y-10232962D02*
X13328452Y-10217724D01*
X13328452Y-10217724D02*
X13328452Y-10206295D01*
X13328452Y-10206295D02*
X13324643Y-10191057D01*
X13324643Y-10191057D02*
X13320833Y-10183438D01*
X13320833Y-10183438D02*
X13313214Y-10175819D01*
X13313214Y-10175819D02*
X13301786Y-10172010D01*
X13301786Y-10172010D02*
X13294167Y-10172010D01*
X13294167Y-10172010D02*
X13282738Y-10175819D01*
X13282738Y-10175819D02*
X13278928Y-10179629D01*
X13202738Y-10252010D02*
X13248452Y-10252010D01*
X13225595Y-10252010D02*
X13225595Y-10172010D01*
X13225595Y-10172010D02*
X13233214Y-10183438D01*
X13233214Y-10183438D02*
X13240833Y-10191057D01*
X13240833Y-10191057D02*
X13248452Y-10194867D01*
X13176071Y-10172010D02*
X13126548Y-10172010D01*
X13126548Y-10172010D02*
X13153214Y-10202486D01*
X13153214Y-10202486D02*
X13141786Y-10202486D01*
X13141786Y-10202486D02*
X13134167Y-10206295D01*
X13134167Y-10206295D02*
X13130357Y-10210105D01*
X13130357Y-10210105D02*
X13126548Y-10217724D01*
X13126548Y-10217724D02*
X13126548Y-10236771D01*
X13126548Y-10236771D02*
X13130357Y-10244390D01*
X13130357Y-10244390D02*
X13134167Y-10248200D01*
X13134167Y-10248200D02*
X13141786Y-10252010D01*
X13141786Y-10252010D02*
X13164643Y-10252010D01*
X13164643Y-10252010D02*
X13172262Y-10248200D01*
X13172262Y-10248200D02*
X13176071Y-10244390D01*
D10*
%TO.C,R3*%
X15897257Y-10340966D02*
X15892496Y-10336204D01*
X15892496Y-10336204D02*
X15882972Y-10331442D01*
X15882972Y-10331442D02*
X15859162Y-10331442D01*
X15859162Y-10331442D02*
X15849638Y-10336204D01*
X15849638Y-10336204D02*
X15844877Y-10340966D01*
X15844877Y-10340966D02*
X15840115Y-10350490D01*
X15840115Y-10350490D02*
X15840115Y-10360013D01*
X15840115Y-10360013D02*
X15844877Y-10374299D01*
X15844877Y-10374299D02*
X15902019Y-10431442D01*
X15902019Y-10431442D02*
X15840115Y-10431442D01*
X15797257Y-10431442D02*
X15797257Y-10331442D01*
X15787734Y-10393347D02*
X15759162Y-10431442D01*
X15759162Y-10364775D02*
X15797257Y-10402870D01*
%TO.C,R22*%
X14680893Y-12873262D02*
X14738036Y-12873262D01*
X14709464Y-12873262D02*
X14709464Y-12773262D01*
X14709464Y-12773262D02*
X14718988Y-12787548D01*
X14718988Y-12787548D02*
X14728512Y-12797071D01*
X14728512Y-12797071D02*
X14738036Y-12801833D01*
X14618988Y-12773262D02*
X14609464Y-12773262D01*
X14609464Y-12773262D02*
X14599940Y-12778024D01*
X14599940Y-12778024D02*
X14595178Y-12782786D01*
X14595178Y-12782786D02*
X14590417Y-12792309D01*
X14590417Y-12792309D02*
X14585655Y-12811357D01*
X14585655Y-12811357D02*
X14585655Y-12835167D01*
X14585655Y-12835167D02*
X14590417Y-12854214D01*
X14590417Y-12854214D02*
X14595178Y-12863738D01*
X14595178Y-12863738D02*
X14599940Y-12868500D01*
X14599940Y-12868500D02*
X14609464Y-12873262D01*
X14609464Y-12873262D02*
X14618988Y-12873262D01*
X14618988Y-12873262D02*
X14628512Y-12868500D01*
X14628512Y-12868500D02*
X14633274Y-12863738D01*
X14633274Y-12863738D02*
X14638036Y-12854214D01*
X14638036Y-12854214D02*
X14642797Y-12835167D01*
X14642797Y-12835167D02*
X14642797Y-12811357D01*
X14642797Y-12811357D02*
X14638036Y-12792309D01*
X14638036Y-12792309D02*
X14633274Y-12782786D01*
X14633274Y-12782786D02*
X14628512Y-12778024D01*
X14628512Y-12778024D02*
X14618988Y-12773262D01*
X14523750Y-12773262D02*
X14514226Y-12773262D01*
X14514226Y-12773262D02*
X14504702Y-12778024D01*
X14504702Y-12778024D02*
X14499940Y-12782786D01*
X14499940Y-12782786D02*
X14495178Y-12792309D01*
X14495178Y-12792309D02*
X14490417Y-12811357D01*
X14490417Y-12811357D02*
X14490417Y-12835167D01*
X14490417Y-12835167D02*
X14495178Y-12854214D01*
X14495178Y-12854214D02*
X14499940Y-12863738D01*
X14499940Y-12863738D02*
X14504702Y-12868500D01*
X14504702Y-12868500D02*
X14514226Y-12873262D01*
X14514226Y-12873262D02*
X14523750Y-12873262D01*
X14523750Y-12873262D02*
X14533274Y-12868500D01*
X14533274Y-12868500D02*
X14538036Y-12863738D01*
X14538036Y-12863738D02*
X14542797Y-12854214D01*
X14542797Y-12854214D02*
X14547559Y-12835167D01*
X14547559Y-12835167D02*
X14547559Y-12811357D01*
X14547559Y-12811357D02*
X14542797Y-12792309D01*
X14542797Y-12792309D02*
X14538036Y-12782786D01*
X14538036Y-12782786D02*
X14533274Y-12778024D01*
X14533274Y-12778024D02*
X14523750Y-12773262D01*
X14447559Y-12873262D02*
X14447559Y-12773262D01*
X14438036Y-12835167D02*
X14409464Y-12873262D01*
X14409464Y-12806595D02*
X14447559Y-12844690D01*
D11*
X14625178Y-12682009D02*
X14651845Y-12643914D01*
X14670893Y-12682009D02*
X14670893Y-12602009D01*
X14670893Y-12602009D02*
X14640417Y-12602009D01*
X14640417Y-12602009D02*
X14632798Y-12605819D01*
X14632798Y-12605819D02*
X14628988Y-12609628D01*
X14628988Y-12609628D02*
X14625178Y-12617248D01*
X14625178Y-12617248D02*
X14625178Y-12628676D01*
X14625178Y-12628676D02*
X14628988Y-12636295D01*
X14628988Y-12636295D02*
X14632798Y-12640105D01*
X14632798Y-12640105D02*
X14640417Y-12643914D01*
X14640417Y-12643914D02*
X14670893Y-12643914D01*
X14594702Y-12609628D02*
X14590893Y-12605819D01*
X14590893Y-12605819D02*
X14583274Y-12602009D01*
X14583274Y-12602009D02*
X14564226Y-12602009D01*
X14564226Y-12602009D02*
X14556607Y-12605819D01*
X14556607Y-12605819D02*
X14552798Y-12609628D01*
X14552798Y-12609628D02*
X14548988Y-12617248D01*
X14548988Y-12617248D02*
X14548988Y-12624867D01*
X14548988Y-12624867D02*
X14552798Y-12636295D01*
X14552798Y-12636295D02*
X14598512Y-12682009D01*
X14598512Y-12682009D02*
X14548988Y-12682009D01*
X14518512Y-12609628D02*
X14514702Y-12605819D01*
X14514702Y-12605819D02*
X14507083Y-12602009D01*
X14507083Y-12602009D02*
X14488036Y-12602009D01*
X14488036Y-12602009D02*
X14480417Y-12605819D01*
X14480417Y-12605819D02*
X14476607Y-12609628D01*
X14476607Y-12609628D02*
X14472798Y-12617248D01*
X14472798Y-12617248D02*
X14472798Y-12624867D01*
X14472798Y-12624867D02*
X14476607Y-12636295D01*
X14476607Y-12636295D02*
X14522321Y-12682009D01*
X14522321Y-12682009D02*
X14472798Y-12682009D01*
D10*
%TO.C,U6*%
X14408452Y-10266260D02*
X14408452Y-10331021D01*
X14408452Y-10331021D02*
X14404643Y-10338640D01*
X14404643Y-10338640D02*
X14400833Y-10342450D01*
X14400833Y-10342450D02*
X14393214Y-10346260D01*
X14393214Y-10346260D02*
X14377976Y-10346260D01*
X14377976Y-10346260D02*
X14370357Y-10342450D01*
X14370357Y-10342450D02*
X14366548Y-10338640D01*
X14366548Y-10338640D02*
X14362738Y-10331021D01*
X14362738Y-10331021D02*
X14362738Y-10266260D01*
X14290357Y-10266260D02*
X14305595Y-10266260D01*
X14305595Y-10266260D02*
X14313214Y-10270069D01*
X14313214Y-10270069D02*
X14317024Y-10273879D01*
X14317024Y-10273879D02*
X14324643Y-10285307D01*
X14324643Y-10285307D02*
X14328452Y-10300545D01*
X14328452Y-10300545D02*
X14328452Y-10331021D01*
X14328452Y-10331021D02*
X14324643Y-10338640D01*
X14324643Y-10338640D02*
X14320833Y-10342450D01*
X14320833Y-10342450D02*
X14313214Y-10346260D01*
X14313214Y-10346260D02*
X14297976Y-10346260D01*
X14297976Y-10346260D02*
X14290357Y-10342450D01*
X14290357Y-10342450D02*
X14286548Y-10338640D01*
X14286548Y-10338640D02*
X14282738Y-10331021D01*
X14282738Y-10331021D02*
X14282738Y-10311974D01*
X14282738Y-10311974D02*
X14286548Y-10304355D01*
X14286548Y-10304355D02*
X14290357Y-10300545D01*
X14290357Y-10300545D02*
X14297976Y-10296736D01*
X14297976Y-10296736D02*
X14313214Y-10296736D01*
X14313214Y-10296736D02*
X14320833Y-10300545D01*
X14320833Y-10300545D02*
X14324643Y-10304355D01*
X14324643Y-10304355D02*
X14328452Y-10311974D01*
%TO.C,R12*%
X16708317Y-10087446D02*
X16703556Y-10082684D01*
X16703556Y-10082684D02*
X16694032Y-10077922D01*
X16694032Y-10077922D02*
X16670222Y-10077922D01*
X16670222Y-10077922D02*
X16660698Y-10082684D01*
X16660698Y-10082684D02*
X16655937Y-10087446D01*
X16655937Y-10087446D02*
X16651175Y-10096970D01*
X16651175Y-10096970D02*
X16651175Y-10106493D01*
X16651175Y-10106493D02*
X16655937Y-10120779D01*
X16655937Y-10120779D02*
X16713079Y-10177922D01*
X16713079Y-10177922D02*
X16651175Y-10177922D01*
X16608317Y-10177922D02*
X16608317Y-10077922D01*
X16598794Y-10139827D02*
X16570222Y-10177922D01*
X16570222Y-10111255D02*
X16608317Y-10149350D01*
D11*
X16690698Y-9986670D02*
X16717365Y-9948574D01*
X16736413Y-9986670D02*
X16736413Y-9906670D01*
X16736413Y-9906670D02*
X16705937Y-9906670D01*
X16705937Y-9906670D02*
X16698318Y-9910479D01*
X16698318Y-9910479D02*
X16694508Y-9914289D01*
X16694508Y-9914289D02*
X16690698Y-9921908D01*
X16690698Y-9921908D02*
X16690698Y-9933336D01*
X16690698Y-9933336D02*
X16694508Y-9940955D01*
X16694508Y-9940955D02*
X16698318Y-9944765D01*
X16698318Y-9944765D02*
X16705937Y-9948574D01*
X16705937Y-9948574D02*
X16736413Y-9948574D01*
X16614508Y-9986670D02*
X16660222Y-9986670D01*
X16637365Y-9986670D02*
X16637365Y-9906670D01*
X16637365Y-9906670D02*
X16644984Y-9918098D01*
X16644984Y-9918098D02*
X16652603Y-9925717D01*
X16652603Y-9925717D02*
X16660222Y-9929527D01*
X16584032Y-9914289D02*
X16580222Y-9910479D01*
X16580222Y-9910479D02*
X16572603Y-9906670D01*
X16572603Y-9906670D02*
X16553556Y-9906670D01*
X16553556Y-9906670D02*
X16545937Y-9910479D01*
X16545937Y-9910479D02*
X16542127Y-9914289D01*
X16542127Y-9914289D02*
X16538318Y-9921908D01*
X16538318Y-9921908D02*
X16538318Y-9929527D01*
X16538318Y-9929527D02*
X16542127Y-9940955D01*
X16542127Y-9940955D02*
X16587841Y-9986670D01*
X16587841Y-9986670D02*
X16538318Y-9986670D01*
D10*
%TO.C,C3*%
X13331262Y-13295595D02*
X13331262Y-13305119D01*
X13331262Y-13305119D02*
X13336024Y-13314643D01*
X13336024Y-13314643D02*
X13340786Y-13319405D01*
X13340786Y-13319405D02*
X13350309Y-13324167D01*
X13350309Y-13324167D02*
X13369357Y-13328928D01*
X13369357Y-13328928D02*
X13393167Y-13328928D01*
X13393167Y-13328928D02*
X13412214Y-13324167D01*
X13412214Y-13324167D02*
X13421738Y-13319405D01*
X13421738Y-13319405D02*
X13426500Y-13314643D01*
X13426500Y-13314643D02*
X13431262Y-13305119D01*
X13431262Y-13305119D02*
X13431262Y-13295595D01*
X13431262Y-13295595D02*
X13426500Y-13286071D01*
X13426500Y-13286071D02*
X13421738Y-13281309D01*
X13421738Y-13281309D02*
X13412214Y-13276548D01*
X13412214Y-13276548D02*
X13393167Y-13271786D01*
X13393167Y-13271786D02*
X13369357Y-13271786D01*
X13369357Y-13271786D02*
X13350309Y-13276548D01*
X13350309Y-13276548D02*
X13340786Y-13281309D01*
X13340786Y-13281309D02*
X13336024Y-13286071D01*
X13336024Y-13286071D02*
X13331262Y-13295595D01*
X13421738Y-13371786D02*
X13426500Y-13376548D01*
X13426500Y-13376548D02*
X13431262Y-13371786D01*
X13431262Y-13371786D02*
X13426500Y-13367024D01*
X13426500Y-13367024D02*
X13421738Y-13371786D01*
X13421738Y-13371786D02*
X13431262Y-13371786D01*
X13331262Y-13438452D02*
X13331262Y-13447976D01*
X13331262Y-13447976D02*
X13336024Y-13457500D01*
X13336024Y-13457500D02*
X13340786Y-13462262D01*
X13340786Y-13462262D02*
X13350309Y-13467024D01*
X13350309Y-13467024D02*
X13369357Y-13471786D01*
X13369357Y-13471786D02*
X13393167Y-13471786D01*
X13393167Y-13471786D02*
X13412214Y-13467024D01*
X13412214Y-13467024D02*
X13421738Y-13462262D01*
X13421738Y-13462262D02*
X13426500Y-13457500D01*
X13426500Y-13457500D02*
X13431262Y-13447976D01*
X13431262Y-13447976D02*
X13431262Y-13438452D01*
X13431262Y-13438452D02*
X13426500Y-13428928D01*
X13426500Y-13428928D02*
X13421738Y-13424167D01*
X13421738Y-13424167D02*
X13412214Y-13419405D01*
X13412214Y-13419405D02*
X13393167Y-13414643D01*
X13393167Y-13414643D02*
X13369357Y-13414643D01*
X13369357Y-13414643D02*
X13350309Y-13419405D01*
X13350309Y-13419405D02*
X13340786Y-13424167D01*
X13340786Y-13424167D02*
X13336024Y-13428928D01*
X13336024Y-13428928D02*
X13331262Y-13438452D01*
X13431262Y-13567024D02*
X13431262Y-13509881D01*
X13431262Y-13538452D02*
X13331262Y-13538452D01*
X13331262Y-13538452D02*
X13345548Y-13528928D01*
X13345548Y-13528928D02*
X13355071Y-13519405D01*
X13355071Y-13519405D02*
X13359833Y-13509881D01*
X13364595Y-13652738D02*
X13431262Y-13652738D01*
X13364595Y-13609881D02*
X13416976Y-13609881D01*
X13416976Y-13609881D02*
X13426500Y-13614643D01*
X13426500Y-13614643D02*
X13431262Y-13624167D01*
X13431262Y-13624167D02*
X13431262Y-13638452D01*
X13431262Y-13638452D02*
X13426500Y-13647976D01*
X13426500Y-13647976D02*
X13421738Y-13652738D01*
X13378881Y-13733690D02*
X13378881Y-13700357D01*
X13431262Y-13700357D02*
X13331262Y-13700357D01*
X13331262Y-13700357D02*
X13331262Y-13747976D01*
D11*
X13229390Y-13494167D02*
X13233200Y-13490357D01*
X13233200Y-13490357D02*
X13237009Y-13478929D01*
X13237009Y-13478929D02*
X13237009Y-13471309D01*
X13237009Y-13471309D02*
X13233200Y-13459881D01*
X13233200Y-13459881D02*
X13225581Y-13452262D01*
X13225581Y-13452262D02*
X13217962Y-13448452D01*
X13217962Y-13448452D02*
X13202724Y-13444643D01*
X13202724Y-13444643D02*
X13191295Y-13444643D01*
X13191295Y-13444643D02*
X13176057Y-13448452D01*
X13176057Y-13448452D02*
X13168438Y-13452262D01*
X13168438Y-13452262D02*
X13160819Y-13459881D01*
X13160819Y-13459881D02*
X13157009Y-13471309D01*
X13157009Y-13471309D02*
X13157009Y-13478929D01*
X13157009Y-13478929D02*
X13160819Y-13490357D01*
X13160819Y-13490357D02*
X13164628Y-13494167D01*
X13157009Y-13520833D02*
X13157009Y-13570357D01*
X13157009Y-13570357D02*
X13187486Y-13543690D01*
X13187486Y-13543690D02*
X13187486Y-13555119D01*
X13187486Y-13555119D02*
X13191295Y-13562738D01*
X13191295Y-13562738D02*
X13195105Y-13566548D01*
X13195105Y-13566548D02*
X13202724Y-13570357D01*
X13202724Y-13570357D02*
X13221771Y-13570357D01*
X13221771Y-13570357D02*
X13229390Y-13566548D01*
X13229390Y-13566548D02*
X13233200Y-13562738D01*
X13233200Y-13562738D02*
X13237009Y-13555119D01*
X13237009Y-13555119D02*
X13237009Y-13532262D01*
X13237009Y-13532262D02*
X13233200Y-13524643D01*
X13233200Y-13524643D02*
X13229390Y-13520833D01*
D10*
%TO.C,R16*%
X15778095Y-12872393D02*
X15844762Y-12872393D01*
X15740000Y-12848583D02*
X15811428Y-12824774D01*
X15811428Y-12824774D02*
X15811428Y-12886678D01*
X15835238Y-12924774D02*
X15840000Y-12929536D01*
X15840000Y-12929536D02*
X15844762Y-12924774D01*
X15844762Y-12924774D02*
X15840000Y-12920012D01*
X15840000Y-12920012D02*
X15835238Y-12924774D01*
X15835238Y-12924774D02*
X15844762Y-12924774D01*
X15744762Y-12962869D02*
X15744762Y-13029536D01*
X15744762Y-13029536D02*
X15844762Y-12986678D01*
X15844762Y-13067631D02*
X15744762Y-13067631D01*
X15806667Y-13077155D02*
X15844762Y-13105726D01*
X15778095Y-13105726D02*
X15816190Y-13067631D01*
D11*
X16017509Y-12913821D02*
X15979414Y-12887155D01*
X16017509Y-12868107D02*
X15937509Y-12868107D01*
X15937509Y-12868107D02*
X15937509Y-12898583D01*
X15937509Y-12898583D02*
X15941319Y-12906202D01*
X15941319Y-12906202D02*
X15945128Y-12910012D01*
X15945128Y-12910012D02*
X15952748Y-12913821D01*
X15952748Y-12913821D02*
X15964176Y-12913821D01*
X15964176Y-12913821D02*
X15971795Y-12910012D01*
X15971795Y-12910012D02*
X15975605Y-12906202D01*
X15975605Y-12906202D02*
X15979414Y-12898583D01*
X15979414Y-12898583D02*
X15979414Y-12868107D01*
X16017509Y-12990012D02*
X16017509Y-12944297D01*
X16017509Y-12967155D02*
X15937509Y-12967155D01*
X15937509Y-12967155D02*
X15948938Y-12959536D01*
X15948938Y-12959536D02*
X15956557Y-12951917D01*
X15956557Y-12951917D02*
X15960367Y-12944297D01*
X15937509Y-13058583D02*
X15937509Y-13043345D01*
X15937509Y-13043345D02*
X15941319Y-13035726D01*
X15941319Y-13035726D02*
X15945128Y-13031917D01*
X15945128Y-13031917D02*
X15956557Y-13024298D01*
X15956557Y-13024298D02*
X15971795Y-13020488D01*
X15971795Y-13020488D02*
X16002271Y-13020488D01*
X16002271Y-13020488D02*
X16009890Y-13024298D01*
X16009890Y-13024298D02*
X16013700Y-13028107D01*
X16013700Y-13028107D02*
X16017509Y-13035726D01*
X16017509Y-13035726D02*
X16017509Y-13050964D01*
X16017509Y-13050964D02*
X16013700Y-13058583D01*
X16013700Y-13058583D02*
X16009890Y-13062393D01*
X16009890Y-13062393D02*
X16002271Y-13066202D01*
X16002271Y-13066202D02*
X15983224Y-13066202D01*
X15983224Y-13066202D02*
X15975605Y-13062393D01*
X15975605Y-13062393D02*
X15971795Y-13058583D01*
X15971795Y-13058583D02*
X15967986Y-13050964D01*
X15967986Y-13050964D02*
X15967986Y-13035726D01*
X15967986Y-13035726D02*
X15971795Y-13028107D01*
X15971795Y-13028107D02*
X15975605Y-13024298D01*
X15975605Y-13024298D02*
X15983224Y-13020488D01*
D10*
%TO.C,R7*%
X13739095Y-10525893D02*
X13805762Y-10525893D01*
X13701000Y-10502083D02*
X13772428Y-10478274D01*
X13772428Y-10478274D02*
X13772428Y-10540179D01*
X13796238Y-10578274D02*
X13801000Y-10583036D01*
X13801000Y-10583036D02*
X13805762Y-10578274D01*
X13805762Y-10578274D02*
X13801000Y-10573512D01*
X13801000Y-10573512D02*
X13796238Y-10578274D01*
X13796238Y-10578274D02*
X13805762Y-10578274D01*
X13705762Y-10616369D02*
X13705762Y-10683036D01*
X13705762Y-10683036D02*
X13805762Y-10640179D01*
X13805762Y-10721131D02*
X13705762Y-10721131D01*
X13767667Y-10730655D02*
X13805762Y-10759226D01*
X13739095Y-10759226D02*
X13777190Y-10721131D01*
D11*
X13614509Y-10605417D02*
X13576414Y-10578750D01*
X13614509Y-10559702D02*
X13534509Y-10559702D01*
X13534509Y-10559702D02*
X13534509Y-10590179D01*
X13534509Y-10590179D02*
X13538319Y-10597798D01*
X13538319Y-10597798D02*
X13542128Y-10601607D01*
X13542128Y-10601607D02*
X13549748Y-10605417D01*
X13549748Y-10605417D02*
X13561176Y-10605417D01*
X13561176Y-10605417D02*
X13568795Y-10601607D01*
X13568795Y-10601607D02*
X13572605Y-10597798D01*
X13572605Y-10597798D02*
X13576414Y-10590179D01*
X13576414Y-10590179D02*
X13576414Y-10559702D01*
X13534509Y-10632083D02*
X13534509Y-10685417D01*
X13534509Y-10685417D02*
X13614509Y-10651131D01*
D10*
%TO.C,R18*%
X15940893Y-12521522D02*
X15998036Y-12521522D01*
X15969464Y-12521522D02*
X15969464Y-12421522D01*
X15969464Y-12421522D02*
X15978988Y-12435808D01*
X15978988Y-12435808D02*
X15988512Y-12445331D01*
X15988512Y-12445331D02*
X15998036Y-12450093D01*
X15878988Y-12421522D02*
X15869464Y-12421522D01*
X15869464Y-12421522D02*
X15859940Y-12426284D01*
X15859940Y-12426284D02*
X15855178Y-12431046D01*
X15855178Y-12431046D02*
X15850417Y-12440569D01*
X15850417Y-12440569D02*
X15845655Y-12459617D01*
X15845655Y-12459617D02*
X15845655Y-12483427D01*
X15845655Y-12483427D02*
X15850417Y-12502474D01*
X15850417Y-12502474D02*
X15855178Y-12511998D01*
X15855178Y-12511998D02*
X15859940Y-12516760D01*
X15859940Y-12516760D02*
X15869464Y-12521522D01*
X15869464Y-12521522D02*
X15878988Y-12521522D01*
X15878988Y-12521522D02*
X15888512Y-12516760D01*
X15888512Y-12516760D02*
X15893274Y-12511998D01*
X15893274Y-12511998D02*
X15898036Y-12502474D01*
X15898036Y-12502474D02*
X15902797Y-12483427D01*
X15902797Y-12483427D02*
X15902797Y-12459617D01*
X15902797Y-12459617D02*
X15898036Y-12440569D01*
X15898036Y-12440569D02*
X15893274Y-12431046D01*
X15893274Y-12431046D02*
X15888512Y-12426284D01*
X15888512Y-12426284D02*
X15878988Y-12421522D01*
X15783750Y-12421522D02*
X15774226Y-12421522D01*
X15774226Y-12421522D02*
X15764702Y-12426284D01*
X15764702Y-12426284D02*
X15759940Y-12431046D01*
X15759940Y-12431046D02*
X15755178Y-12440569D01*
X15755178Y-12440569D02*
X15750417Y-12459617D01*
X15750417Y-12459617D02*
X15750417Y-12483427D01*
X15750417Y-12483427D02*
X15755178Y-12502474D01*
X15755178Y-12502474D02*
X15759940Y-12511998D01*
X15759940Y-12511998D02*
X15764702Y-12516760D01*
X15764702Y-12516760D02*
X15774226Y-12521522D01*
X15774226Y-12521522D02*
X15783750Y-12521522D01*
X15783750Y-12521522D02*
X15793274Y-12516760D01*
X15793274Y-12516760D02*
X15798036Y-12511998D01*
X15798036Y-12511998D02*
X15802797Y-12502474D01*
X15802797Y-12502474D02*
X15807559Y-12483427D01*
X15807559Y-12483427D02*
X15807559Y-12459617D01*
X15807559Y-12459617D02*
X15802797Y-12440569D01*
X15802797Y-12440569D02*
X15798036Y-12431046D01*
X15798036Y-12431046D02*
X15793274Y-12426284D01*
X15793274Y-12426284D02*
X15783750Y-12421522D01*
X15707559Y-12521522D02*
X15707559Y-12421522D01*
X15698036Y-12483427D02*
X15669464Y-12521522D01*
X15669464Y-12454855D02*
X15707559Y-12492950D01*
D11*
X15885178Y-12694269D02*
X15911845Y-12656174D01*
X15930893Y-12694269D02*
X15930893Y-12614269D01*
X15930893Y-12614269D02*
X15900417Y-12614269D01*
X15900417Y-12614269D02*
X15892798Y-12618079D01*
X15892798Y-12618079D02*
X15888988Y-12621888D01*
X15888988Y-12621888D02*
X15885178Y-12629508D01*
X15885178Y-12629508D02*
X15885178Y-12640936D01*
X15885178Y-12640936D02*
X15888988Y-12648555D01*
X15888988Y-12648555D02*
X15892798Y-12652365D01*
X15892798Y-12652365D02*
X15900417Y-12656174D01*
X15900417Y-12656174D02*
X15930893Y-12656174D01*
X15808988Y-12694269D02*
X15854702Y-12694269D01*
X15831845Y-12694269D02*
X15831845Y-12614269D01*
X15831845Y-12614269D02*
X15839464Y-12625698D01*
X15839464Y-12625698D02*
X15847083Y-12633317D01*
X15847083Y-12633317D02*
X15854702Y-12637127D01*
X15763274Y-12648555D02*
X15770893Y-12644746D01*
X15770893Y-12644746D02*
X15774702Y-12640936D01*
X15774702Y-12640936D02*
X15778512Y-12633317D01*
X15778512Y-12633317D02*
X15778512Y-12629508D01*
X15778512Y-12629508D02*
X15774702Y-12621888D01*
X15774702Y-12621888D02*
X15770893Y-12618079D01*
X15770893Y-12618079D02*
X15763274Y-12614269D01*
X15763274Y-12614269D02*
X15748036Y-12614269D01*
X15748036Y-12614269D02*
X15740417Y-12618079D01*
X15740417Y-12618079D02*
X15736607Y-12621888D01*
X15736607Y-12621888D02*
X15732798Y-12629508D01*
X15732798Y-12629508D02*
X15732798Y-12633317D01*
X15732798Y-12633317D02*
X15736607Y-12640936D01*
X15736607Y-12640936D02*
X15740417Y-12644746D01*
X15740417Y-12644746D02*
X15748036Y-12648555D01*
X15748036Y-12648555D02*
X15763274Y-12648555D01*
X15763274Y-12648555D02*
X15770893Y-12652365D01*
X15770893Y-12652365D02*
X15774702Y-12656174D01*
X15774702Y-12656174D02*
X15778512Y-12663793D01*
X15778512Y-12663793D02*
X15778512Y-12679031D01*
X15778512Y-12679031D02*
X15774702Y-12686650D01*
X15774702Y-12686650D02*
X15770893Y-12690460D01*
X15770893Y-12690460D02*
X15763274Y-12694269D01*
X15763274Y-12694269D02*
X15748036Y-12694269D01*
X15748036Y-12694269D02*
X15740417Y-12690460D01*
X15740417Y-12690460D02*
X15736607Y-12686650D01*
X15736607Y-12686650D02*
X15732798Y-12679031D01*
X15732798Y-12679031D02*
X15732798Y-12663793D01*
X15732798Y-12663793D02*
X15736607Y-12656174D01*
X15736607Y-12656174D02*
X15740417Y-12652365D01*
X15740417Y-12652365D02*
X15748036Y-12648555D01*
D10*
%TO.C,R15*%
X13779262Y-13938095D02*
X13779262Y-13880952D01*
X13779262Y-13909524D02*
X13679262Y-13909524D01*
X13679262Y-13909524D02*
X13693548Y-13900000D01*
X13693548Y-13900000D02*
X13703071Y-13890476D01*
X13703071Y-13890476D02*
X13707833Y-13880952D01*
X13779262Y-13980952D02*
X13679262Y-13980952D01*
X13741167Y-13990476D02*
X13779262Y-14019048D01*
X13712595Y-14019048D02*
X13750690Y-13980952D01*
D11*
X13952009Y-13898571D02*
X13913914Y-13871905D01*
X13952009Y-13852857D02*
X13872009Y-13852857D01*
X13872009Y-13852857D02*
X13872009Y-13883333D01*
X13872009Y-13883333D02*
X13875819Y-13890952D01*
X13875819Y-13890952D02*
X13879628Y-13894762D01*
X13879628Y-13894762D02*
X13887248Y-13898571D01*
X13887248Y-13898571D02*
X13898676Y-13898571D01*
X13898676Y-13898571D02*
X13906295Y-13894762D01*
X13906295Y-13894762D02*
X13910105Y-13890952D01*
X13910105Y-13890952D02*
X13913914Y-13883333D01*
X13913914Y-13883333D02*
X13913914Y-13852857D01*
X13952009Y-13974762D02*
X13952009Y-13929047D01*
X13952009Y-13951905D02*
X13872009Y-13951905D01*
X13872009Y-13951905D02*
X13883438Y-13944286D01*
X13883438Y-13944286D02*
X13891057Y-13936667D01*
X13891057Y-13936667D02*
X13894867Y-13929047D01*
X13872009Y-14047143D02*
X13872009Y-14009048D01*
X13872009Y-14009048D02*
X13910105Y-14005238D01*
X13910105Y-14005238D02*
X13906295Y-14009048D01*
X13906295Y-14009048D02*
X13902486Y-14016667D01*
X13902486Y-14016667D02*
X13902486Y-14035714D01*
X13902486Y-14035714D02*
X13906295Y-14043333D01*
X13906295Y-14043333D02*
X13910105Y-14047143D01*
X13910105Y-14047143D02*
X13917724Y-14050952D01*
X13917724Y-14050952D02*
X13936771Y-14050952D01*
X13936771Y-14050952D02*
X13944390Y-14047143D01*
X13944390Y-14047143D02*
X13948200Y-14043333D01*
X13948200Y-14043333D02*
X13952009Y-14035714D01*
X13952009Y-14035714D02*
X13952009Y-14016667D01*
X13952009Y-14016667D02*
X13948200Y-14009048D01*
X13948200Y-14009048D02*
X13944390Y-14005238D01*
D12*
%TO.C,R13*%
X16799270Y-11047160D02*
X16799270Y-10887160D01*
X16799270Y-10887160D02*
X16479270Y-10887160D01*
X16479270Y-11047160D02*
X16799270Y-11047160D01*
X16479270Y-10887160D02*
X16479270Y-11047160D01*
%TO.C,C2*%
X13112000Y-15402500D02*
X13272000Y-15402500D01*
X13272000Y-15402500D02*
X13272000Y-15082500D01*
X13112000Y-15082500D02*
X13112000Y-15402500D01*
X13272000Y-15082500D02*
X13112000Y-15082500D01*
%TO.C,R6*%
X14735000Y-9565000D02*
X14735000Y-9405000D01*
X14735000Y-9405000D02*
X14415000Y-9405000D01*
X14415000Y-9565000D02*
X14735000Y-9565000D01*
X14415000Y-9405000D02*
X14415000Y-9565000D01*
%TO.C,C6*%
X14840000Y-10100000D02*
X15000000Y-10100000D01*
X15000000Y-10100000D02*
X15000000Y-9780000D01*
X14840000Y-9780000D02*
X14840000Y-10100000D01*
X15000000Y-9780000D02*
X14840000Y-9780000D01*
%TO.C,R19*%
X15268750Y-11272260D02*
X15428750Y-11272260D01*
X15428750Y-11272260D02*
X15428750Y-10952260D01*
X15268750Y-10952260D02*
X15268750Y-11272260D01*
X15428750Y-10952260D02*
X15268750Y-10952260D01*
%TO.C,R4*%
X15761960Y-10392630D02*
X15601960Y-10392630D01*
X15601960Y-10392630D02*
X15601960Y-10712630D01*
X15761960Y-10712630D02*
X15761960Y-10392630D01*
X15601960Y-10712630D02*
X15761960Y-10712630D01*
%TO.C,C9*%
X15144000Y-9096500D02*
X14984000Y-9096500D01*
X14984000Y-9096500D02*
X14984000Y-9416500D01*
X15144000Y-9416500D02*
X15144000Y-9096500D01*
X14984000Y-9416500D02*
X15144000Y-9416500D01*
%TO.C,R17*%
X13890000Y-10456250D02*
X13730000Y-10456250D01*
X13730000Y-10456250D02*
X13730000Y-10776250D01*
X13890000Y-10776250D02*
X13890000Y-10456250D01*
X13730000Y-10776250D02*
X13890000Y-10776250D01*
%TO.C,C10*%
X13065195Y-9846820D02*
X13065195Y-10006820D01*
X13065195Y-10006820D02*
X13385195Y-10006820D01*
X13385195Y-9846820D02*
X13065195Y-9846820D01*
X13385195Y-10006820D02*
X13385195Y-9846820D01*
%TO.C,R11*%
X16799270Y-10279660D02*
X16799270Y-10119660D01*
X16799270Y-10119660D02*
X16479270Y-10119660D01*
X16479270Y-10279660D02*
X16799270Y-10279660D01*
X16479270Y-10119660D02*
X16479270Y-10279660D01*
%TO.C,R21*%
X15036250Y-11272260D02*
X15196250Y-11272260D01*
X15196250Y-11272260D02*
X15196250Y-10952260D01*
X15036250Y-10952260D02*
X15036250Y-11272260D01*
X15196250Y-10952260D02*
X15036250Y-10952260D01*
%TO.C,R8*%
X14456250Y-14380000D02*
X14456250Y-14220000D01*
X14456250Y-14220000D02*
X14136250Y-14220000D01*
X14136250Y-14380000D02*
X14456250Y-14380000D01*
X14136250Y-14220000D02*
X14136250Y-14380000D01*
%TO.C,R1*%
X15676250Y-9615000D02*
X15676250Y-9775000D01*
X15676250Y-9775000D02*
X15996250Y-9775000D01*
X15996250Y-9615000D02*
X15676250Y-9615000D01*
X15996250Y-9775000D02*
X15996250Y-9615000D01*
%TO.C,R20*%
X14855250Y-13313750D02*
X15015250Y-13313750D01*
X15015250Y-13313750D02*
X15015250Y-12993750D01*
X14855250Y-12993750D02*
X14855250Y-13313750D01*
X15015250Y-12993750D02*
X14855250Y-12993750D01*
%TO.C,C24*%
X14312500Y-11111500D02*
X14152500Y-11111500D01*
X14152500Y-11111500D02*
X14152500Y-11431500D01*
X14312500Y-11431500D02*
X14312500Y-11111500D01*
X14152500Y-11431500D02*
X14312500Y-11431500D01*
%TO.C,C13*%
X13067500Y-10135000D02*
X13067500Y-10295000D01*
X13067500Y-10295000D02*
X13387500Y-10295000D01*
X13387500Y-10135000D02*
X13067500Y-10135000D01*
X13387500Y-10295000D02*
X13387500Y-10135000D01*
%TO.C,R3*%
X15988210Y-10283180D02*
X15988210Y-10123180D01*
X15988210Y-10123180D02*
X15668210Y-10123180D01*
X15668210Y-10283180D02*
X15988210Y-10283180D01*
X15668210Y-10123180D02*
X15668210Y-10283180D01*
%TO.C,R22*%
X14733750Y-12725000D02*
X14733750Y-12565000D01*
X14733750Y-12565000D02*
X14413750Y-12565000D01*
X14413750Y-12725000D02*
X14733750Y-12725000D01*
X14413750Y-12565000D02*
X14413750Y-12725000D01*
%TO.C,R5*%
X14733750Y-9790000D02*
X14733750Y-9630000D01*
X14733750Y-9630000D02*
X14413750Y-9630000D01*
X14413750Y-9790000D02*
X14733750Y-9790000D01*
X14413750Y-9630000D02*
X14413750Y-9790000D01*
%TO.C,R10*%
X14912500Y-8577500D02*
X14912500Y-8417500D01*
X14912500Y-8417500D02*
X14592500Y-8417500D01*
X14592500Y-8577500D02*
X14912500Y-8577500D01*
X14592500Y-8417500D02*
X14592500Y-8577500D01*
D10*
%TO.C,U6*%
X14152500Y-9874250D02*
X14152500Y-10644250D01*
X14152500Y-10644250D02*
X14252500Y-10744250D01*
X14252500Y-10744250D02*
X14542500Y-10744250D01*
X14542500Y-9874250D02*
X14152500Y-9874250D01*
X14542500Y-10744250D02*
X14542500Y-9874250D01*
D12*
%TO.C,R2*%
X15987810Y-10029180D02*
X15987810Y-9869180D01*
X15987810Y-9869180D02*
X15667810Y-9869180D01*
X15667810Y-10029180D02*
X15987810Y-10029180D01*
X15667810Y-9869180D02*
X15667810Y-10029180D01*
%TO.C,R9*%
X14911250Y-8350000D02*
X14911250Y-8190000D01*
X14911250Y-8190000D02*
X14591250Y-8190000D01*
X14591250Y-8350000D02*
X14911250Y-8350000D01*
X14591250Y-8190000D02*
X14591250Y-8350000D01*
%TO.C,R12*%
X16799270Y-10029660D02*
X16799270Y-9869660D01*
X16799270Y-9869660D02*
X16479270Y-9869660D01*
X16479270Y-10029660D02*
X16799270Y-10029660D01*
X16479270Y-9869660D02*
X16479270Y-10029660D01*
%TO.C,C15*%
X15270000Y-10705000D02*
X15270000Y-10545000D01*
X15270000Y-10545000D02*
X14950000Y-10545000D01*
X14950000Y-10705000D02*
X15270000Y-10705000D01*
X14950000Y-10545000D02*
X14950000Y-10705000D01*
%TO.C,C23*%
X14542500Y-11111500D02*
X14382500Y-11111500D01*
X14382500Y-11111500D02*
X14382500Y-11431500D01*
X14542500Y-11431500D02*
X14542500Y-11111500D01*
X14382500Y-11431500D02*
X14542500Y-11431500D01*
%TO.C,C3*%
X13280000Y-13347500D02*
X13120000Y-13347500D01*
X13120000Y-13347500D02*
X13120000Y-13667500D01*
X13280000Y-13667500D02*
X13280000Y-13347500D01*
X13120000Y-13667500D02*
X13280000Y-13667500D01*
%TO.C,R16*%
X15877500Y-13303750D02*
X16037500Y-13303750D01*
X16037500Y-13303750D02*
X16037500Y-12983750D01*
X15877500Y-12983750D02*
X15877500Y-13303750D01*
X16037500Y-12983750D02*
X15877500Y-12983750D01*
%TO.C,R7*%
X13657500Y-10458750D02*
X13497500Y-10458750D01*
X13497500Y-10458750D02*
X13497500Y-10778750D01*
X13657500Y-10778750D02*
X13657500Y-10458750D01*
X13497500Y-10778750D02*
X13657500Y-10778750D01*
%TO.C,R18*%
X15673750Y-12577260D02*
X15673750Y-12737260D01*
X15673750Y-12737260D02*
X15993750Y-12737260D01*
X15993750Y-12577260D02*
X15673750Y-12577260D01*
X15993750Y-12737260D02*
X15993750Y-12577260D01*
D13*
%TO.C,U3*%
X14286000Y-9184500D02*
X14286000Y-8794500D01*
X14776500Y-9184500D02*
X14286000Y-9184500D01*
X14776500Y-9184500D02*
X14776500Y-8794500D01*
X14776500Y-8794500D02*
X14286000Y-8794500D01*
D14*
X14771750Y-9393500D02*
G75*
G03*
X14771750Y-9393500I-10000J0D01*
G01*
D12*
%TO.C,C4*%
X15015000Y-8932500D02*
X15175000Y-8932500D01*
X15175000Y-8932500D02*
X15175000Y-8612500D01*
X15015000Y-8612500D02*
X15015000Y-8932500D01*
X15175000Y-8612500D02*
X15015000Y-8612500D01*
%TO.C,R15*%
X13835000Y-14110000D02*
X13995000Y-14110000D01*
X13995000Y-14110000D02*
X13995000Y-13790000D01*
X13835000Y-13790000D02*
X13835000Y-14110000D01*
X13995000Y-13790000D02*
X13835000Y-13790000D01*
%TD*%
%TO.C,L1*%
X13862500Y-9232500D02*
G75*
G03*
X13862500Y-9232500I-80000J0D01*
G01*
X13782500Y-9660500D02*
X13782500Y-9660500D01*
X13782500Y-9660500D02*
G75*
G03*
X13782500Y-9820500I0J-80000D01*
G01*
X13782500Y-9820500D02*
X13782500Y-9820500D01*
X13782500Y-9820500D02*
G75*
G03*
X13782500Y-9660500I0J80000D01*
G01*
%TD*%
%TO.C,C7*%
X15186989Y-10320000D02*
X15186989Y-10480000D01*
X15346989Y-10480000D01*
X15346989Y-10320000D01*
X15186989Y-10320000D01*
X15546989Y-10400000D02*
G75*
G03*
X15546989Y-10400000I-80000J0D01*
G01*
%TD*%
%TO.C,Q3*%
X14646250Y-13081500D02*
X14646250Y-13186500D01*
X14796250Y-13186500D01*
X14796250Y-13081500D01*
X14646250Y-13081500D01*
X14698750Y-13059500D02*
X14743750Y-13059500D01*
X14743750Y-13059500D02*
G75*
G03*
X14743750Y-12954500I0J52500D01*
G01*
X14743750Y-12954500D02*
X14698750Y-12954500D01*
X14698750Y-12954500D02*
G75*
G03*
X14698750Y-13059500I0J-52500D01*
G01*
X14698750Y-12932500D02*
X14743750Y-12932500D01*
X14743750Y-12932500D02*
G75*
G03*
X14743750Y-12827500I0J52500D01*
G01*
X14743750Y-12827500D02*
X14698750Y-12827500D01*
X14698750Y-12827500D02*
G75*
G03*
X14698750Y-12932500I0J-52500D01*
G01*
%TD*%
%TO.C,J4*%
X14744800Y-15551210D02*
X14744800Y-15721210D01*
X14914800Y-15721210D01*
X14914800Y-15551210D01*
X14744800Y-15551210D01*
X15083800Y-15721210D02*
X15083800Y-15721210D01*
X15083800Y-15721210D02*
G75*
G03*
X15083800Y-15551210I0J85000D01*
G01*
X15083800Y-15551210D02*
X15083800Y-15551210D01*
X15083800Y-15551210D02*
G75*
G03*
X15083800Y-15721210I0J-85000D01*
G01*
X15337800Y-15721210D02*
X15337800Y-15721210D01*
X15337800Y-15721210D02*
G75*
G03*
X15337800Y-15551210I0J85000D01*
G01*
X15337800Y-15551210D02*
X15337800Y-15551210D01*
X15337800Y-15551210D02*
G75*
G03*
X15337800Y-15721210I0J-85000D01*
G01*
%TD*%
%TO.C,D4*%
X13727500Y-11671500D02*
X13727500Y-11831500D01*
X13887500Y-11831500D01*
X13887500Y-11671500D01*
X13727500Y-11671500D01*
X13125500Y-11751500D02*
X13125500Y-11751500D01*
X13125500Y-11751500D02*
G75*
G03*
X12965500Y-11751500I-80000J0D01*
G01*
X12965500Y-11751500D02*
X12965500Y-11751500D01*
X12965500Y-11751500D02*
G75*
G03*
X13125500Y-11751500I80000J0D01*
G01*
%TD*%
%TO.C,Q2*%
X15620000Y-13063760D02*
X15620000Y-13168760D01*
X15770000Y-13168760D01*
X15770000Y-13063760D01*
X15620000Y-13063760D01*
X15672500Y-13041760D02*
X15717500Y-13041760D01*
X15717500Y-13041760D02*
G75*
G03*
X15717500Y-12936760I0J52500D01*
G01*
X15717500Y-12936760D02*
X15672500Y-12936760D01*
X15672500Y-12936760D02*
G75*
G03*
X15672500Y-13041760I0J-52500D01*
G01*
X15672500Y-12914760D02*
X15717500Y-12914760D01*
X15717500Y-12914760D02*
G75*
G03*
X15717500Y-12809760I0J52500D01*
G01*
X15717500Y-12809760D02*
X15672500Y-12809760D01*
X15672500Y-12809760D02*
G75*
G03*
X15672500Y-12914760I0J-52500D01*
G01*
%TD*%
D15*
%TO.C,J3*%
D12*
X12854010Y-9349000D02*
X12846352Y-9347477D01*
X12839861Y-9343139D01*
X12835523Y-9336648D01*
X12834000Y-9328990D01*
X12834000Y-9139010D01*
X12835523Y-9131353D01*
X12839861Y-9124861D01*
X12846352Y-9120523D01*
X12854010Y-9119000D01*
X13043990Y-9119000D01*
X13051647Y-9120523D01*
X13058139Y-9124861D01*
X13062477Y-9131353D01*
X13064000Y-9139010D01*
X13064000Y-9328990D01*
X13062477Y-9336648D01*
X13058139Y-9343139D01*
X13051647Y-9347477D01*
X13043990Y-9349000D01*
X12854010Y-9349000D01*
X12820000Y-9488000D02*
G75*
G03*
X12820000Y-9488000I-125000J0D01*
G01*
X13328000Y-9488000D02*
G75*
G03*
X13328000Y-9488000I-125000J0D01*
G01*
X12820000Y-8980000D02*
G75*
G03*
X12820000Y-8980000I-125000J0D01*
G01*
X13328000Y-8980000D02*
G75*
G03*
X13328000Y-8980000I-125000J0D01*
G01*
%TD*%
%TO.C,J2*%
X15252300Y-15908710D02*
X15252300Y-16078710D01*
X15422300Y-16078710D01*
X15422300Y-15908710D01*
X15252300Y-15908710D01*
X15083300Y-15908710D02*
X15083300Y-15908710D01*
X15083300Y-15908710D02*
G75*
G03*
X15083300Y-16078710I0J-85000D01*
G01*
X15083300Y-16078710D02*
X15083300Y-16078710D01*
X15083300Y-16078710D02*
G75*
G03*
X15083300Y-15908710I0J85000D01*
G01*
X14829300Y-15908710D02*
X14829300Y-15908710D01*
X14829300Y-15908710D02*
G75*
G03*
X14829300Y-16078710I0J-85000D01*
G01*
X14829300Y-16078710D02*
X14829300Y-16078710D01*
X14829300Y-16078710D02*
G75*
G03*
X14829300Y-15908710I0J85000D01*
G01*
%TD*%
%TO.C,U4*%
X14625480Y-14317100D02*
X14625480Y-14477100D01*
X14785480Y-14477100D01*
X14785480Y-14317100D01*
X14625480Y-14317100D01*
X14959480Y-14477100D02*
X14959480Y-14477100D01*
X14959480Y-14477100D02*
G75*
G03*
X14959480Y-14317100I0J80000D01*
G01*
X14959480Y-14317100D02*
X14959480Y-14317100D01*
X14959480Y-14317100D02*
G75*
G03*
X14959480Y-14477100I0J-80000D01*
G01*
X15213480Y-14477100D02*
X15213480Y-14477100D01*
X15213480Y-14477100D02*
G75*
G03*
X15213480Y-14317100I0J80000D01*
G01*
X15213480Y-14317100D02*
X15213480Y-14317100D01*
X15213480Y-14317100D02*
G75*
G03*
X15213480Y-14477100I0J-80000D01*
G01*
X15467480Y-14477100D02*
X15467480Y-14477100D01*
X15467480Y-14477100D02*
G75*
G03*
X15467480Y-14317100I0J80000D01*
G01*
X15467480Y-14317100D02*
X15467480Y-14317100D01*
X15467480Y-14317100D02*
G75*
G03*
X15467480Y-14477100I0J-80000D01*
G01*
X15467480Y-13715100D02*
X15467480Y-13715100D01*
X15467480Y-13715100D02*
G75*
G03*
X15467480Y-13555100I0J80000D01*
G01*
X15467480Y-13555100D02*
X15467480Y-13555100D01*
X15467480Y-13555100D02*
G75*
G03*
X15467480Y-13715100I0J-80000D01*
G01*
X15213480Y-13715100D02*
X15213480Y-13715100D01*
X15213480Y-13715100D02*
G75*
G03*
X15213480Y-13555100I0J80000D01*
G01*
X15213480Y-13555100D02*
X15213480Y-13555100D01*
X15213480Y-13555100D02*
G75*
G03*
X15213480Y-13715100I0J-80000D01*
G01*
X14959480Y-13715100D02*
X14959480Y-13715100D01*
X14959480Y-13715100D02*
G75*
G03*
X14959480Y-13555100I0J80000D01*
G01*
X14959480Y-13555100D02*
X14959480Y-13555100D01*
X14959480Y-13555100D02*
G75*
G03*
X14959480Y-13715100I0J-80000D01*
G01*
X14705480Y-13715100D02*
X14705480Y-13715100D01*
X14705480Y-13715100D02*
G75*
G03*
X14705480Y-13555100I0J80000D01*
G01*
X14705480Y-13555100D02*
X14705480Y-13555100D01*
X14705480Y-13555100D02*
G75*
G03*
X14705480Y-13715100I0J-80000D01*
G01*
%TD*%
%TO.C,C21*%
X14945000Y-10995000D02*
G75*
G03*
X14945000Y-10995000I-80000J0D01*
G01*
X14945000Y-11245000D02*
G75*
G03*
X14945000Y-11245000I-80000J0D01*
G01*
%TD*%
%TO.C,J1*%
X16165920Y-8848180D02*
X16165920Y-9018180D01*
X16335920Y-9018180D01*
X16335920Y-8848180D01*
X16165920Y-8848180D01*
X16165920Y-9187180D02*
X16165920Y-9187180D01*
X16165920Y-9187180D02*
G75*
G03*
X16335920Y-9187180I85000J0D01*
G01*
X16335920Y-9187180D02*
X16335920Y-9187180D01*
X16335920Y-9187180D02*
G75*
G03*
X16165920Y-9187180I-85000J0D01*
G01*
X16165920Y-9441180D02*
X16165920Y-9441180D01*
X16165920Y-9441180D02*
G75*
G03*
X16335920Y-9441180I85000J0D01*
G01*
X16335920Y-9441180D02*
X16335920Y-9441180D01*
X16335920Y-9441180D02*
G75*
G03*
X16165920Y-9441180I-85000J0D01*
G01*
X16165920Y-9695180D02*
X16165920Y-9695180D01*
X16165920Y-9695180D02*
G75*
G03*
X16335920Y-9695180I85000J0D01*
G01*
X16335920Y-9695180D02*
X16335920Y-9695180D01*
X16335920Y-9695180D02*
G75*
G03*
X16165920Y-9695180I-85000J0D01*
G01*
X16165920Y-9949180D02*
X16165920Y-9949180D01*
X16165920Y-9949180D02*
G75*
G03*
X16335920Y-9949180I85000J0D01*
G01*
X16335920Y-9949180D02*
X16335920Y-9949180D01*
X16335920Y-9949180D02*
G75*
G03*
X16165920Y-9949180I-85000J0D01*
G01*
X16165920Y-10203180D02*
X16165920Y-10203180D01*
X16165920Y-10203180D02*
G75*
G03*
X16335920Y-10203180I85000J0D01*
G01*
X16335920Y-10203180D02*
X16335920Y-10203180D01*
X16335920Y-10203180D02*
G75*
G03*
X16165920Y-10203180I-85000J0D01*
G01*
X16165920Y-10457180D02*
X16165920Y-10457180D01*
X16165920Y-10457180D02*
G75*
G03*
X16335920Y-10457180I85000J0D01*
G01*
X16335920Y-10457180D02*
X16335920Y-10457180D01*
X16335920Y-10457180D02*
G75*
G03*
X16165920Y-10457180I-85000J0D01*
G01*
X16165920Y-10711180D02*
X16165920Y-10711180D01*
X16165920Y-10711180D02*
G75*
G03*
X16335920Y-10711180I85000J0D01*
G01*
X16335920Y-10711180D02*
X16335920Y-10711180D01*
X16335920Y-10711180D02*
G75*
G03*
X16165920Y-10711180I-85000J0D01*
G01*
X16165920Y-10965180D02*
X16165920Y-10965180D01*
X16165920Y-10965180D02*
G75*
G03*
X16335920Y-10965180I85000J0D01*
G01*
X16335920Y-10965180D02*
X16335920Y-10965180D01*
X16335920Y-10965180D02*
G75*
G03*
X16165920Y-10965180I-85000J0D01*
G01*
X16165920Y-11219180D02*
X16165920Y-11219180D01*
X16165920Y-11219180D02*
G75*
G03*
X16335920Y-11219180I85000J0D01*
G01*
X16335920Y-11219180D02*
X16335920Y-11219180D01*
X16335920Y-11219180D02*
G75*
G03*
X16165920Y-11219180I-85000J0D01*
G01*
X16165920Y-11473180D02*
X16165920Y-11473180D01*
X16165920Y-11473180D02*
G75*
G03*
X16335920Y-11473180I85000J0D01*
G01*
X16335920Y-11473180D02*
X16335920Y-11473180D01*
X16335920Y-11473180D02*
G75*
G03*
X16165920Y-11473180I-85000J0D01*
G01*
X16165920Y-11727180D02*
X16165920Y-11727180D01*
X16165920Y-11727180D02*
G75*
G03*
X16335920Y-11727180I85000J0D01*
G01*
X16335920Y-11727180D02*
X16335920Y-11727180D01*
X16335920Y-11727180D02*
G75*
G03*
X16165920Y-11727180I-85000J0D01*
G01*
%TD*%
%TO.C,C16*%
X13415000Y-15635000D02*
X13415000Y-15795000D01*
X13575000Y-15795000D01*
X13575000Y-15635000D01*
X13415000Y-15635000D01*
X13575000Y-15915000D02*
G75*
G03*
X13575000Y-15915000I-80000J0D01*
G01*
%TD*%
%TO.C,J10*%
X12905000Y-12437500D02*
G75*
G03*
X12905000Y-12437500I-85000J0D01*
G01*
X13605000Y-12437500D02*
G75*
G03*
X13605000Y-12437500I-85000J0D01*
G01*
%TD*%
%TO.C,C1*%
X15297500Y-8295000D02*
X15297500Y-8455000D01*
X15457500Y-8455000D01*
X15457500Y-8295000D01*
X15297500Y-8295000D01*
X15457500Y-8175000D02*
G75*
G03*
X15457500Y-8175000I-80000J0D01*
G01*
%TD*%
%TO.C,C20*%
X14152500Y-13020000D02*
X14152500Y-13140000D01*
X14272500Y-13140000D01*
X14272500Y-13020000D01*
X14152500Y-13020000D01*
X14272500Y-12880000D02*
G75*
G03*
X14272500Y-12880000I-60000J0D01*
G01*
%TD*%
%TO.C,C18*%
X15427500Y-11620000D02*
X15427500Y-11740000D01*
X15547500Y-11740000D01*
X15547500Y-11620000D01*
X15427500Y-11620000D01*
X15547500Y-11480000D02*
G75*
G03*
X15547500Y-11480000I-60000J0D01*
G01*
%TD*%
%TO.C,C11*%
X16052500Y-15740000D02*
X16052500Y-15900000D01*
X16212500Y-15900000D01*
X16212500Y-15740000D01*
X16052500Y-15740000D01*
X15832500Y-15820000D02*
G75*
G03*
X15832500Y-15820000I-80000J0D01*
G01*
%TD*%
%TO.C,C12*%
X13945000Y-15739700D02*
X13945000Y-15899700D01*
X14105000Y-15899700D01*
X14105000Y-15739700D01*
X13945000Y-15739700D01*
X14485000Y-15819700D02*
G75*
G03*
X14485000Y-15819700I-80000J0D01*
G01*
%TD*%
%TO.C,C19*%
X15122500Y-13004760D02*
X15122500Y-13124760D01*
X15242500Y-13124760D01*
X15242500Y-13004760D01*
X15122500Y-13004760D01*
X15242500Y-12864760D02*
G75*
G03*
X15242500Y-12864760I-60000J0D01*
G01*
%TD*%
%TO.C,C14*%
X13827500Y-13552120D02*
X13827500Y-13672120D01*
X13947500Y-13672120D01*
X13947500Y-13552120D01*
X13827500Y-13552120D01*
X13947500Y-13412120D02*
G75*
G03*
X13947500Y-13412120I-60000J0D01*
G01*
%TD*%
%TO.C,C8*%
X15210000Y-9647000D02*
X15210000Y-9807000D01*
X15370000Y-9807000D01*
X15370000Y-9647000D01*
X15210000Y-9647000D01*
X15370000Y-9527000D02*
G75*
G03*
X15370000Y-9527000I-80000J0D01*
G01*
%TD*%
%TO.C,J7*%
X14907000Y-12035000D02*
X14907000Y-12205000D01*
X15077000Y-12205000D01*
X15077000Y-12035000D01*
X14907000Y-12035000D01*
X15246000Y-12205000D02*
X15246000Y-12205000D01*
X15246000Y-12205000D02*
G75*
G03*
X15246000Y-12035000I0J85000D01*
G01*
X15246000Y-12035000D02*
X15246000Y-12035000D01*
X15246000Y-12035000D02*
G75*
G03*
X15246000Y-12205000I0J-85000D01*
G01*
X15500000Y-12205000D02*
X15500000Y-12205000D01*
X15500000Y-12205000D02*
G75*
G03*
X15500000Y-12035000I0J85000D01*
G01*
X15500000Y-12035000D02*
X15500000Y-12035000D01*
X15500000Y-12035000D02*
G75*
G03*
X15500000Y-12205000I0J-85000D01*
G01*
%TD*%
%TO.C,D3*%
X12964500Y-11419000D02*
X12964500Y-11579000D01*
X13124500Y-11579000D01*
X13124500Y-11419000D01*
X12964500Y-11419000D01*
X13726500Y-11499000D02*
X13726500Y-11499000D01*
X13726500Y-11499000D02*
G75*
G03*
X13886500Y-11499000I80000J0D01*
G01*
X13886500Y-11499000D02*
X13886500Y-11499000D01*
X13886500Y-11499000D02*
G75*
G03*
X13726500Y-11499000I-80000J0D01*
G01*
%TD*%
%TO.C,Q1*%
X14348080Y-13862240D02*
X14348080Y-14012240D01*
X14453080Y-14012240D01*
X14453080Y-13862240D01*
X14348080Y-13862240D01*
X14326080Y-13959740D02*
X14326080Y-13914740D01*
X14326080Y-13914740D02*
G75*
G03*
X14221080Y-13914740I-52500J0D01*
G01*
X14221080Y-13914740D02*
X14221080Y-13959740D01*
X14221080Y-13959740D02*
G75*
G03*
X14326080Y-13959740I52500J0D01*
G01*
X14199080Y-13959740D02*
X14199080Y-13914740D01*
X14199080Y-13914740D02*
G75*
G03*
X14094080Y-13914740I-52500J0D01*
G01*
X14094080Y-13914740D02*
X14094080Y-13959740D01*
X14094080Y-13959740D02*
G75*
G03*
X14199080Y-13959740I52500J0D01*
G01*
%TD*%
%TO.C,L2*%
X12947500Y-10280000D02*
G75*
G03*
X12947500Y-10280000I-100000J0D01*
G01*
X12947500Y-9880000D02*
G75*
G03*
X12947500Y-9880000I-100000J0D01*
G01*
%TD*%
%TO.C,C17*%
X15662500Y-11007500D02*
G75*
G03*
X15662500Y-11007500I-80000J0D01*
G01*
X15662500Y-11257500D02*
G75*
G03*
X15662500Y-11257500I-80000J0D01*
G01*
%TD*%
%TO.C,C5*%
X15207000Y-9099511D02*
X15207000Y-9259511D01*
X15367000Y-9259511D01*
X15367000Y-9099511D01*
X15207000Y-9099511D01*
X15367000Y-8979511D02*
G75*
G03*
X15367000Y-8979511I-80000J0D01*
G01*
%TD*%
%TO.C,Y1*%
X14300000Y-10975000D02*
G75*
G03*
X14300000Y-10975000I-50000J0D01*
G01*
X14490000Y-10975000D02*
G75*
G03*
X14490000Y-10975000I-50000J0D01*
G01*
%TD*%
%TO.C,D1*%
X13984500Y-8580000D02*
X13984500Y-8740000D01*
X14144500Y-8740000D01*
X14144500Y-8580000D01*
X13984500Y-8580000D01*
X13382500Y-8660000D02*
X13382500Y-8660000D01*
X13382500Y-8660000D02*
G75*
G03*
X13222500Y-8660000I-80000J0D01*
G01*
X13222500Y-8660000D02*
X13222500Y-8660000D01*
X13222500Y-8660000D02*
G75*
G03*
X13382500Y-8660000I80000J0D01*
G01*
%TD*%
%TO.C,J8*%
X14025000Y-11584000D02*
X14025000Y-11684000D01*
X14125000Y-11684000D01*
X14125000Y-11584000D01*
X14025000Y-11584000D01*
%TD*%
%TO.C,J9*%
X14567500Y-11575000D02*
X14567500Y-11675000D01*
X14667500Y-11675000D01*
X14667500Y-11575000D01*
X14567500Y-11575000D01*
%TD*%
%TO.C,D2*%
X13224000Y-8330000D02*
X13224000Y-8490000D01*
X13384000Y-8490000D01*
X13384000Y-8330000D01*
X13224000Y-8330000D01*
X13986000Y-8410000D02*
X13986000Y-8410000D01*
X13986000Y-8410000D02*
G75*
G03*
X14146000Y-8410000I80000J0D01*
G01*
X14146000Y-8410000D02*
X14146000Y-8410000D01*
X14146000Y-8410000D02*
G75*
G03*
X13986000Y-8410000I-80000J0D01*
G01*
%TD*%
D15*
%TO.C,J5*%
D12*
X12853510Y-11026000D02*
X12845852Y-11024477D01*
X12839361Y-11020139D01*
X12835023Y-11013648D01*
X12833500Y-11005990D01*
X12833500Y-10816010D01*
X12835023Y-10808353D01*
X12839361Y-10801861D01*
X12845852Y-10797523D01*
X12853510Y-10796000D01*
X13043490Y-10796000D01*
X13051147Y-10797523D01*
X13057639Y-10801861D01*
X13061977Y-10808353D01*
X13063500Y-10816010D01*
X13063500Y-11005990D01*
X13061977Y-11013648D01*
X13057639Y-11020139D01*
X13051147Y-11024477D01*
X13043490Y-11026000D01*
X12853510Y-11026000D01*
X12819500Y-11165000D02*
G75*
G03*
X12819500Y-11165000I-125000J0D01*
G01*
X13327500Y-11165000D02*
G75*
G03*
X13327500Y-11165000I-125000J0D01*
G01*
X12819500Y-10657000D02*
G75*
G03*
X12819500Y-10657000I-125000J0D01*
G01*
X13327500Y-10657000D02*
G75*
G03*
X13327500Y-10657000I-125000J0D01*
G01*
%TD*%
%TO.C,U5*%
X13390680Y-15308180D02*
X13390680Y-15475820D01*
X13558320Y-15475820D01*
X13558320Y-15308180D01*
X13390680Y-15308180D01*
X13558320Y-15138000D02*
G75*
G03*
X13558320Y-15138000I-83820J0D01*
G01*
X13558320Y-14884000D02*
G75*
G03*
X13558320Y-14884000I-83820J0D01*
G01*
X13558320Y-14630000D02*
G75*
G03*
X13558320Y-14630000I-83820J0D01*
G01*
X13558320Y-14376000D02*
G75*
G03*
X13558320Y-14376000I-83820J0D01*
G01*
X13558320Y-14122000D02*
G75*
G03*
X13558320Y-14122000I-83820J0D01*
G01*
X13558320Y-13868000D02*
G75*
G03*
X13558320Y-13868000I-83820J0D01*
G01*
X13558320Y-13614000D02*
G75*
G03*
X13558320Y-13614000I-83820J0D01*
G01*
X13558320Y-13360000D02*
G75*
G03*
X13558320Y-13360000I-83820J0D01*
G01*
X12796320Y-13360000D02*
G75*
G03*
X12796320Y-13360000I-83820J0D01*
G01*
X12796320Y-13614000D02*
G75*
G03*
X12796320Y-13614000I-83820J0D01*
G01*
X12796320Y-13868000D02*
G75*
G03*
X12796320Y-13868000I-83820J0D01*
G01*
X12796320Y-14122000D02*
G75*
G03*
X12796320Y-14122000I-83820J0D01*
G01*
X12796320Y-14376000D02*
G75*
G03*
X12796320Y-14376000I-83820J0D01*
G01*
X12796320Y-14630000D02*
G75*
G03*
X12796320Y-14630000I-83820J0D01*
G01*
X12796320Y-14884000D02*
G75*
G03*
X12796320Y-14884000I-83820J0D01*
G01*
X12796320Y-15138000D02*
G75*
G03*
X12796320Y-15138000I-83820J0D01*
G01*
X12796320Y-15392000D02*
G75*
G03*
X12796320Y-15392000I-83820J0D01*
G01*
%TD*%
%TO.C,C22*%
X14947500Y-11629760D02*
X14947500Y-11749760D01*
X15067500Y-11749760D01*
X15067500Y-11629760D01*
X14947500Y-11629760D01*
X15067500Y-11489760D02*
G75*
G03*
X15067500Y-11489760I-60000J0D01*
G01*
%TD*%
D15*
%TO.C,R13*%
D12*
X16841770Y-11029660D02*
X16839867Y-11039227D01*
X16834448Y-11047338D01*
X16826337Y-11052757D01*
X16816770Y-11054660D01*
X16754270Y-11054660D01*
X16744703Y-11052757D01*
X16736592Y-11047338D01*
X16731173Y-11039227D01*
X16729270Y-11029660D01*
X16729270Y-10904660D01*
X16731173Y-10895093D01*
X16736592Y-10886982D01*
X16744703Y-10881563D01*
X16754270Y-10879660D01*
X16816770Y-10879660D01*
X16826337Y-10881563D01*
X16834448Y-10886982D01*
X16839867Y-10895093D01*
X16841770Y-10904660D01*
X16841770Y-11029660D01*
D15*
D12*
X16549270Y-11029660D02*
X16547367Y-11039227D01*
X16541948Y-11047338D01*
X16533837Y-11052757D01*
X16524270Y-11054660D01*
X16461770Y-11054660D01*
X16452203Y-11052757D01*
X16444092Y-11047338D01*
X16438673Y-11039227D01*
X16436770Y-11029660D01*
X16436770Y-10904660D01*
X16438673Y-10895093D01*
X16444092Y-10886982D01*
X16452203Y-10881563D01*
X16461770Y-10879660D01*
X16524270Y-10879660D01*
X16533837Y-10881563D01*
X16541948Y-10886982D01*
X16547367Y-10895093D01*
X16549270Y-10904660D01*
X16549270Y-11029660D01*
%TD*%
D15*
%TO.C,C2*%
D12*
X13127000Y-15447500D02*
X13117433Y-15445597D01*
X13109322Y-15440178D01*
X13103903Y-15432067D01*
X13102000Y-15422500D01*
X13102000Y-15357500D01*
X13103903Y-15347933D01*
X13109322Y-15339822D01*
X13117433Y-15334403D01*
X13127000Y-15332500D01*
X13257000Y-15332500D01*
X13266567Y-15334403D01*
X13274678Y-15339822D01*
X13280097Y-15347933D01*
X13282000Y-15357500D01*
X13282000Y-15422500D01*
X13280097Y-15432067D01*
X13274678Y-15440178D01*
X13266567Y-15445597D01*
X13257000Y-15447500D01*
X13127000Y-15447500D01*
D15*
D12*
X13127000Y-15152500D02*
X13117433Y-15150597D01*
X13109322Y-15145178D01*
X13103903Y-15137067D01*
X13102000Y-15127500D01*
X13102000Y-15062500D01*
X13103903Y-15052933D01*
X13109322Y-15044822D01*
X13117433Y-15039403D01*
X13127000Y-15037500D01*
X13257000Y-15037500D01*
X13266567Y-15039403D01*
X13274678Y-15044822D01*
X13280097Y-15052933D01*
X13282000Y-15062500D01*
X13282000Y-15127500D01*
X13280097Y-15137067D01*
X13274678Y-15145178D01*
X13266567Y-15150597D01*
X13257000Y-15152500D01*
X13127000Y-15152500D01*
%TD*%
D15*
%TO.C,R6*%
D12*
X14777500Y-9547500D02*
X14775597Y-9557067D01*
X14770178Y-9565178D01*
X14762067Y-9570597D01*
X14752500Y-9572500D01*
X14690000Y-9572500D01*
X14680433Y-9570597D01*
X14672322Y-9565178D01*
X14666903Y-9557067D01*
X14665000Y-9547500D01*
X14665000Y-9422500D01*
X14666903Y-9412933D01*
X14672322Y-9404822D01*
X14680433Y-9399403D01*
X14690000Y-9397500D01*
X14752500Y-9397500D01*
X14762067Y-9399403D01*
X14770178Y-9404822D01*
X14775597Y-9412933D01*
X14777500Y-9422500D01*
X14777500Y-9547500D01*
D15*
D12*
X14485000Y-9547500D02*
X14483097Y-9557067D01*
X14477678Y-9565178D01*
X14469567Y-9570597D01*
X14460000Y-9572500D01*
X14397500Y-9572500D01*
X14387933Y-9570597D01*
X14379822Y-9565178D01*
X14374403Y-9557067D01*
X14372500Y-9547500D01*
X14372500Y-9422500D01*
X14374403Y-9412933D01*
X14379822Y-9404822D01*
X14387933Y-9399403D01*
X14397500Y-9397500D01*
X14460000Y-9397500D01*
X14469567Y-9399403D01*
X14477678Y-9404822D01*
X14483097Y-9412933D01*
X14485000Y-9422500D01*
X14485000Y-9547500D01*
%TD*%
D15*
%TO.C,C6*%
D12*
X14855000Y-10145000D02*
X14845433Y-10143097D01*
X14837322Y-10137678D01*
X14831903Y-10129567D01*
X14830000Y-10120000D01*
X14830000Y-10055000D01*
X14831903Y-10045433D01*
X14837322Y-10037322D01*
X14845433Y-10031903D01*
X14855000Y-10030000D01*
X14985000Y-10030000D01*
X14994567Y-10031903D01*
X15002678Y-10037322D01*
X15008097Y-10045433D01*
X15010000Y-10055000D01*
X15010000Y-10120000D01*
X15008097Y-10129567D01*
X15002678Y-10137678D01*
X14994567Y-10143097D01*
X14985000Y-10145000D01*
X14855000Y-10145000D01*
D15*
D12*
X14855000Y-9850000D02*
X14845433Y-9848097D01*
X14837322Y-9842678D01*
X14831903Y-9834567D01*
X14830000Y-9825000D01*
X14830000Y-9760000D01*
X14831903Y-9750433D01*
X14837322Y-9742322D01*
X14845433Y-9736903D01*
X14855000Y-9735000D01*
X14985000Y-9735000D01*
X14994567Y-9736903D01*
X15002678Y-9742322D01*
X15008097Y-9750433D01*
X15010000Y-9760000D01*
X15010000Y-9825000D01*
X15008097Y-9834567D01*
X15002678Y-9842678D01*
X14994567Y-9848097D01*
X14985000Y-9850000D01*
X14855000Y-9850000D01*
%TD*%
D15*
%TO.C,R19*%
D12*
X15286250Y-11314760D02*
X15276683Y-11312857D01*
X15268572Y-11307438D01*
X15263153Y-11299327D01*
X15261250Y-11289760D01*
X15261250Y-11227260D01*
X15263153Y-11217693D01*
X15268572Y-11209582D01*
X15276683Y-11204163D01*
X15286250Y-11202260D01*
X15411250Y-11202260D01*
X15420817Y-11204163D01*
X15428928Y-11209582D01*
X15434347Y-11217693D01*
X15436250Y-11227260D01*
X15436250Y-11289760D01*
X15434347Y-11299327D01*
X15428928Y-11307438D01*
X15420817Y-11312857D01*
X15411250Y-11314760D01*
X15286250Y-11314760D01*
D15*
D12*
X15286250Y-11022260D02*
X15276683Y-11020357D01*
X15268572Y-11014938D01*
X15263153Y-11006827D01*
X15261250Y-10997260D01*
X15261250Y-10934760D01*
X15263153Y-10925193D01*
X15268572Y-10917082D01*
X15276683Y-10911663D01*
X15286250Y-10909760D01*
X15411250Y-10909760D01*
X15420817Y-10911663D01*
X15428928Y-10917082D01*
X15434347Y-10925193D01*
X15436250Y-10934760D01*
X15436250Y-10997260D01*
X15434347Y-11006827D01*
X15428928Y-11014938D01*
X15420817Y-11020357D01*
X15411250Y-11022260D01*
X15286250Y-11022260D01*
%TD*%
D15*
%TO.C,R4*%
D12*
X15744460Y-10350130D02*
X15754027Y-10352033D01*
X15762138Y-10357452D01*
X15767557Y-10365563D01*
X15769460Y-10375130D01*
X15769460Y-10437630D01*
X15767557Y-10447197D01*
X15762138Y-10455308D01*
X15754027Y-10460727D01*
X15744460Y-10462630D01*
X15619460Y-10462630D01*
X15609893Y-10460727D01*
X15601782Y-10455308D01*
X15596363Y-10447197D01*
X15594460Y-10437630D01*
X15594460Y-10375130D01*
X15596363Y-10365563D01*
X15601782Y-10357452D01*
X15609893Y-10352033D01*
X15619460Y-10350130D01*
X15744460Y-10350130D01*
D15*
D12*
X15744460Y-10642630D02*
X15754027Y-10644533D01*
X15762138Y-10649952D01*
X15767557Y-10658063D01*
X15769460Y-10667630D01*
X15769460Y-10730130D01*
X15767557Y-10739697D01*
X15762138Y-10747808D01*
X15754027Y-10753227D01*
X15744460Y-10755130D01*
X15619460Y-10755130D01*
X15609893Y-10753227D01*
X15601782Y-10747808D01*
X15596363Y-10739697D01*
X15594460Y-10730130D01*
X15594460Y-10667630D01*
X15596363Y-10658063D01*
X15601782Y-10649952D01*
X15609893Y-10644533D01*
X15619460Y-10642630D01*
X15744460Y-10642630D01*
%TD*%
D15*
%TO.C,C9*%
D12*
X15129000Y-9051500D02*
X15138567Y-9053403D01*
X15146678Y-9058822D01*
X15152097Y-9066933D01*
X15154000Y-9076500D01*
X15154000Y-9141500D01*
X15152097Y-9151067D01*
X15146678Y-9159178D01*
X15138567Y-9164597D01*
X15129000Y-9166500D01*
X14999000Y-9166500D01*
X14989433Y-9164597D01*
X14981322Y-9159178D01*
X14975903Y-9151067D01*
X14974000Y-9141500D01*
X14974000Y-9076500D01*
X14975903Y-9066933D01*
X14981322Y-9058822D01*
X14989433Y-9053403D01*
X14999000Y-9051500D01*
X15129000Y-9051500D01*
D15*
D12*
X15129000Y-9346500D02*
X15138567Y-9348403D01*
X15146678Y-9353822D01*
X15152097Y-9361933D01*
X15154000Y-9371500D01*
X15154000Y-9436500D01*
X15152097Y-9446067D01*
X15146678Y-9454178D01*
X15138567Y-9459597D01*
X15129000Y-9461500D01*
X14999000Y-9461500D01*
X14989433Y-9459597D01*
X14981322Y-9454178D01*
X14975903Y-9446067D01*
X14974000Y-9436500D01*
X14974000Y-9371500D01*
X14975903Y-9361933D01*
X14981322Y-9353822D01*
X14989433Y-9348403D01*
X14999000Y-9346500D01*
X15129000Y-9346500D01*
%TD*%
D15*
%TO.C,R17*%
D12*
X13872500Y-10413750D02*
X13882067Y-10415653D01*
X13890178Y-10421072D01*
X13895597Y-10429183D01*
X13897500Y-10438750D01*
X13897500Y-10501250D01*
X13895597Y-10510817D01*
X13890178Y-10518928D01*
X13882067Y-10524347D01*
X13872500Y-10526250D01*
X13747500Y-10526250D01*
X13737933Y-10524347D01*
X13729822Y-10518928D01*
X13724403Y-10510817D01*
X13722500Y-10501250D01*
X13722500Y-10438750D01*
X13724403Y-10429183D01*
X13729822Y-10421072D01*
X13737933Y-10415653D01*
X13747500Y-10413750D01*
X13872500Y-10413750D01*
D15*
D12*
X13872500Y-10706250D02*
X13882067Y-10708153D01*
X13890178Y-10713572D01*
X13895597Y-10721683D01*
X13897500Y-10731250D01*
X13897500Y-10793750D01*
X13895597Y-10803317D01*
X13890178Y-10811428D01*
X13882067Y-10816847D01*
X13872500Y-10818750D01*
X13747500Y-10818750D01*
X13737933Y-10816847D01*
X13729822Y-10811428D01*
X13724403Y-10803317D01*
X13722500Y-10793750D01*
X13722500Y-10731250D01*
X13724403Y-10721683D01*
X13729822Y-10713572D01*
X13737933Y-10708153D01*
X13747500Y-10706250D01*
X13872500Y-10706250D01*
%TD*%
D15*
%TO.C,C10*%
D12*
X13020195Y-9861820D02*
X13022098Y-9852253D01*
X13027517Y-9844142D01*
X13035628Y-9838723D01*
X13045195Y-9836820D01*
X13110195Y-9836820D01*
X13119762Y-9838723D01*
X13127873Y-9844142D01*
X13133292Y-9852253D01*
X13135195Y-9861820D01*
X13135195Y-9991820D01*
X13133292Y-10001387D01*
X13127873Y-10009498D01*
X13119762Y-10014917D01*
X13110195Y-10016820D01*
X13045195Y-10016820D01*
X13035628Y-10014917D01*
X13027517Y-10009498D01*
X13022098Y-10001387D01*
X13020195Y-9991820D01*
X13020195Y-9861820D01*
D15*
D12*
X13315195Y-9861820D02*
X13317098Y-9852253D01*
X13322517Y-9844142D01*
X13330628Y-9838723D01*
X13340195Y-9836820D01*
X13405195Y-9836820D01*
X13414762Y-9838723D01*
X13422873Y-9844142D01*
X13428292Y-9852253D01*
X13430195Y-9861820D01*
X13430195Y-9991820D01*
X13428292Y-10001387D01*
X13422873Y-10009498D01*
X13414762Y-10014917D01*
X13405195Y-10016820D01*
X13340195Y-10016820D01*
X13330628Y-10014917D01*
X13322517Y-10009498D01*
X13317098Y-10001387D01*
X13315195Y-9991820D01*
X13315195Y-9861820D01*
%TD*%
D15*
%TO.C,R11*%
D12*
X16841770Y-10262160D02*
X16839867Y-10271727D01*
X16834448Y-10279838D01*
X16826337Y-10285257D01*
X16816770Y-10287160D01*
X16754270Y-10287160D01*
X16744703Y-10285257D01*
X16736592Y-10279838D01*
X16731173Y-10271727D01*
X16729270Y-10262160D01*
X16729270Y-10137160D01*
X16731173Y-10127593D01*
X16736592Y-10119482D01*
X16744703Y-10114063D01*
X16754270Y-10112160D01*
X16816770Y-10112160D01*
X16826337Y-10114063D01*
X16834448Y-10119482D01*
X16839867Y-10127593D01*
X16841770Y-10137160D01*
X16841770Y-10262160D01*
D15*
D12*
X16549270Y-10262160D02*
X16547367Y-10271727D01*
X16541948Y-10279838D01*
X16533837Y-10285257D01*
X16524270Y-10287160D01*
X16461770Y-10287160D01*
X16452203Y-10285257D01*
X16444092Y-10279838D01*
X16438673Y-10271727D01*
X16436770Y-10262160D01*
X16436770Y-10137160D01*
X16438673Y-10127593D01*
X16444092Y-10119482D01*
X16452203Y-10114063D01*
X16461770Y-10112160D01*
X16524270Y-10112160D01*
X16533837Y-10114063D01*
X16541948Y-10119482D01*
X16547367Y-10127593D01*
X16549270Y-10137160D01*
X16549270Y-10262160D01*
%TD*%
D15*
%TO.C,R21*%
D12*
X15053750Y-11314760D02*
X15044183Y-11312857D01*
X15036072Y-11307438D01*
X15030653Y-11299327D01*
X15028750Y-11289760D01*
X15028750Y-11227260D01*
X15030653Y-11217693D01*
X15036072Y-11209582D01*
X15044183Y-11204163D01*
X15053750Y-11202260D01*
X15178750Y-11202260D01*
X15188317Y-11204163D01*
X15196428Y-11209582D01*
X15201847Y-11217693D01*
X15203750Y-11227260D01*
X15203750Y-11289760D01*
X15201847Y-11299327D01*
X15196428Y-11307438D01*
X15188317Y-11312857D01*
X15178750Y-11314760D01*
X15053750Y-11314760D01*
D15*
D12*
X15053750Y-11022260D02*
X15044183Y-11020357D01*
X15036072Y-11014938D01*
X15030653Y-11006827D01*
X15028750Y-10997260D01*
X15028750Y-10934760D01*
X15030653Y-10925193D01*
X15036072Y-10917082D01*
X15044183Y-10911663D01*
X15053750Y-10909760D01*
X15178750Y-10909760D01*
X15188317Y-10911663D01*
X15196428Y-10917082D01*
X15201847Y-10925193D01*
X15203750Y-10934760D01*
X15203750Y-10997260D01*
X15201847Y-11006827D01*
X15196428Y-11014938D01*
X15188317Y-11020357D01*
X15178750Y-11022260D01*
X15053750Y-11022260D01*
%TD*%
D15*
%TO.C,R8*%
D12*
X14498750Y-14362500D02*
X14496847Y-14372067D01*
X14491428Y-14380178D01*
X14483317Y-14385597D01*
X14473750Y-14387500D01*
X14411250Y-14387500D01*
X14401683Y-14385597D01*
X14393572Y-14380178D01*
X14388153Y-14372067D01*
X14386250Y-14362500D01*
X14386250Y-14237500D01*
X14388153Y-14227933D01*
X14393572Y-14219822D01*
X14401683Y-14214403D01*
X14411250Y-14212500D01*
X14473750Y-14212500D01*
X14483317Y-14214403D01*
X14491428Y-14219822D01*
X14496847Y-14227933D01*
X14498750Y-14237500D01*
X14498750Y-14362500D01*
D15*
D12*
X14206250Y-14362500D02*
X14204347Y-14372067D01*
X14198928Y-14380178D01*
X14190817Y-14385597D01*
X14181250Y-14387500D01*
X14118750Y-14387500D01*
X14109183Y-14385597D01*
X14101072Y-14380178D01*
X14095653Y-14372067D01*
X14093750Y-14362500D01*
X14093750Y-14237500D01*
X14095653Y-14227933D01*
X14101072Y-14219822D01*
X14109183Y-14214403D01*
X14118750Y-14212500D01*
X14181250Y-14212500D01*
X14190817Y-14214403D01*
X14198928Y-14219822D01*
X14204347Y-14227933D01*
X14206250Y-14237500D01*
X14206250Y-14362500D01*
%TD*%
D15*
%TO.C,R1*%
D12*
X15633750Y-9632500D02*
X15635653Y-9622933D01*
X15641072Y-9614822D01*
X15649183Y-9609403D01*
X15658750Y-9607500D01*
X15721250Y-9607500D01*
X15730817Y-9609403D01*
X15738928Y-9614822D01*
X15744347Y-9622933D01*
X15746250Y-9632500D01*
X15746250Y-9757500D01*
X15744347Y-9767067D01*
X15738928Y-9775178D01*
X15730817Y-9780597D01*
X15721250Y-9782500D01*
X15658750Y-9782500D01*
X15649183Y-9780597D01*
X15641072Y-9775178D01*
X15635653Y-9767067D01*
X15633750Y-9757500D01*
X15633750Y-9632500D01*
D15*
D12*
X15926250Y-9632500D02*
X15928153Y-9622933D01*
X15933572Y-9614822D01*
X15941683Y-9609403D01*
X15951250Y-9607500D01*
X16013750Y-9607500D01*
X16023317Y-9609403D01*
X16031428Y-9614822D01*
X16036847Y-9622933D01*
X16038750Y-9632500D01*
X16038750Y-9757500D01*
X16036847Y-9767067D01*
X16031428Y-9775178D01*
X16023317Y-9780597D01*
X16013750Y-9782500D01*
X15951250Y-9782500D01*
X15941683Y-9780597D01*
X15933572Y-9775178D01*
X15928153Y-9767067D01*
X15926250Y-9757500D01*
X15926250Y-9632500D01*
%TD*%
D15*
%TO.C,R20*%
D12*
X14872750Y-13356250D02*
X14863183Y-13354347D01*
X14855072Y-13348928D01*
X14849653Y-13340817D01*
X14847750Y-13331250D01*
X14847750Y-13268750D01*
X14849653Y-13259183D01*
X14855072Y-13251072D01*
X14863183Y-13245653D01*
X14872750Y-13243750D01*
X14997750Y-13243750D01*
X15007317Y-13245653D01*
X15015428Y-13251072D01*
X15020847Y-13259183D01*
X15022750Y-13268750D01*
X15022750Y-13331250D01*
X15020847Y-13340817D01*
X15015428Y-13348928D01*
X15007317Y-13354347D01*
X14997750Y-13356250D01*
X14872750Y-13356250D01*
D15*
D12*
X14872750Y-13063750D02*
X14863183Y-13061847D01*
X14855072Y-13056428D01*
X14849653Y-13048317D01*
X14847750Y-13038750D01*
X14847750Y-12976250D01*
X14849653Y-12966683D01*
X14855072Y-12958572D01*
X14863183Y-12953153D01*
X14872750Y-12951250D01*
X14997750Y-12951250D01*
X15007317Y-12953153D01*
X15015428Y-12958572D01*
X15020847Y-12966683D01*
X15022750Y-12976250D01*
X15022750Y-13038750D01*
X15020847Y-13048317D01*
X15015428Y-13056428D01*
X15007317Y-13061847D01*
X14997750Y-13063750D01*
X14872750Y-13063750D01*
%TD*%
D15*
%TO.C,C24*%
D12*
X14297500Y-11066500D02*
X14307067Y-11068403D01*
X14315178Y-11073822D01*
X14320597Y-11081933D01*
X14322500Y-11091500D01*
X14322500Y-11156500D01*
X14320597Y-11166067D01*
X14315178Y-11174178D01*
X14307067Y-11179597D01*
X14297500Y-11181500D01*
X14167500Y-11181500D01*
X14157933Y-11179597D01*
X14149822Y-11174178D01*
X14144403Y-11166067D01*
X14142500Y-11156500D01*
X14142500Y-11091500D01*
X14144403Y-11081933D01*
X14149822Y-11073822D01*
X14157933Y-11068403D01*
X14167500Y-11066500D01*
X14297500Y-11066500D01*
D15*
D12*
X14297500Y-11361500D02*
X14307067Y-11363403D01*
X14315178Y-11368822D01*
X14320597Y-11376933D01*
X14322500Y-11386500D01*
X14322500Y-11451500D01*
X14320597Y-11461067D01*
X14315178Y-11469178D01*
X14307067Y-11474597D01*
X14297500Y-11476500D01*
X14167500Y-11476500D01*
X14157933Y-11474597D01*
X14149822Y-11469178D01*
X14144403Y-11461067D01*
X14142500Y-11451500D01*
X14142500Y-11386500D01*
X14144403Y-11376933D01*
X14149822Y-11368822D01*
X14157933Y-11363403D01*
X14167500Y-11361500D01*
X14297500Y-11361500D01*
%TD*%
D15*
%TO.C,C13*%
D12*
X13022500Y-10150000D02*
X13024403Y-10140433D01*
X13029822Y-10132322D01*
X13037933Y-10126903D01*
X13047500Y-10125000D01*
X13112500Y-10125000D01*
X13122067Y-10126903D01*
X13130178Y-10132322D01*
X13135597Y-10140433D01*
X13137500Y-10150000D01*
X13137500Y-10280000D01*
X13135597Y-10289567D01*
X13130178Y-10297678D01*
X13122067Y-10303097D01*
X13112500Y-10305000D01*
X13047500Y-10305000D01*
X13037933Y-10303097D01*
X13029822Y-10297678D01*
X13024403Y-10289567D01*
X13022500Y-10280000D01*
X13022500Y-10150000D01*
D15*
D12*
X13317500Y-10150000D02*
X13319403Y-10140433D01*
X13324822Y-10132322D01*
X13332933Y-10126903D01*
X13342500Y-10125000D01*
X13407500Y-10125000D01*
X13417067Y-10126903D01*
X13425178Y-10132322D01*
X13430597Y-10140433D01*
X13432500Y-10150000D01*
X13432500Y-10280000D01*
X13430597Y-10289567D01*
X13425178Y-10297678D01*
X13417067Y-10303097D01*
X13407500Y-10305000D01*
X13342500Y-10305000D01*
X13332933Y-10303097D01*
X13324822Y-10297678D01*
X13319403Y-10289567D01*
X13317500Y-10280000D01*
X13317500Y-10150000D01*
%TD*%
D15*
%TO.C,R3*%
D12*
X16030710Y-10265680D02*
X16028807Y-10275247D01*
X16023388Y-10283358D01*
X16015277Y-10288777D01*
X16005710Y-10290680D01*
X15943210Y-10290680D01*
X15933643Y-10288777D01*
X15925532Y-10283358D01*
X15920113Y-10275247D01*
X15918210Y-10265680D01*
X15918210Y-10140680D01*
X15920113Y-10131113D01*
X15925532Y-10123002D01*
X15933643Y-10117583D01*
X15943210Y-10115680D01*
X16005710Y-10115680D01*
X16015277Y-10117583D01*
X16023388Y-10123002D01*
X16028807Y-10131113D01*
X16030710Y-10140680D01*
X16030710Y-10265680D01*
D15*
D12*
X15738210Y-10265680D02*
X15736307Y-10275247D01*
X15730888Y-10283358D01*
X15722777Y-10288777D01*
X15713210Y-10290680D01*
X15650710Y-10290680D01*
X15641143Y-10288777D01*
X15633032Y-10283358D01*
X15627613Y-10275247D01*
X15625710Y-10265680D01*
X15625710Y-10140680D01*
X15627613Y-10131113D01*
X15633032Y-10123002D01*
X15641143Y-10117583D01*
X15650710Y-10115680D01*
X15713210Y-10115680D01*
X15722777Y-10117583D01*
X15730888Y-10123002D01*
X15736307Y-10131113D01*
X15738210Y-10140680D01*
X15738210Y-10265680D01*
%TD*%
D15*
%TO.C,R22*%
D12*
X14776250Y-12707500D02*
X14774347Y-12717067D01*
X14768928Y-12725178D01*
X14760817Y-12730597D01*
X14751250Y-12732500D01*
X14688750Y-12732500D01*
X14679183Y-12730597D01*
X14671072Y-12725178D01*
X14665653Y-12717067D01*
X14663750Y-12707500D01*
X14663750Y-12582500D01*
X14665653Y-12572933D01*
X14671072Y-12564822D01*
X14679183Y-12559403D01*
X14688750Y-12557500D01*
X14751250Y-12557500D01*
X14760817Y-12559403D01*
X14768928Y-12564822D01*
X14774347Y-12572933D01*
X14776250Y-12582500D01*
X14776250Y-12707500D01*
D15*
D12*
X14483750Y-12707500D02*
X14481847Y-12717067D01*
X14476428Y-12725178D01*
X14468317Y-12730597D01*
X14458750Y-12732500D01*
X14396250Y-12732500D01*
X14386683Y-12730597D01*
X14378572Y-12725178D01*
X14373153Y-12717067D01*
X14371250Y-12707500D01*
X14371250Y-12582500D01*
X14373153Y-12572933D01*
X14378572Y-12564822D01*
X14386683Y-12559403D01*
X14396250Y-12557500D01*
X14458750Y-12557500D01*
X14468317Y-12559403D01*
X14476428Y-12564822D01*
X14481847Y-12572933D01*
X14483750Y-12582500D01*
X14483750Y-12707500D01*
%TD*%
D15*
%TO.C,R5*%
D12*
X14776250Y-9772500D02*
X14774347Y-9782067D01*
X14768928Y-9790178D01*
X14760817Y-9795597D01*
X14751250Y-9797500D01*
X14688750Y-9797500D01*
X14679183Y-9795597D01*
X14671072Y-9790178D01*
X14665653Y-9782067D01*
X14663750Y-9772500D01*
X14663750Y-9647500D01*
X14665653Y-9637933D01*
X14671072Y-9629822D01*
X14679183Y-9624403D01*
X14688750Y-9622500D01*
X14751250Y-9622500D01*
X14760817Y-9624403D01*
X14768928Y-9629822D01*
X14774347Y-9637933D01*
X14776250Y-9647500D01*
X14776250Y-9772500D01*
D15*
D12*
X14483750Y-9772500D02*
X14481847Y-9782067D01*
X14476428Y-9790178D01*
X14468317Y-9795597D01*
X14458750Y-9797500D01*
X14396250Y-9797500D01*
X14386683Y-9795597D01*
X14378572Y-9790178D01*
X14373153Y-9782067D01*
X14371250Y-9772500D01*
X14371250Y-9647500D01*
X14373153Y-9637933D01*
X14378572Y-9629822D01*
X14386683Y-9624403D01*
X14396250Y-9622500D01*
X14458750Y-9622500D01*
X14468317Y-9624403D01*
X14476428Y-9629822D01*
X14481847Y-9637933D01*
X14483750Y-9647500D01*
X14483750Y-9772500D01*
%TD*%
D15*
%TO.C,R10*%
D12*
X14955000Y-8560000D02*
X14953097Y-8569567D01*
X14947678Y-8577678D01*
X14939567Y-8583097D01*
X14930000Y-8585000D01*
X14867500Y-8585000D01*
X14857933Y-8583097D01*
X14849822Y-8577678D01*
X14844403Y-8569567D01*
X14842500Y-8560000D01*
X14842500Y-8435000D01*
X14844403Y-8425433D01*
X14849822Y-8417322D01*
X14857933Y-8411903D01*
X14867500Y-8410000D01*
X14930000Y-8410000D01*
X14939567Y-8411903D01*
X14947678Y-8417322D01*
X14953097Y-8425433D01*
X14955000Y-8435000D01*
X14955000Y-8560000D01*
D15*
D12*
X14662500Y-8560000D02*
X14660597Y-8569567D01*
X14655178Y-8577678D01*
X14647067Y-8583097D01*
X14637500Y-8585000D01*
X14575000Y-8585000D01*
X14565433Y-8583097D01*
X14557322Y-8577678D01*
X14551903Y-8569567D01*
X14550000Y-8560000D01*
X14550000Y-8435000D01*
X14551903Y-8425433D01*
X14557322Y-8417322D01*
X14565433Y-8411903D01*
X14575000Y-8410000D01*
X14637500Y-8410000D01*
X14647067Y-8411903D01*
X14655178Y-8417322D01*
X14660597Y-8425433D01*
X14662500Y-8435000D01*
X14662500Y-8560000D01*
%TD*%
%TO.C,U6*%
X14027500Y-10638500D02*
X14027500Y-10678500D01*
X14147500Y-10678500D01*
X14147500Y-10638500D01*
X14027500Y-10638500D01*
X14027500Y-10575000D02*
X14027500Y-10615000D01*
X14147500Y-10615000D01*
X14147500Y-10575000D01*
X14027500Y-10575000D01*
X14027500Y-10511500D02*
X14027500Y-10551500D01*
X14147500Y-10551500D01*
X14147500Y-10511500D01*
X14027500Y-10511500D01*
X14027500Y-10448000D02*
X14027500Y-10488000D01*
X14147500Y-10488000D01*
X14147500Y-10448000D01*
X14027500Y-10448000D01*
X14027500Y-10384500D02*
X14027500Y-10424500D01*
X14147500Y-10424500D01*
X14147500Y-10384500D01*
X14027500Y-10384500D01*
X14027500Y-10321000D02*
X14027500Y-10361000D01*
X14147500Y-10361000D01*
X14147500Y-10321000D01*
X14027500Y-10321000D01*
X14027500Y-10257500D02*
X14027500Y-10297500D01*
X14147500Y-10297500D01*
X14147500Y-10257500D01*
X14027500Y-10257500D01*
X14027500Y-10194000D02*
X14027500Y-10234000D01*
X14147500Y-10234000D01*
X14147500Y-10194000D01*
X14027500Y-10194000D01*
X14027500Y-10130500D02*
X14027500Y-10170500D01*
X14147500Y-10170500D01*
X14147500Y-10130500D01*
X14027500Y-10130500D01*
X14027500Y-10067000D02*
X14027500Y-10107000D01*
X14147500Y-10107000D01*
X14147500Y-10067000D01*
X14027500Y-10067000D01*
X14027500Y-10003500D02*
X14027500Y-10043500D01*
X14147500Y-10043500D01*
X14147500Y-10003500D01*
X14027500Y-10003500D01*
X14027500Y-9940000D02*
X14027500Y-9980000D01*
X14147500Y-9980000D01*
X14147500Y-9940000D01*
X14027500Y-9940000D01*
X14547500Y-9940000D02*
X14547500Y-9980000D01*
X14667500Y-9980000D01*
X14667500Y-9940000D01*
X14547500Y-9940000D01*
X14547500Y-10003500D02*
X14547500Y-10043500D01*
X14667500Y-10043500D01*
X14667500Y-10003500D01*
X14547500Y-10003500D01*
X14547500Y-10067000D02*
X14547500Y-10107000D01*
X14667500Y-10107000D01*
X14667500Y-10067000D01*
X14547500Y-10067000D01*
X14547500Y-10130500D02*
X14547500Y-10170500D01*
X14667500Y-10170500D01*
X14667500Y-10130500D01*
X14547500Y-10130500D01*
X14547500Y-10194000D02*
X14547500Y-10234000D01*
X14667500Y-10234000D01*
X14667500Y-10194000D01*
X14547500Y-10194000D01*
X14547500Y-10257500D02*
X14547500Y-10297500D01*
X14667500Y-10297500D01*
X14667500Y-10257500D01*
X14547500Y-10257500D01*
X14547500Y-10321000D02*
X14547500Y-10361000D01*
X14667500Y-10361000D01*
X14667500Y-10321000D01*
X14547500Y-10321000D01*
X14547500Y-10384500D02*
X14547500Y-10424500D01*
X14667500Y-10424500D01*
X14667500Y-10384500D01*
X14547500Y-10384500D01*
X14547500Y-10448000D02*
X14547500Y-10488000D01*
X14667500Y-10488000D01*
X14667500Y-10448000D01*
X14547500Y-10448000D01*
X14547500Y-10511500D02*
X14547500Y-10551500D01*
X14667500Y-10551500D01*
X14667500Y-10511500D01*
X14547500Y-10511500D01*
X14547500Y-10575000D02*
X14547500Y-10615000D01*
X14667500Y-10615000D01*
X14667500Y-10575000D01*
X14547500Y-10575000D01*
X14547500Y-10638500D02*
X14547500Y-10678500D01*
X14667500Y-10678500D01*
X14667500Y-10638500D01*
X14547500Y-10638500D01*
%TD*%
D15*
%TO.C,R2*%
D12*
X16030310Y-10011680D02*
X16028407Y-10021247D01*
X16022988Y-10029358D01*
X16014877Y-10034777D01*
X16005310Y-10036680D01*
X15942810Y-10036680D01*
X15933243Y-10034777D01*
X15925132Y-10029358D01*
X15919713Y-10021247D01*
X15917810Y-10011680D01*
X15917810Y-9886680D01*
X15919713Y-9877113D01*
X15925132Y-9869002D01*
X15933243Y-9863583D01*
X15942810Y-9861680D01*
X16005310Y-9861680D01*
X16014877Y-9863583D01*
X16022988Y-9869002D01*
X16028407Y-9877113D01*
X16030310Y-9886680D01*
X16030310Y-10011680D01*
D15*
D12*
X15737810Y-10011680D02*
X15735907Y-10021247D01*
X15730488Y-10029358D01*
X15722377Y-10034777D01*
X15712810Y-10036680D01*
X15650310Y-10036680D01*
X15640743Y-10034777D01*
X15632632Y-10029358D01*
X15627213Y-10021247D01*
X15625310Y-10011680D01*
X15625310Y-9886680D01*
X15627213Y-9877113D01*
X15632632Y-9869002D01*
X15640743Y-9863583D01*
X15650310Y-9861680D01*
X15712810Y-9861680D01*
X15722377Y-9863583D01*
X15730488Y-9869002D01*
X15735907Y-9877113D01*
X15737810Y-9886680D01*
X15737810Y-10011680D01*
%TD*%
D15*
%TO.C,R9*%
D12*
X14953750Y-8332500D02*
X14951847Y-8342067D01*
X14946428Y-8350178D01*
X14938317Y-8355597D01*
X14928750Y-8357500D01*
X14866250Y-8357500D01*
X14856683Y-8355597D01*
X14848572Y-8350178D01*
X14843153Y-8342067D01*
X14841250Y-8332500D01*
X14841250Y-8207500D01*
X14843153Y-8197933D01*
X14848572Y-8189822D01*
X14856683Y-8184403D01*
X14866250Y-8182500D01*
X14928750Y-8182500D01*
X14938317Y-8184403D01*
X14946428Y-8189822D01*
X14951847Y-8197933D01*
X14953750Y-8207500D01*
X14953750Y-8332500D01*
D15*
D12*
X14661250Y-8332500D02*
X14659347Y-8342067D01*
X14653928Y-8350178D01*
X14645817Y-8355597D01*
X14636250Y-8357500D01*
X14573750Y-8357500D01*
X14564183Y-8355597D01*
X14556072Y-8350178D01*
X14550653Y-8342067D01*
X14548750Y-8332500D01*
X14548750Y-8207500D01*
X14550653Y-8197933D01*
X14556072Y-8189822D01*
X14564183Y-8184403D01*
X14573750Y-8182500D01*
X14636250Y-8182500D01*
X14645817Y-8184403D01*
X14653928Y-8189822D01*
X14659347Y-8197933D01*
X14661250Y-8207500D01*
X14661250Y-8332500D01*
%TD*%
D15*
%TO.C,R12*%
D12*
X16841770Y-10012160D02*
X16839867Y-10021727D01*
X16834448Y-10029838D01*
X16826337Y-10035257D01*
X16816770Y-10037160D01*
X16754270Y-10037160D01*
X16744703Y-10035257D01*
X16736592Y-10029838D01*
X16731173Y-10021727D01*
X16729270Y-10012160D01*
X16729270Y-9887160D01*
X16731173Y-9877593D01*
X16736592Y-9869482D01*
X16744703Y-9864063D01*
X16754270Y-9862160D01*
X16816770Y-9862160D01*
X16826337Y-9864063D01*
X16834448Y-9869482D01*
X16839867Y-9877593D01*
X16841770Y-9887160D01*
X16841770Y-10012160D01*
D15*
D12*
X16549270Y-10012160D02*
X16547367Y-10021727D01*
X16541948Y-10029838D01*
X16533837Y-10035257D01*
X16524270Y-10037160D01*
X16461770Y-10037160D01*
X16452203Y-10035257D01*
X16444092Y-10029838D01*
X16438673Y-10021727D01*
X16436770Y-10012160D01*
X16436770Y-9887160D01*
X16438673Y-9877593D01*
X16444092Y-9869482D01*
X16452203Y-9864063D01*
X16461770Y-9862160D01*
X16524270Y-9862160D01*
X16533837Y-9864063D01*
X16541948Y-9869482D01*
X16547367Y-9877593D01*
X16549270Y-9887160D01*
X16549270Y-10012160D01*
%TD*%
D15*
%TO.C,C15*%
D12*
X15315000Y-10690000D02*
X15313097Y-10699567D01*
X15307678Y-10707678D01*
X15299567Y-10713097D01*
X15290000Y-10715000D01*
X15225000Y-10715000D01*
X15215433Y-10713097D01*
X15207322Y-10707678D01*
X15201903Y-10699567D01*
X15200000Y-10690000D01*
X15200000Y-10560000D01*
X15201903Y-10550433D01*
X15207322Y-10542322D01*
X15215433Y-10536903D01*
X15225000Y-10535000D01*
X15290000Y-10535000D01*
X15299567Y-10536903D01*
X15307678Y-10542322D01*
X15313097Y-10550433D01*
X15315000Y-10560000D01*
X15315000Y-10690000D01*
D15*
D12*
X15020000Y-10690000D02*
X15018097Y-10699567D01*
X15012678Y-10707678D01*
X15004567Y-10713097D01*
X14995000Y-10715000D01*
X14930000Y-10715000D01*
X14920433Y-10713097D01*
X14912322Y-10707678D01*
X14906903Y-10699567D01*
X14905000Y-10690000D01*
X14905000Y-10560000D01*
X14906903Y-10550433D01*
X14912322Y-10542322D01*
X14920433Y-10536903D01*
X14930000Y-10535000D01*
X14995000Y-10535000D01*
X15004567Y-10536903D01*
X15012678Y-10542322D01*
X15018097Y-10550433D01*
X15020000Y-10560000D01*
X15020000Y-10690000D01*
%TD*%
D15*
%TO.C,C23*%
D12*
X14527500Y-11066500D02*
X14537067Y-11068403D01*
X14545178Y-11073822D01*
X14550597Y-11081933D01*
X14552500Y-11091500D01*
X14552500Y-11156500D01*
X14550597Y-11166067D01*
X14545178Y-11174178D01*
X14537067Y-11179597D01*
X14527500Y-11181500D01*
X14397500Y-11181500D01*
X14387933Y-11179597D01*
X14379822Y-11174178D01*
X14374403Y-11166067D01*
X14372500Y-11156500D01*
X14372500Y-11091500D01*
X14374403Y-11081933D01*
X14379822Y-11073822D01*
X14387933Y-11068403D01*
X14397500Y-11066500D01*
X14527500Y-11066500D01*
D15*
D12*
X14527500Y-11361500D02*
X14537067Y-11363403D01*
X14545178Y-11368822D01*
X14550597Y-11376933D01*
X14552500Y-11386500D01*
X14552500Y-11451500D01*
X14550597Y-11461067D01*
X14545178Y-11469178D01*
X14537067Y-11474597D01*
X14527500Y-11476500D01*
X14397500Y-11476500D01*
X14387933Y-11474597D01*
X14379822Y-11469178D01*
X14374403Y-11461067D01*
X14372500Y-11451500D01*
X14372500Y-11386500D01*
X14374403Y-11376933D01*
X14379822Y-11368822D01*
X14387933Y-11363403D01*
X14397500Y-11361500D01*
X14527500Y-11361500D01*
%TD*%
D15*
%TO.C,C3*%
D12*
X13265000Y-13302500D02*
X13274567Y-13304403D01*
X13282678Y-13309822D01*
X13288097Y-13317933D01*
X13290000Y-13327500D01*
X13290000Y-13392500D01*
X13288097Y-13402067D01*
X13282678Y-13410178D01*
X13274567Y-13415597D01*
X13265000Y-13417500D01*
X13135000Y-13417500D01*
X13125433Y-13415597D01*
X13117322Y-13410178D01*
X13111903Y-13402067D01*
X13110000Y-13392500D01*
X13110000Y-13327500D01*
X13111903Y-13317933D01*
X13117322Y-13309822D01*
X13125433Y-13304403D01*
X13135000Y-13302500D01*
X13265000Y-13302500D01*
D15*
D12*
X13265000Y-13597500D02*
X13274567Y-13599403D01*
X13282678Y-13604822D01*
X13288097Y-13612933D01*
X13290000Y-13622500D01*
X13290000Y-13687500D01*
X13288097Y-13697067D01*
X13282678Y-13705178D01*
X13274567Y-13710597D01*
X13265000Y-13712500D01*
X13135000Y-13712500D01*
X13125433Y-13710597D01*
X13117322Y-13705178D01*
X13111903Y-13697067D01*
X13110000Y-13687500D01*
X13110000Y-13622500D01*
X13111903Y-13612933D01*
X13117322Y-13604822D01*
X13125433Y-13599403D01*
X13135000Y-13597500D01*
X13265000Y-13597500D01*
%TD*%
D15*
%TO.C,R16*%
D12*
X15895000Y-13346250D02*
X15885433Y-13344347D01*
X15877322Y-13338928D01*
X15871903Y-13330817D01*
X15870000Y-13321250D01*
X15870000Y-13258750D01*
X15871903Y-13249183D01*
X15877322Y-13241072D01*
X15885433Y-13235653D01*
X15895000Y-13233750D01*
X16020000Y-13233750D01*
X16029567Y-13235653D01*
X16037678Y-13241072D01*
X16043097Y-13249183D01*
X16045000Y-13258750D01*
X16045000Y-13321250D01*
X16043097Y-13330817D01*
X16037678Y-13338928D01*
X16029567Y-13344347D01*
X16020000Y-13346250D01*
X15895000Y-13346250D01*
D15*
D12*
X15895000Y-13053750D02*
X15885433Y-13051847D01*
X15877322Y-13046428D01*
X15871903Y-13038317D01*
X15870000Y-13028750D01*
X15870000Y-12966250D01*
X15871903Y-12956683D01*
X15877322Y-12948572D01*
X15885433Y-12943153D01*
X15895000Y-12941250D01*
X16020000Y-12941250D01*
X16029567Y-12943153D01*
X16037678Y-12948572D01*
X16043097Y-12956683D01*
X16045000Y-12966250D01*
X16045000Y-13028750D01*
X16043097Y-13038317D01*
X16037678Y-13046428D01*
X16029567Y-13051847D01*
X16020000Y-13053750D01*
X15895000Y-13053750D01*
%TD*%
D15*
%TO.C,R7*%
D12*
X13640000Y-10416250D02*
X13649567Y-10418153D01*
X13657678Y-10423572D01*
X13663097Y-10431683D01*
X13665000Y-10441250D01*
X13665000Y-10503750D01*
X13663097Y-10513317D01*
X13657678Y-10521428D01*
X13649567Y-10526847D01*
X13640000Y-10528750D01*
X13515000Y-10528750D01*
X13505433Y-10526847D01*
X13497322Y-10521428D01*
X13491903Y-10513317D01*
X13490000Y-10503750D01*
X13490000Y-10441250D01*
X13491903Y-10431683D01*
X13497322Y-10423572D01*
X13505433Y-10418153D01*
X13515000Y-10416250D01*
X13640000Y-10416250D01*
D15*
D12*
X13640000Y-10708750D02*
X13649567Y-10710653D01*
X13657678Y-10716072D01*
X13663097Y-10724183D01*
X13665000Y-10733750D01*
X13665000Y-10796250D01*
X13663097Y-10805817D01*
X13657678Y-10813928D01*
X13649567Y-10819347D01*
X13640000Y-10821250D01*
X13515000Y-10821250D01*
X13505433Y-10819347D01*
X13497322Y-10813928D01*
X13491903Y-10805817D01*
X13490000Y-10796250D01*
X13490000Y-10733750D01*
X13491903Y-10724183D01*
X13497322Y-10716072D01*
X13505433Y-10710653D01*
X13515000Y-10708750D01*
X13640000Y-10708750D01*
%TD*%
D15*
%TO.C,R18*%
D12*
X15631250Y-12594760D02*
X15633153Y-12585193D01*
X15638572Y-12577082D01*
X15646683Y-12571663D01*
X15656250Y-12569760D01*
X15718750Y-12569760D01*
X15728317Y-12571663D01*
X15736428Y-12577082D01*
X15741847Y-12585193D01*
X15743750Y-12594760D01*
X15743750Y-12719760D01*
X15741847Y-12729327D01*
X15736428Y-12737438D01*
X15728317Y-12742857D01*
X15718750Y-12744760D01*
X15656250Y-12744760D01*
X15646683Y-12742857D01*
X15638572Y-12737438D01*
X15633153Y-12729327D01*
X15631250Y-12719760D01*
X15631250Y-12594760D01*
D15*
D12*
X15923750Y-12594760D02*
X15925653Y-12585193D01*
X15931072Y-12577082D01*
X15939183Y-12571663D01*
X15948750Y-12569760D01*
X16011250Y-12569760D01*
X16020817Y-12571663D01*
X16028928Y-12577082D01*
X16034347Y-12585193D01*
X16036250Y-12594760D01*
X16036250Y-12719760D01*
X16034347Y-12729327D01*
X16028928Y-12737438D01*
X16020817Y-12742857D01*
X16011250Y-12744760D01*
X15948750Y-12744760D01*
X15939183Y-12742857D01*
X15931072Y-12737438D01*
X15925653Y-12729327D01*
X15923750Y-12719760D01*
X15923750Y-12594760D01*
%TD*%
D15*
%TO.C,U3*%
D12*
X14695950Y-9335000D02*
X14694343Y-9334680D01*
X14692980Y-9333770D01*
X14692070Y-9332407D01*
X14691750Y-9330800D01*
X14691750Y-9142200D01*
X14692070Y-9140593D01*
X14692980Y-9139230D01*
X14694343Y-9138320D01*
X14695950Y-9138000D01*
X14747550Y-9138000D01*
X14749157Y-9138320D01*
X14750520Y-9139230D01*
X14751430Y-9140593D01*
X14751750Y-9142200D01*
X14751750Y-9330800D01*
X14751430Y-9332407D01*
X14750520Y-9333770D01*
X14749157Y-9334680D01*
X14747550Y-9335000D01*
X14695950Y-9335000D01*
D15*
D12*
X14568950Y-9335000D02*
X14567343Y-9334680D01*
X14565980Y-9333770D01*
X14565070Y-9332407D01*
X14564750Y-9330800D01*
X14564750Y-9142200D01*
X14565070Y-9140593D01*
X14565980Y-9139230D01*
X14567343Y-9138320D01*
X14568950Y-9138000D01*
X14620550Y-9138000D01*
X14622157Y-9138320D01*
X14623520Y-9139230D01*
X14624430Y-9140593D01*
X14624750Y-9142200D01*
X14624750Y-9330800D01*
X14624430Y-9332407D01*
X14623520Y-9333770D01*
X14622157Y-9334680D01*
X14620550Y-9335000D01*
X14568950Y-9335000D01*
D15*
D12*
X14441950Y-9335000D02*
X14440343Y-9334680D01*
X14438980Y-9333770D01*
X14438070Y-9332407D01*
X14437750Y-9330800D01*
X14437750Y-9142200D01*
X14438070Y-9140593D01*
X14438980Y-9139230D01*
X14440343Y-9138320D01*
X14441950Y-9138000D01*
X14493550Y-9138000D01*
X14495157Y-9138320D01*
X14496520Y-9139230D01*
X14497430Y-9140593D01*
X14497750Y-9142200D01*
X14497750Y-9330800D01*
X14497430Y-9332407D01*
X14496520Y-9333770D01*
X14495157Y-9334680D01*
X14493550Y-9335000D01*
X14441950Y-9335000D01*
D15*
D12*
X14314950Y-9335000D02*
X14313343Y-9334680D01*
X14311980Y-9333770D01*
X14311070Y-9332407D01*
X14310750Y-9330800D01*
X14310750Y-9142200D01*
X14311070Y-9140593D01*
X14311980Y-9139230D01*
X14313343Y-9138320D01*
X14314950Y-9138000D01*
X14366550Y-9138000D01*
X14368157Y-9138320D01*
X14369520Y-9139230D01*
X14370430Y-9140593D01*
X14370750Y-9142200D01*
X14370750Y-9330800D01*
X14370430Y-9332407D01*
X14369520Y-9333770D01*
X14368157Y-9334680D01*
X14366550Y-9335000D01*
X14314950Y-9335000D01*
D15*
D12*
X14314950Y-8841000D02*
X14313343Y-8840680D01*
X14311980Y-8839770D01*
X14311070Y-8838407D01*
X14310750Y-8836800D01*
X14310750Y-8648200D01*
X14311070Y-8646593D01*
X14311980Y-8645230D01*
X14313343Y-8644320D01*
X14314950Y-8644000D01*
X14366550Y-8644000D01*
X14368157Y-8644320D01*
X14369520Y-8645230D01*
X14370430Y-8646593D01*
X14370750Y-8648200D01*
X14370750Y-8836800D01*
X14370430Y-8838407D01*
X14369520Y-8839770D01*
X14368157Y-8840680D01*
X14366550Y-8841000D01*
X14314950Y-8841000D01*
D15*
D12*
X14441950Y-8841000D02*
X14440343Y-8840680D01*
X14438980Y-8839770D01*
X14438070Y-8838407D01*
X14437750Y-8836800D01*
X14437750Y-8648200D01*
X14438070Y-8646593D01*
X14438980Y-8645230D01*
X14440343Y-8644320D01*
X14441950Y-8644000D01*
X14493550Y-8644000D01*
X14495157Y-8644320D01*
X14496520Y-8645230D01*
X14497430Y-8646593D01*
X14497750Y-8648200D01*
X14497750Y-8836800D01*
X14497430Y-8838407D01*
X14496520Y-8839770D01*
X14495157Y-8840680D01*
X14493550Y-8841000D01*
X14441950Y-8841000D01*
D15*
D12*
X14568950Y-8841000D02*
X14567343Y-8840680D01*
X14565980Y-8839770D01*
X14565070Y-8838407D01*
X14564750Y-8836800D01*
X14564750Y-8648200D01*
X14565070Y-8646593D01*
X14565980Y-8645230D01*
X14567343Y-8644320D01*
X14568950Y-8644000D01*
X14620550Y-8644000D01*
X14622157Y-8644320D01*
X14623520Y-8645230D01*
X14624430Y-8646593D01*
X14624750Y-8648200D01*
X14624750Y-8836800D01*
X14624430Y-8838407D01*
X14623520Y-8839770D01*
X14622157Y-8840680D01*
X14620550Y-8841000D01*
X14568950Y-8841000D01*
D15*
D12*
X14695950Y-8841000D02*
X14694343Y-8840680D01*
X14692980Y-8839770D01*
X14692070Y-8838407D01*
X14691750Y-8836800D01*
X14691750Y-8648200D01*
X14692070Y-8646593D01*
X14692980Y-8645230D01*
X14694343Y-8644320D01*
X14695950Y-8644000D01*
X14747550Y-8644000D01*
X14749157Y-8644320D01*
X14750520Y-8645230D01*
X14751430Y-8646593D01*
X14751750Y-8648200D01*
X14751750Y-8836800D01*
X14751430Y-8838407D01*
X14750520Y-8839770D01*
X14749157Y-8840680D01*
X14747550Y-8841000D01*
X14695950Y-8841000D01*
%TD*%
D15*
%TO.C,C4*%
D12*
X15030000Y-8977500D02*
X15020433Y-8975597D01*
X15012322Y-8970178D01*
X15006903Y-8962067D01*
X15005000Y-8952500D01*
X15005000Y-8887500D01*
X15006903Y-8877933D01*
X15012322Y-8869822D01*
X15020433Y-8864403D01*
X15030000Y-8862500D01*
X15160000Y-8862500D01*
X15169567Y-8864403D01*
X15177678Y-8869822D01*
X15183097Y-8877933D01*
X15185000Y-8887500D01*
X15185000Y-8952500D01*
X15183097Y-8962067D01*
X15177678Y-8970178D01*
X15169567Y-8975597D01*
X15160000Y-8977500D01*
X15030000Y-8977500D01*
D15*
D12*
X15030000Y-8682500D02*
X15020433Y-8680597D01*
X15012322Y-8675178D01*
X15006903Y-8667067D01*
X15005000Y-8657500D01*
X15005000Y-8592500D01*
X15006903Y-8582933D01*
X15012322Y-8574822D01*
X15020433Y-8569403D01*
X15030000Y-8567500D01*
X15160000Y-8567500D01*
X15169567Y-8569403D01*
X15177678Y-8574822D01*
X15183097Y-8582933D01*
X15185000Y-8592500D01*
X15185000Y-8657500D01*
X15183097Y-8667067D01*
X15177678Y-8675178D01*
X15169567Y-8680597D01*
X15160000Y-8682500D01*
X15030000Y-8682500D01*
%TD*%
D15*
%TO.C,R15*%
D12*
X13852500Y-14152500D02*
X13842933Y-14150597D01*
X13834822Y-14145178D01*
X13829403Y-14137067D01*
X13827500Y-14127500D01*
X13827500Y-14065000D01*
X13829403Y-14055433D01*
X13834822Y-14047322D01*
X13842933Y-14041903D01*
X13852500Y-14040000D01*
X13977500Y-14040000D01*
X13987067Y-14041903D01*
X13995178Y-14047322D01*
X14000597Y-14055433D01*
X14002500Y-14065000D01*
X14002500Y-14127500D01*
X14000597Y-14137067D01*
X13995178Y-14145178D01*
X13987067Y-14150597D01*
X13977500Y-14152500D01*
X13852500Y-14152500D01*
D15*
D12*
X13852500Y-13860000D02*
X13842933Y-13858097D01*
X13834822Y-13852678D01*
X13829403Y-13844567D01*
X13827500Y-13835000D01*
X13827500Y-13772500D01*
X13829403Y-13762933D01*
X13834822Y-13754822D01*
X13842933Y-13749403D01*
X13852500Y-13747500D01*
X13977500Y-13747500D01*
X13987067Y-13749403D01*
X13995178Y-13754822D01*
X14000597Y-13762933D01*
X14002500Y-13772500D01*
X14002500Y-13835000D01*
X14000597Y-13844567D01*
X13995178Y-13852678D01*
X13987067Y-13858097D01*
X13977500Y-13860000D01*
X13852500Y-13860000D01*
%TD*%
D16*
X17104000Y-8143000D02*
G75*
G03*
X17104000Y-8143000I-150000J0D01*
G01*
X13102000Y-8142000D02*
G75*
G03*
X13102000Y-8142000I-150000J0D01*
G01*
X13101000Y-16038000D02*
G75*
G03*
X13101000Y-16038000I-150000J0D01*
G01*
X16965500Y-8793000D02*
X17237000Y-8793000D01*
X17237000Y-11913000D01*
X16965500Y-11913000D01*
X16965500Y-8793000D01*
X17101000Y-16037000D02*
G75*
G03*
X17101000Y-16037000I-150000J0D01*
G01*
X12496500Y-7836500D02*
X17404000Y-7836500D01*
X17404000Y-16369000D01*
X12496500Y-16369000D01*
X12496500Y-7836500D01*
D17*
%TO.C,J3*%
X12499000Y-8804000D02*
X12499000Y-9664000D01*
%TO.C,J5*%
X12498500Y-10481000D02*
X12498500Y-11341000D01*
%TD*%
M02*
