%TF.GenerationSoftware,KiCad,Pcbnew,7.0.1*%
%TF.CreationDate,2023-11-03T16:30:39+00:00*%
%TF.ProjectId,SI4735,53493437-3335-42e6-9b69-6361645f7063,rev?*%
%TF.SameCoordinates,Original*%
%TF.FileFunction,Paste,Bot*%
%TF.FilePolarity,Positive*%
%FSLAX45Y45*%
G04 Gerber Fmt 4.5, Leading zero omitted, Abs format (unit mm)*
G04 Created by KiCad (PCBNEW 7.0.1) date 2023-11-03 16:30:39*
%MOMM*%
%LPD*%
G01*
G04 APERTURE LIST*
G04 Aperture macros list*
%AMRoundRect*
0 Rectangle with rounded corners*
0 $1 Rounding radius*
0 $2 $3 $4 $5 $6 $7 $8 $9 X,Y pos of 4 corners*
0 Add a 4 corners polygon primitive as box body*
4,1,4,$2,$3,$4,$5,$6,$7,$8,$9,$2,$3,0*
0 Add four circle primitives for the rounded corners*
1,1,$1+$1,$2,$3*
1,1,$1+$1,$4,$5*
1,1,$1+$1,$6,$7*
1,1,$1+$1,$8,$9*
0 Add four rect primitives between the rounded corners*
20,1,$1+$1,$2,$3,$4,$5,0*
20,1,$1+$1,$4,$5,$6,$7,0*
20,1,$1+$1,$6,$7,$8,$9,0*
20,1,$1+$1,$8,$9,$2,$3,0*%
G04 Aperture macros list end*
%ADD10RoundRect,0.250000X0.312500X0.625000X-0.312500X0.625000X-0.312500X-0.625000X0.312500X-0.625000X0*%
%ADD11RoundRect,0.250000X0.650000X-0.325000X0.650000X0.325000X-0.650000X0.325000X-0.650000X-0.325000X0*%
%ADD12RoundRect,0.250000X0.625000X-0.312500X0.625000X0.312500X-0.625000X0.312500X-0.625000X-0.312500X0*%
%ADD13RoundRect,0.250000X-0.625000X0.312500X-0.625000X-0.312500X0.625000X-0.312500X0.625000X0.312500X0*%
%ADD14RoundRect,0.250000X-0.650000X0.325000X-0.650000X-0.325000X0.650000X-0.325000X0.650000X0.325000X0*%
%ADD15RoundRect,0.250000X-0.325000X-0.650000X0.325000X-0.650000X0.325000X0.650000X-0.325000X0.650000X0*%
%ADD16RoundRect,0.250000X-0.312500X-0.625000X0.312500X-0.625000X0.312500X0.625000X-0.312500X0.625000X0*%
%ADD17R,1.200000X0.400000*%
%ADD18RoundRect,0.250000X0.325000X0.650000X-0.325000X0.650000X-0.325000X-0.650000X0.325000X-0.650000X0*%
%ADD19RoundRect,0.042000X0.258000X-0.943000X0.258000X0.943000X-0.258000X0.943000X-0.258000X-0.943000X0*%
%TA.AperFunction,Profile*%
%ADD20C,0.050000*%
%TD*%
%TA.AperFunction,Profile*%
%ADD21C,0.100000*%
%TD*%
G04 APERTURE END LIST*
D10*
%TO.C,R13*%
X16785520Y-10967160D03*
X16493020Y-10967160D03*
%TD*%
D11*
%TO.C,C2*%
X13192000Y-15390000D03*
X13192000Y-15095000D03*
%TD*%
D10*
%TO.C,R6*%
X14721250Y-9485000D03*
X14428750Y-9485000D03*
%TD*%
D11*
%TO.C,C6*%
X14920000Y-10087500D03*
X14920000Y-9792500D03*
%TD*%
D12*
%TO.C,R19*%
X15348750Y-11258510D03*
X15348750Y-10966010D03*
%TD*%
D13*
%TO.C,R4*%
X15681960Y-10406380D03*
X15681960Y-10698880D03*
%TD*%
D14*
%TO.C,C9*%
X15064000Y-9109000D03*
X15064000Y-9404000D03*
%TD*%
D13*
%TO.C,R17*%
X13810000Y-10470000D03*
X13810000Y-10762500D03*
%TD*%
D15*
%TO.C,C10*%
X13077695Y-9926820D03*
X13372695Y-9926820D03*
%TD*%
D10*
%TO.C,R11*%
X16785520Y-10199660D03*
X16493020Y-10199660D03*
%TD*%
D12*
%TO.C,R21*%
X15116250Y-11258510D03*
X15116250Y-10966010D03*
%TD*%
D10*
%TO.C,R8*%
X14442500Y-14300000D03*
X14150000Y-14300000D03*
%TD*%
D16*
%TO.C,R1*%
X15690000Y-9695000D03*
X15982500Y-9695000D03*
%TD*%
D12*
%TO.C,R20*%
X14935250Y-13300000D03*
X14935250Y-13007500D03*
%TD*%
D14*
%TO.C,C24*%
X14232500Y-11124000D03*
X14232500Y-11419000D03*
%TD*%
D15*
%TO.C,C13*%
X13080000Y-10215000D03*
X13375000Y-10215000D03*
%TD*%
D10*
%TO.C,R3*%
X15974460Y-10203180D03*
X15681960Y-10203180D03*
%TD*%
%TO.C,R22*%
X14720000Y-12645000D03*
X14427500Y-12645000D03*
%TD*%
%TO.C,R5*%
X14720000Y-9710000D03*
X14427500Y-9710000D03*
%TD*%
%TO.C,R10*%
X14898750Y-8497500D03*
X14606250Y-8497500D03*
%TD*%
D17*
%TO.C,U6*%
X14087500Y-10658500D03*
X14087500Y-10595000D03*
X14087500Y-10531500D03*
X14087500Y-10468000D03*
X14087500Y-10404500D03*
X14087500Y-10341000D03*
X14087500Y-10277500D03*
X14087500Y-10214000D03*
X14087500Y-10150500D03*
X14087500Y-10087000D03*
X14087500Y-10023500D03*
X14087500Y-9960000D03*
X14607500Y-9960000D03*
X14607500Y-10023500D03*
X14607500Y-10087000D03*
X14607500Y-10150500D03*
X14607500Y-10214000D03*
X14607500Y-10277500D03*
X14607500Y-10341000D03*
X14607500Y-10404500D03*
X14607500Y-10468000D03*
X14607500Y-10531500D03*
X14607500Y-10595000D03*
X14607500Y-10658500D03*
%TD*%
D10*
%TO.C,R2*%
X15974060Y-9949180D03*
X15681560Y-9949180D03*
%TD*%
%TO.C,R9*%
X14897500Y-8270000D03*
X14605000Y-8270000D03*
%TD*%
%TO.C,R12*%
X16785520Y-9949660D03*
X16493020Y-9949660D03*
%TD*%
D18*
%TO.C,C15*%
X15257500Y-10625000D03*
X14962500Y-10625000D03*
%TD*%
D14*
%TO.C,C23*%
X14462500Y-11124000D03*
X14462500Y-11419000D03*
%TD*%
%TO.C,C3*%
X13200000Y-13360000D03*
X13200000Y-13655000D03*
%TD*%
D12*
%TO.C,R16*%
X15957500Y-13290000D03*
X15957500Y-12997500D03*
%TD*%
D13*
%TO.C,R7*%
X13577500Y-10472500D03*
X13577500Y-10765000D03*
%TD*%
D16*
%TO.C,R18*%
X15687500Y-12657260D03*
X15980000Y-12657260D03*
%TD*%
D19*
%TO.C,U3*%
X14721750Y-9236500D03*
X14594750Y-9236500D03*
X14467750Y-9236500D03*
X14340750Y-9236500D03*
X14340750Y-8742500D03*
X14467750Y-8742500D03*
X14594750Y-8742500D03*
X14721750Y-8742500D03*
%TD*%
D11*
%TO.C,C4*%
X15095000Y-8920000D03*
X15095000Y-8625000D03*
%TD*%
D12*
%TO.C,R15*%
X13915000Y-14096250D03*
X13915000Y-13803750D03*
%TD*%
D20*
X17104000Y-8143000D02*
G75*
G03*
X17104000Y-8143000I-150000J0D01*
G01*
X13102000Y-8142000D02*
G75*
G03*
X13102000Y-8142000I-150000J0D01*
G01*
X13101000Y-16038000D02*
G75*
G03*
X13101000Y-16038000I-150000J0D01*
G01*
X16965500Y-8793000D02*
X17237000Y-8793000D01*
X17237000Y-11913000D01*
X16965500Y-11913000D01*
X16965500Y-8793000D01*
X17101000Y-16037000D02*
G75*
G03*
X17101000Y-16037000I-150000J0D01*
G01*
X12496500Y-7836500D02*
X17404000Y-7836500D01*
X17404000Y-16369000D01*
X12496500Y-16369000D01*
X12496500Y-7836500D01*
D21*
%TO.C,J3*%
X12499000Y-8804000D02*
X12499000Y-9664000D01*
%TO.C,J5*%
X12498500Y-10481000D02*
X12498500Y-11341000D01*
%TD*%
M02*
