%TF.GenerationSoftware,KiCad,Pcbnew,7.0.1*%
%TF.CreationDate,2023-11-03T16:30:39+00:00*%
%TF.ProjectId,SI4735,53493437-3335-42e6-9b69-6361645f7063,rev?*%
%TF.SameCoordinates,Original*%
%TF.FileFunction,Legend,Bot*%
%TF.FilePolarity,Positive*%
%FSLAX45Y45*%
G04 Gerber Fmt 4.5, Leading zero omitted, Abs format (unit mm)*
G04 Created by KiCad (PCBNEW 7.0.1) date 2023-11-03 16:30:39*
%MOMM*%
%LPD*%
G01*
G04 APERTURE LIST*
%ADD10C,0.466971*%
%ADD11C,0.120000*%
%ADD12C,0.200000*%
%ADD13C,0.180000*%
%ADD14C,0.150000*%
%ADD15C,0.127000*%
%TA.AperFunction,Profile*%
%ADD16C,0.050000*%
%TD*%
%TA.AperFunction,Profile*%
%ADD17C,0.100000*%
%TD*%
G04 APERTURE END LIST*
D10*
X14900848Y-9292500D02*
G75*
G03*
X14900848Y-9292500I-23349J0D01*
G01*
D11*
X14807500Y-9227460D02*
X14942500Y-9227460D01*
X14942500Y-9357500D01*
X14807500Y-9357500D01*
X14807500Y-9227460D01*
D10*
X14055848Y-10857500D02*
G75*
G03*
X14055848Y-10857500I-23349J0D01*
G01*
D11*
X13962500Y-10795000D02*
X14097500Y-10795000D01*
X14097500Y-10922500D01*
X13962500Y-10922500D01*
X13962500Y-10795000D01*
D12*
X13980700Y-9880714D02*
X13984509Y-9892143D01*
X13984509Y-9892143D02*
X13984509Y-9911190D01*
X13984509Y-9911190D02*
X13980700Y-9918810D01*
X13980700Y-9918810D02*
X13976890Y-9922619D01*
X13976890Y-9922619D02*
X13969271Y-9926429D01*
X13969271Y-9926429D02*
X13961652Y-9926429D01*
X13961652Y-9926429D02*
X13954033Y-9922619D01*
X13954033Y-9922619D02*
X13950224Y-9918810D01*
X13950224Y-9918810D02*
X13946414Y-9911190D01*
X13946414Y-9911190D02*
X13942605Y-9895952D01*
X13942605Y-9895952D02*
X13938795Y-9888333D01*
X13938795Y-9888333D02*
X13934986Y-9884524D01*
X13934986Y-9884524D02*
X13927367Y-9880714D01*
X13927367Y-9880714D02*
X13919748Y-9880714D01*
X13919748Y-9880714D02*
X13912128Y-9884524D01*
X13912128Y-9884524D02*
X13908319Y-9888333D01*
X13908319Y-9888333D02*
X13904509Y-9895952D01*
X13904509Y-9895952D02*
X13904509Y-9915000D01*
X13904509Y-9915000D02*
X13908319Y-9926429D01*
X13984509Y-9960714D02*
X13904509Y-9960714D01*
X13931176Y-10033095D02*
X13984509Y-10033095D01*
X13900700Y-10014048D02*
X13957843Y-9995000D01*
X13957843Y-9995000D02*
X13957843Y-10044524D01*
X13904509Y-10067381D02*
X13904509Y-10120714D01*
X13904509Y-10120714D02*
X13984509Y-10086429D01*
X13904509Y-10143571D02*
X13904509Y-10193095D01*
X13904509Y-10193095D02*
X13934986Y-10166429D01*
X13934986Y-10166429D02*
X13934986Y-10177857D01*
X13934986Y-10177857D02*
X13938795Y-10185476D01*
X13938795Y-10185476D02*
X13942605Y-10189286D01*
X13942605Y-10189286D02*
X13950224Y-10193095D01*
X13950224Y-10193095D02*
X13969271Y-10193095D01*
X13969271Y-10193095D02*
X13976890Y-10189286D01*
X13976890Y-10189286D02*
X13980700Y-10185476D01*
X13980700Y-10185476D02*
X13984509Y-10177857D01*
X13984509Y-10177857D02*
X13984509Y-10155000D01*
X13984509Y-10155000D02*
X13980700Y-10147381D01*
X13980700Y-10147381D02*
X13976890Y-10143571D01*
X13904509Y-10265476D02*
X13904509Y-10227381D01*
X13904509Y-10227381D02*
X13942605Y-10223571D01*
X13942605Y-10223571D02*
X13938795Y-10227381D01*
X13938795Y-10227381D02*
X13934986Y-10235000D01*
X13934986Y-10235000D02*
X13934986Y-10254048D01*
X13934986Y-10254048D02*
X13938795Y-10261667D01*
X13938795Y-10261667D02*
X13942605Y-10265476D01*
X13942605Y-10265476D02*
X13950224Y-10269286D01*
X13950224Y-10269286D02*
X13969271Y-10269286D01*
X13969271Y-10269286D02*
X13976890Y-10265476D01*
X13976890Y-10265476D02*
X13980700Y-10261667D01*
X13980700Y-10261667D02*
X13984509Y-10254048D01*
X13984509Y-10254048D02*
X13984509Y-10235000D01*
X13984509Y-10235000D02*
X13980700Y-10227381D01*
X13980700Y-10227381D02*
X13976890Y-10223571D01*
D13*
X16904650Y-12013143D02*
X16908936Y-12026000D01*
X16908936Y-12026000D02*
X16908936Y-12047428D01*
X16908936Y-12047428D02*
X16904650Y-12056000D01*
X16904650Y-12056000D02*
X16900364Y-12060286D01*
X16900364Y-12060286D02*
X16891793Y-12064571D01*
X16891793Y-12064571D02*
X16883221Y-12064571D01*
X16883221Y-12064571D02*
X16874650Y-12060286D01*
X16874650Y-12060286D02*
X16870364Y-12056000D01*
X16870364Y-12056000D02*
X16866079Y-12047428D01*
X16866079Y-12047428D02*
X16861793Y-12030286D01*
X16861793Y-12030286D02*
X16857507Y-12021714D01*
X16857507Y-12021714D02*
X16853221Y-12017428D01*
X16853221Y-12017428D02*
X16844650Y-12013143D01*
X16844650Y-12013143D02*
X16836079Y-12013143D01*
X16836079Y-12013143D02*
X16827507Y-12017428D01*
X16827507Y-12017428D02*
X16823221Y-12021714D01*
X16823221Y-12021714D02*
X16818936Y-12030286D01*
X16818936Y-12030286D02*
X16818936Y-12051714D01*
X16818936Y-12051714D02*
X16823221Y-12064571D01*
X16908936Y-12103143D02*
X16848936Y-12103143D01*
X16818936Y-12103143D02*
X16823221Y-12098857D01*
X16823221Y-12098857D02*
X16827507Y-12103143D01*
X16827507Y-12103143D02*
X16823221Y-12107428D01*
X16823221Y-12107428D02*
X16818936Y-12103143D01*
X16818936Y-12103143D02*
X16827507Y-12103143D01*
X16848936Y-12184571D02*
X16908936Y-12184571D01*
X16814650Y-12163143D02*
X16878936Y-12141714D01*
X16878936Y-12141714D02*
X16878936Y-12197428D01*
X16818936Y-12223143D02*
X16818936Y-12283143D01*
X16818936Y-12283143D02*
X16908936Y-12244571D01*
X16818936Y-12308857D02*
X16818936Y-12364571D01*
X16818936Y-12364571D02*
X16853221Y-12334571D01*
X16853221Y-12334571D02*
X16853221Y-12347428D01*
X16853221Y-12347428D02*
X16857507Y-12356000D01*
X16857507Y-12356000D02*
X16861793Y-12360286D01*
X16861793Y-12360286D02*
X16870364Y-12364571D01*
X16870364Y-12364571D02*
X16891793Y-12364571D01*
X16891793Y-12364571D02*
X16900364Y-12360286D01*
X16900364Y-12360286D02*
X16904650Y-12356000D01*
X16904650Y-12356000D02*
X16908936Y-12347428D01*
X16908936Y-12347428D02*
X16908936Y-12321714D01*
X16908936Y-12321714D02*
X16904650Y-12313143D01*
X16904650Y-12313143D02*
X16900364Y-12308857D01*
X16818936Y-12446000D02*
X16818936Y-12403143D01*
X16818936Y-12403143D02*
X16861793Y-12398857D01*
X16861793Y-12398857D02*
X16857507Y-12403143D01*
X16857507Y-12403143D02*
X16853221Y-12411714D01*
X16853221Y-12411714D02*
X16853221Y-12433143D01*
X16853221Y-12433143D02*
X16857507Y-12441714D01*
X16857507Y-12441714D02*
X16861793Y-12446000D01*
X16861793Y-12446000D02*
X16870364Y-12450286D01*
X16870364Y-12450286D02*
X16891793Y-12450286D01*
X16891793Y-12450286D02*
X16900364Y-12446000D01*
X16900364Y-12446000D02*
X16904650Y-12441714D01*
X16904650Y-12441714D02*
X16908936Y-12433143D01*
X16908936Y-12433143D02*
X16908936Y-12411714D01*
X16908936Y-12411714D02*
X16904650Y-12403143D01*
X16904650Y-12403143D02*
X16900364Y-12398857D01*
X16874650Y-12488857D02*
X16874650Y-12557429D01*
X16908936Y-12600286D02*
X16818936Y-12600286D01*
X16853221Y-12600286D02*
X16848936Y-12608857D01*
X16848936Y-12608857D02*
X16848936Y-12626000D01*
X16848936Y-12626000D02*
X16853221Y-12634571D01*
X16853221Y-12634571D02*
X16857507Y-12638857D01*
X16857507Y-12638857D02*
X16866079Y-12643143D01*
X16866079Y-12643143D02*
X16891793Y-12643143D01*
X16891793Y-12643143D02*
X16900364Y-12638857D01*
X16900364Y-12638857D02*
X16904650Y-12634571D01*
X16904650Y-12634571D02*
X16908936Y-12626000D01*
X16908936Y-12626000D02*
X16908936Y-12608857D01*
X16908936Y-12608857D02*
X16904650Y-12600286D01*
X16908936Y-12720286D02*
X16861793Y-12720286D01*
X16861793Y-12720286D02*
X16853221Y-12716000D01*
X16853221Y-12716000D02*
X16848936Y-12707429D01*
X16848936Y-12707429D02*
X16848936Y-12690286D01*
X16848936Y-12690286D02*
X16853221Y-12681714D01*
X16904650Y-12720286D02*
X16908936Y-12711714D01*
X16908936Y-12711714D02*
X16908936Y-12690286D01*
X16908936Y-12690286D02*
X16904650Y-12681714D01*
X16904650Y-12681714D02*
X16896079Y-12677429D01*
X16896079Y-12677429D02*
X16887507Y-12677429D01*
X16887507Y-12677429D02*
X16878936Y-12681714D01*
X16878936Y-12681714D02*
X16874650Y-12690286D01*
X16874650Y-12690286D02*
X16874650Y-12711714D01*
X16874650Y-12711714D02*
X16870364Y-12720286D01*
X16904650Y-12758857D02*
X16908936Y-12767429D01*
X16908936Y-12767429D02*
X16908936Y-12784571D01*
X16908936Y-12784571D02*
X16904650Y-12793143D01*
X16904650Y-12793143D02*
X16896079Y-12797429D01*
X16896079Y-12797429D02*
X16891793Y-12797429D01*
X16891793Y-12797429D02*
X16883221Y-12793143D01*
X16883221Y-12793143D02*
X16878936Y-12784571D01*
X16878936Y-12784571D02*
X16878936Y-12771714D01*
X16878936Y-12771714D02*
X16874650Y-12763143D01*
X16874650Y-12763143D02*
X16866079Y-12758857D01*
X16866079Y-12758857D02*
X16861793Y-12758857D01*
X16861793Y-12758857D02*
X16853221Y-12763143D01*
X16853221Y-12763143D02*
X16848936Y-12771714D01*
X16848936Y-12771714D02*
X16848936Y-12784571D01*
X16848936Y-12784571D02*
X16853221Y-12793143D01*
X16904650Y-12870286D02*
X16908936Y-12861714D01*
X16908936Y-12861714D02*
X16908936Y-12844571D01*
X16908936Y-12844571D02*
X16904650Y-12836000D01*
X16904650Y-12836000D02*
X16896079Y-12831714D01*
X16896079Y-12831714D02*
X16861793Y-12831714D01*
X16861793Y-12831714D02*
X16853221Y-12836000D01*
X16853221Y-12836000D02*
X16848936Y-12844571D01*
X16848936Y-12844571D02*
X16848936Y-12861714D01*
X16848936Y-12861714D02*
X16853221Y-12870286D01*
X16853221Y-12870286D02*
X16861793Y-12874571D01*
X16861793Y-12874571D02*
X16870364Y-12874571D01*
X16870364Y-12874571D02*
X16878936Y-12831714D01*
X16908936Y-12951714D02*
X16818936Y-12951714D01*
X16904650Y-12951714D02*
X16908936Y-12943143D01*
X16908936Y-12943143D02*
X16908936Y-12926000D01*
X16908936Y-12926000D02*
X16904650Y-12917429D01*
X16904650Y-12917429D02*
X16900364Y-12913143D01*
X16900364Y-12913143D02*
X16891793Y-12908857D01*
X16891793Y-12908857D02*
X16866079Y-12908857D01*
X16866079Y-12908857D02*
X16857507Y-12913143D01*
X16857507Y-12913143D02*
X16853221Y-12917429D01*
X16853221Y-12917429D02*
X16848936Y-12926000D01*
X16848936Y-12926000D02*
X16848936Y-12943143D01*
X16848936Y-12943143D02*
X16853221Y-12951714D01*
X16908936Y-13063143D02*
X16848936Y-13063143D01*
X16866079Y-13063143D02*
X16857507Y-13067429D01*
X16857507Y-13067429D02*
X16853221Y-13071714D01*
X16853221Y-13071714D02*
X16848936Y-13080286D01*
X16848936Y-13080286D02*
X16848936Y-13088857D01*
X16908936Y-13157429D02*
X16861793Y-13157429D01*
X16861793Y-13157429D02*
X16853221Y-13153143D01*
X16853221Y-13153143D02*
X16848936Y-13144571D01*
X16848936Y-13144571D02*
X16848936Y-13127429D01*
X16848936Y-13127429D02*
X16853221Y-13118857D01*
X16904650Y-13157429D02*
X16908936Y-13148857D01*
X16908936Y-13148857D02*
X16908936Y-13127429D01*
X16908936Y-13127429D02*
X16904650Y-13118857D01*
X16904650Y-13118857D02*
X16896079Y-13114571D01*
X16896079Y-13114571D02*
X16887507Y-13114571D01*
X16887507Y-13114571D02*
X16878936Y-13118857D01*
X16878936Y-13118857D02*
X16874650Y-13127429D01*
X16874650Y-13127429D02*
X16874650Y-13148857D01*
X16874650Y-13148857D02*
X16870364Y-13157429D01*
X16908936Y-13238857D02*
X16818936Y-13238857D01*
X16904650Y-13238857D02*
X16908936Y-13230286D01*
X16908936Y-13230286D02*
X16908936Y-13213143D01*
X16908936Y-13213143D02*
X16904650Y-13204571D01*
X16904650Y-13204571D02*
X16900364Y-13200286D01*
X16900364Y-13200286D02*
X16891793Y-13196000D01*
X16891793Y-13196000D02*
X16866079Y-13196000D01*
X16866079Y-13196000D02*
X16857507Y-13200286D01*
X16857507Y-13200286D02*
X16853221Y-13204571D01*
X16853221Y-13204571D02*
X16848936Y-13213143D01*
X16848936Y-13213143D02*
X16848936Y-13230286D01*
X16848936Y-13230286D02*
X16853221Y-13238857D01*
X16908936Y-13281714D02*
X16848936Y-13281714D01*
X16818936Y-13281714D02*
X16823221Y-13277429D01*
X16823221Y-13277429D02*
X16827507Y-13281714D01*
X16827507Y-13281714D02*
X16823221Y-13286000D01*
X16823221Y-13286000D02*
X16818936Y-13281714D01*
X16818936Y-13281714D02*
X16827507Y-13281714D01*
X16908936Y-13337429D02*
X16904650Y-13328857D01*
X16904650Y-13328857D02*
X16900364Y-13324571D01*
X16900364Y-13324571D02*
X16891793Y-13320286D01*
X16891793Y-13320286D02*
X16866079Y-13320286D01*
X16866079Y-13320286D02*
X16857507Y-13324571D01*
X16857507Y-13324571D02*
X16853221Y-13328857D01*
X16853221Y-13328857D02*
X16848936Y-13337429D01*
X16848936Y-13337429D02*
X16848936Y-13350286D01*
X16848936Y-13350286D02*
X16853221Y-13358857D01*
X16853221Y-13358857D02*
X16857507Y-13363143D01*
X16857507Y-13363143D02*
X16866079Y-13367429D01*
X16866079Y-13367429D02*
X16891793Y-13367429D01*
X16891793Y-13367429D02*
X16900364Y-13363143D01*
X16900364Y-13363143D02*
X16904650Y-13358857D01*
X16904650Y-13358857D02*
X16908936Y-13350286D01*
X16908936Y-13350286D02*
X16908936Y-13337429D01*
X16900364Y-13406000D02*
X16904650Y-13410286D01*
X16904650Y-13410286D02*
X16908936Y-13406000D01*
X16908936Y-13406000D02*
X16904650Y-13401714D01*
X16904650Y-13401714D02*
X16900364Y-13406000D01*
X16900364Y-13406000D02*
X16908936Y-13406000D01*
X17054736Y-12017428D02*
X16964736Y-12017428D01*
X16964736Y-12017428D02*
X16964736Y-12038857D01*
X16964736Y-12038857D02*
X16969021Y-12051714D01*
X16969021Y-12051714D02*
X16977593Y-12060286D01*
X16977593Y-12060286D02*
X16986164Y-12064571D01*
X16986164Y-12064571D02*
X17003307Y-12068857D01*
X17003307Y-12068857D02*
X17016164Y-12068857D01*
X17016164Y-12068857D02*
X17033307Y-12064571D01*
X17033307Y-12064571D02*
X17041879Y-12060286D01*
X17041879Y-12060286D02*
X17050450Y-12051714D01*
X17050450Y-12051714D02*
X17054736Y-12038857D01*
X17054736Y-12038857D02*
X17054736Y-12017428D01*
X17050450Y-12141714D02*
X17054736Y-12133143D01*
X17054736Y-12133143D02*
X17054736Y-12116000D01*
X17054736Y-12116000D02*
X17050450Y-12107428D01*
X17050450Y-12107428D02*
X17041879Y-12103143D01*
X17041879Y-12103143D02*
X17007593Y-12103143D01*
X17007593Y-12103143D02*
X16999021Y-12107428D01*
X16999021Y-12107428D02*
X16994736Y-12116000D01*
X16994736Y-12116000D02*
X16994736Y-12133143D01*
X16994736Y-12133143D02*
X16999021Y-12141714D01*
X16999021Y-12141714D02*
X17007593Y-12146000D01*
X17007593Y-12146000D02*
X17016164Y-12146000D01*
X17016164Y-12146000D02*
X17024736Y-12103143D01*
X16994736Y-12176000D02*
X17054736Y-12197429D01*
X17054736Y-12197429D02*
X16994736Y-12218857D01*
X17050450Y-12287428D02*
X17054736Y-12278857D01*
X17054736Y-12278857D02*
X17054736Y-12261714D01*
X17054736Y-12261714D02*
X17050450Y-12253143D01*
X17050450Y-12253143D02*
X17041879Y-12248857D01*
X17041879Y-12248857D02*
X17007593Y-12248857D01*
X17007593Y-12248857D02*
X16999021Y-12253143D01*
X16999021Y-12253143D02*
X16994736Y-12261714D01*
X16994736Y-12261714D02*
X16994736Y-12278857D01*
X16994736Y-12278857D02*
X16999021Y-12287428D01*
X16999021Y-12287428D02*
X17007593Y-12291714D01*
X17007593Y-12291714D02*
X17016164Y-12291714D01*
X17016164Y-12291714D02*
X17024736Y-12248857D01*
X17054736Y-12343143D02*
X17050450Y-12334571D01*
X17050450Y-12334571D02*
X17041879Y-12330286D01*
X17041879Y-12330286D02*
X16964736Y-12330286D01*
X17054736Y-12390286D02*
X17050450Y-12381714D01*
X17050450Y-12381714D02*
X17046164Y-12377429D01*
X17046164Y-12377429D02*
X17037593Y-12373143D01*
X17037593Y-12373143D02*
X17011879Y-12373143D01*
X17011879Y-12373143D02*
X17003307Y-12377429D01*
X17003307Y-12377429D02*
X16999021Y-12381714D01*
X16999021Y-12381714D02*
X16994736Y-12390286D01*
X16994736Y-12390286D02*
X16994736Y-12403143D01*
X16994736Y-12403143D02*
X16999021Y-12411714D01*
X16999021Y-12411714D02*
X17003307Y-12416000D01*
X17003307Y-12416000D02*
X17011879Y-12420286D01*
X17011879Y-12420286D02*
X17037593Y-12420286D01*
X17037593Y-12420286D02*
X17046164Y-12416000D01*
X17046164Y-12416000D02*
X17050450Y-12411714D01*
X17050450Y-12411714D02*
X17054736Y-12403143D01*
X17054736Y-12403143D02*
X17054736Y-12390286D01*
X16994736Y-12458857D02*
X17084736Y-12458857D01*
X16999021Y-12458857D02*
X16994736Y-12467429D01*
X16994736Y-12467429D02*
X16994736Y-12484571D01*
X16994736Y-12484571D02*
X16999021Y-12493143D01*
X16999021Y-12493143D02*
X17003307Y-12497429D01*
X17003307Y-12497429D02*
X17011879Y-12501714D01*
X17011879Y-12501714D02*
X17037593Y-12501714D01*
X17037593Y-12501714D02*
X17046164Y-12497429D01*
X17046164Y-12497429D02*
X17050450Y-12493143D01*
X17050450Y-12493143D02*
X17054736Y-12484571D01*
X17054736Y-12484571D02*
X17054736Y-12467429D01*
X17054736Y-12467429D02*
X17050450Y-12458857D01*
X17050450Y-12574571D02*
X17054736Y-12566000D01*
X17054736Y-12566000D02*
X17054736Y-12548857D01*
X17054736Y-12548857D02*
X17050450Y-12540286D01*
X17050450Y-12540286D02*
X17041879Y-12536000D01*
X17041879Y-12536000D02*
X17007593Y-12536000D01*
X17007593Y-12536000D02*
X16999021Y-12540286D01*
X16999021Y-12540286D02*
X16994736Y-12548857D01*
X16994736Y-12548857D02*
X16994736Y-12566000D01*
X16994736Y-12566000D02*
X16999021Y-12574571D01*
X16999021Y-12574571D02*
X17007593Y-12578857D01*
X17007593Y-12578857D02*
X17016164Y-12578857D01*
X17016164Y-12578857D02*
X17024736Y-12536000D01*
X17054736Y-12656000D02*
X16964736Y-12656000D01*
X17050450Y-12656000D02*
X17054736Y-12647429D01*
X17054736Y-12647429D02*
X17054736Y-12630286D01*
X17054736Y-12630286D02*
X17050450Y-12621714D01*
X17050450Y-12621714D02*
X17046164Y-12617429D01*
X17046164Y-12617429D02*
X17037593Y-12613143D01*
X17037593Y-12613143D02*
X17011879Y-12613143D01*
X17011879Y-12613143D02*
X17003307Y-12617429D01*
X17003307Y-12617429D02*
X16999021Y-12621714D01*
X16999021Y-12621714D02*
X16994736Y-12630286D01*
X16994736Y-12630286D02*
X16994736Y-12647429D01*
X16994736Y-12647429D02*
X16999021Y-12656000D01*
X17054736Y-12806000D02*
X17007593Y-12806000D01*
X17007593Y-12806000D02*
X16999021Y-12801714D01*
X16999021Y-12801714D02*
X16994736Y-12793143D01*
X16994736Y-12793143D02*
X16994736Y-12776000D01*
X16994736Y-12776000D02*
X16999021Y-12767429D01*
X17050450Y-12806000D02*
X17054736Y-12797429D01*
X17054736Y-12797429D02*
X17054736Y-12776000D01*
X17054736Y-12776000D02*
X17050450Y-12767429D01*
X17050450Y-12767429D02*
X17041879Y-12763143D01*
X17041879Y-12763143D02*
X17033307Y-12763143D01*
X17033307Y-12763143D02*
X17024736Y-12767429D01*
X17024736Y-12767429D02*
X17020450Y-12776000D01*
X17020450Y-12776000D02*
X17020450Y-12797429D01*
X17020450Y-12797429D02*
X17016164Y-12806000D01*
X16994736Y-12848857D02*
X17054736Y-12848857D01*
X17003307Y-12848857D02*
X16999021Y-12853143D01*
X16999021Y-12853143D02*
X16994736Y-12861714D01*
X16994736Y-12861714D02*
X16994736Y-12874572D01*
X16994736Y-12874572D02*
X16999021Y-12883143D01*
X16999021Y-12883143D02*
X17007593Y-12887429D01*
X17007593Y-12887429D02*
X17054736Y-12887429D01*
X17054736Y-12968857D02*
X16964736Y-12968857D01*
X17050450Y-12968857D02*
X17054736Y-12960286D01*
X17054736Y-12960286D02*
X17054736Y-12943143D01*
X17054736Y-12943143D02*
X17050450Y-12934572D01*
X17050450Y-12934572D02*
X17046164Y-12930286D01*
X17046164Y-12930286D02*
X17037593Y-12926000D01*
X17037593Y-12926000D02*
X17011879Y-12926000D01*
X17011879Y-12926000D02*
X17003307Y-12930286D01*
X17003307Y-12930286D02*
X16999021Y-12934572D01*
X16999021Y-12934572D02*
X16994736Y-12943143D01*
X16994736Y-12943143D02*
X16994736Y-12960286D01*
X16994736Y-12960286D02*
X16999021Y-12968857D01*
X17054736Y-13118857D02*
X17007593Y-13118857D01*
X17007593Y-13118857D02*
X16999021Y-13114572D01*
X16999021Y-13114572D02*
X16994736Y-13106000D01*
X16994736Y-13106000D02*
X16994736Y-13088857D01*
X16994736Y-13088857D02*
X16999021Y-13080286D01*
X17050450Y-13118857D02*
X17054736Y-13110286D01*
X17054736Y-13110286D02*
X17054736Y-13088857D01*
X17054736Y-13088857D02*
X17050450Y-13080286D01*
X17050450Y-13080286D02*
X17041879Y-13076000D01*
X17041879Y-13076000D02*
X17033307Y-13076000D01*
X17033307Y-13076000D02*
X17024736Y-13080286D01*
X17024736Y-13080286D02*
X17020450Y-13088857D01*
X17020450Y-13088857D02*
X17020450Y-13110286D01*
X17020450Y-13110286D02*
X17016164Y-13118857D01*
X17050450Y-13157429D02*
X17054736Y-13166000D01*
X17054736Y-13166000D02*
X17054736Y-13183143D01*
X17054736Y-13183143D02*
X17050450Y-13191714D01*
X17050450Y-13191714D02*
X17041879Y-13196000D01*
X17041879Y-13196000D02*
X17037593Y-13196000D01*
X17037593Y-13196000D02*
X17029021Y-13191714D01*
X17029021Y-13191714D02*
X17024736Y-13183143D01*
X17024736Y-13183143D02*
X17024736Y-13170286D01*
X17024736Y-13170286D02*
X17020450Y-13161714D01*
X17020450Y-13161714D02*
X17011879Y-13157429D01*
X17011879Y-13157429D02*
X17007593Y-13157429D01*
X17007593Y-13157429D02*
X16999021Y-13161714D01*
X16999021Y-13161714D02*
X16994736Y-13170286D01*
X16994736Y-13170286D02*
X16994736Y-13183143D01*
X16994736Y-13183143D02*
X16999021Y-13191714D01*
X17050450Y-13230286D02*
X17054736Y-13238857D01*
X17054736Y-13238857D02*
X17054736Y-13256000D01*
X17054736Y-13256000D02*
X17050450Y-13264572D01*
X17050450Y-13264572D02*
X17041879Y-13268857D01*
X17041879Y-13268857D02*
X17037593Y-13268857D01*
X17037593Y-13268857D02*
X17029021Y-13264572D01*
X17029021Y-13264572D02*
X17024736Y-13256000D01*
X17024736Y-13256000D02*
X17024736Y-13243143D01*
X17024736Y-13243143D02*
X17020450Y-13234572D01*
X17020450Y-13234572D02*
X17011879Y-13230286D01*
X17011879Y-13230286D02*
X17007593Y-13230286D01*
X17007593Y-13230286D02*
X16999021Y-13234572D01*
X16999021Y-13234572D02*
X16994736Y-13243143D01*
X16994736Y-13243143D02*
X16994736Y-13256000D01*
X16994736Y-13256000D02*
X16999021Y-13264572D01*
X17050450Y-13341714D02*
X17054736Y-13333143D01*
X17054736Y-13333143D02*
X17054736Y-13316000D01*
X17054736Y-13316000D02*
X17050450Y-13307429D01*
X17050450Y-13307429D02*
X17041879Y-13303143D01*
X17041879Y-13303143D02*
X17007593Y-13303143D01*
X17007593Y-13303143D02*
X16999021Y-13307429D01*
X16999021Y-13307429D02*
X16994736Y-13316000D01*
X16994736Y-13316000D02*
X16994736Y-13333143D01*
X16994736Y-13333143D02*
X16999021Y-13341714D01*
X16999021Y-13341714D02*
X17007593Y-13346000D01*
X17007593Y-13346000D02*
X17016164Y-13346000D01*
X17016164Y-13346000D02*
X17024736Y-13303143D01*
X17054736Y-13384572D02*
X16994736Y-13384572D01*
X17003307Y-13384572D02*
X16999021Y-13388857D01*
X16999021Y-13388857D02*
X16994736Y-13397429D01*
X16994736Y-13397429D02*
X16994736Y-13410286D01*
X16994736Y-13410286D02*
X16999021Y-13418857D01*
X16999021Y-13418857D02*
X17007593Y-13423143D01*
X17007593Y-13423143D02*
X17054736Y-13423143D01*
X17007593Y-13423143D02*
X16999021Y-13427429D01*
X16999021Y-13427429D02*
X16994736Y-13436000D01*
X16994736Y-13436000D02*
X16994736Y-13448857D01*
X16994736Y-13448857D02*
X16999021Y-13457429D01*
X16999021Y-13457429D02*
X17007593Y-13461714D01*
X17007593Y-13461714D02*
X17054736Y-13461714D01*
X17054736Y-13504572D02*
X16964736Y-13504572D01*
X16999021Y-13504572D02*
X16994736Y-13513143D01*
X16994736Y-13513143D02*
X16994736Y-13530286D01*
X16994736Y-13530286D02*
X16999021Y-13538857D01*
X16999021Y-13538857D02*
X17003307Y-13543143D01*
X17003307Y-13543143D02*
X17011879Y-13547429D01*
X17011879Y-13547429D02*
X17037593Y-13547429D01*
X17037593Y-13547429D02*
X17046164Y-13543143D01*
X17046164Y-13543143D02*
X17050450Y-13538857D01*
X17050450Y-13538857D02*
X17054736Y-13530286D01*
X17054736Y-13530286D02*
X17054736Y-13513143D01*
X17054736Y-13513143D02*
X17050450Y-13504572D01*
X17054736Y-13598857D02*
X17050450Y-13590286D01*
X17050450Y-13590286D02*
X17041879Y-13586000D01*
X17041879Y-13586000D02*
X16964736Y-13586000D01*
X17050450Y-13667429D02*
X17054736Y-13658857D01*
X17054736Y-13658857D02*
X17054736Y-13641715D01*
X17054736Y-13641715D02*
X17050450Y-13633143D01*
X17050450Y-13633143D02*
X17041879Y-13628857D01*
X17041879Y-13628857D02*
X17007593Y-13628857D01*
X17007593Y-13628857D02*
X16999021Y-13633143D01*
X16999021Y-13633143D02*
X16994736Y-13641715D01*
X16994736Y-13641715D02*
X16994736Y-13658857D01*
X16994736Y-13658857D02*
X16999021Y-13667429D01*
X16999021Y-13667429D02*
X17007593Y-13671715D01*
X17007593Y-13671715D02*
X17016164Y-13671715D01*
X17016164Y-13671715D02*
X17024736Y-13628857D01*
X17054736Y-13748857D02*
X16964736Y-13748857D01*
X17050450Y-13748857D02*
X17054736Y-13740286D01*
X17054736Y-13740286D02*
X17054736Y-13723143D01*
X17054736Y-13723143D02*
X17050450Y-13714572D01*
X17050450Y-13714572D02*
X17046164Y-13710286D01*
X17046164Y-13710286D02*
X17037593Y-13706000D01*
X17037593Y-13706000D02*
X17011879Y-13706000D01*
X17011879Y-13706000D02*
X17003307Y-13710286D01*
X17003307Y-13710286D02*
X16999021Y-13714572D01*
X16999021Y-13714572D02*
X16994736Y-13723143D01*
X16994736Y-13723143D02*
X16994736Y-13740286D01*
X16994736Y-13740286D02*
X16999021Y-13748857D01*
X17200536Y-12017428D02*
X17110536Y-12017428D01*
X17144821Y-12017428D02*
X17140536Y-12026000D01*
X17140536Y-12026000D02*
X17140536Y-12043143D01*
X17140536Y-12043143D02*
X17144821Y-12051714D01*
X17144821Y-12051714D02*
X17149107Y-12056000D01*
X17149107Y-12056000D02*
X17157679Y-12060286D01*
X17157679Y-12060286D02*
X17183393Y-12060286D01*
X17183393Y-12060286D02*
X17191964Y-12056000D01*
X17191964Y-12056000D02*
X17196250Y-12051714D01*
X17196250Y-12051714D02*
X17200536Y-12043143D01*
X17200536Y-12043143D02*
X17200536Y-12026000D01*
X17200536Y-12026000D02*
X17196250Y-12017428D01*
X17140536Y-12090286D02*
X17200536Y-12111714D01*
X17140536Y-12133143D02*
X17200536Y-12111714D01*
X17200536Y-12111714D02*
X17221964Y-12103143D01*
X17221964Y-12103143D02*
X17226250Y-12098857D01*
X17226250Y-12098857D02*
X17230536Y-12090286D01*
X17174821Y-12231714D02*
X17174821Y-12274571D01*
X17200536Y-12223143D02*
X17110536Y-12253143D01*
X17110536Y-12253143D02*
X17200536Y-12283143D01*
X17191964Y-12313143D02*
X17196250Y-12317428D01*
X17196250Y-12317428D02*
X17200536Y-12313143D01*
X17200536Y-12313143D02*
X17196250Y-12308857D01*
X17196250Y-12308857D02*
X17191964Y-12313143D01*
X17191964Y-12313143D02*
X17200536Y-12313143D01*
X17200536Y-12424571D02*
X17110536Y-12424571D01*
X17140536Y-12458857D02*
X17200536Y-12480286D01*
X17200536Y-12480286D02*
X17140536Y-12501714D01*
X17200536Y-12574571D02*
X17153393Y-12574571D01*
X17153393Y-12574571D02*
X17144821Y-12570285D01*
X17144821Y-12570285D02*
X17140536Y-12561714D01*
X17140536Y-12561714D02*
X17140536Y-12544571D01*
X17140536Y-12544571D02*
X17144821Y-12536000D01*
X17196250Y-12574571D02*
X17200536Y-12566000D01*
X17200536Y-12566000D02*
X17200536Y-12544571D01*
X17200536Y-12544571D02*
X17196250Y-12536000D01*
X17196250Y-12536000D02*
X17187679Y-12531714D01*
X17187679Y-12531714D02*
X17179107Y-12531714D01*
X17179107Y-12531714D02*
X17170536Y-12536000D01*
X17170536Y-12536000D02*
X17166250Y-12544571D01*
X17166250Y-12544571D02*
X17166250Y-12566000D01*
X17166250Y-12566000D02*
X17161964Y-12574571D01*
X17140536Y-12617428D02*
X17200536Y-12617428D01*
X17149107Y-12617428D02*
X17144821Y-12621714D01*
X17144821Y-12621714D02*
X17140536Y-12630286D01*
X17140536Y-12630286D02*
X17140536Y-12643143D01*
X17140536Y-12643143D02*
X17144821Y-12651714D01*
X17144821Y-12651714D02*
X17153393Y-12656000D01*
X17153393Y-12656000D02*
X17200536Y-12656000D01*
X17200536Y-12711714D02*
X17196250Y-12703143D01*
X17196250Y-12703143D02*
X17191964Y-12698857D01*
X17191964Y-12698857D02*
X17183393Y-12694571D01*
X17183393Y-12694571D02*
X17157679Y-12694571D01*
X17157679Y-12694571D02*
X17149107Y-12698857D01*
X17149107Y-12698857D02*
X17144821Y-12703143D01*
X17144821Y-12703143D02*
X17140536Y-12711714D01*
X17140536Y-12711714D02*
X17140536Y-12724571D01*
X17140536Y-12724571D02*
X17144821Y-12733143D01*
X17144821Y-12733143D02*
X17149107Y-12737428D01*
X17149107Y-12737428D02*
X17157679Y-12741714D01*
X17157679Y-12741714D02*
X17183393Y-12741714D01*
X17183393Y-12741714D02*
X17191964Y-12737428D01*
X17191964Y-12737428D02*
X17196250Y-12733143D01*
X17196250Y-12733143D02*
X17200536Y-12724571D01*
X17200536Y-12724571D02*
X17200536Y-12711714D01*
X17140536Y-12771714D02*
X17200536Y-12793143D01*
X17200536Y-12793143D02*
X17140536Y-12814571D01*
X17256336Y-12034571D02*
X17256336Y-12043143D01*
X17256336Y-12043143D02*
X17260621Y-12051714D01*
X17260621Y-12051714D02*
X17264907Y-12056000D01*
X17264907Y-12056000D02*
X17273479Y-12060286D01*
X17273479Y-12060286D02*
X17290621Y-12064571D01*
X17290621Y-12064571D02*
X17312050Y-12064571D01*
X17312050Y-12064571D02*
X17329193Y-12060286D01*
X17329193Y-12060286D02*
X17337764Y-12056000D01*
X17337764Y-12056000D02*
X17342050Y-12051714D01*
X17342050Y-12051714D02*
X17346336Y-12043143D01*
X17346336Y-12043143D02*
X17346336Y-12034571D01*
X17346336Y-12034571D02*
X17342050Y-12026000D01*
X17342050Y-12026000D02*
X17337764Y-12021714D01*
X17337764Y-12021714D02*
X17329193Y-12017428D01*
X17329193Y-12017428D02*
X17312050Y-12013143D01*
X17312050Y-12013143D02*
X17290621Y-12013143D01*
X17290621Y-12013143D02*
X17273479Y-12017428D01*
X17273479Y-12017428D02*
X17264907Y-12021714D01*
X17264907Y-12021714D02*
X17260621Y-12026000D01*
X17260621Y-12026000D02*
X17256336Y-12034571D01*
X17346336Y-12150286D02*
X17346336Y-12098857D01*
X17346336Y-12124571D02*
X17256336Y-12124571D01*
X17256336Y-12124571D02*
X17269193Y-12116000D01*
X17269193Y-12116000D02*
X17277764Y-12107428D01*
X17277764Y-12107428D02*
X17282050Y-12098857D01*
X17337764Y-12188857D02*
X17342050Y-12193143D01*
X17342050Y-12193143D02*
X17346336Y-12188857D01*
X17346336Y-12188857D02*
X17342050Y-12184571D01*
X17342050Y-12184571D02*
X17337764Y-12188857D01*
X17337764Y-12188857D02*
X17346336Y-12188857D01*
X17346336Y-12278857D02*
X17346336Y-12227428D01*
X17346336Y-12253143D02*
X17256336Y-12253143D01*
X17256336Y-12253143D02*
X17269193Y-12244571D01*
X17269193Y-12244571D02*
X17277764Y-12236000D01*
X17277764Y-12236000D02*
X17282050Y-12227428D01*
X17346336Y-12364571D02*
X17346336Y-12313143D01*
X17346336Y-12338857D02*
X17256336Y-12338857D01*
X17256336Y-12338857D02*
X17269193Y-12330286D01*
X17269193Y-12330286D02*
X17277764Y-12321714D01*
X17277764Y-12321714D02*
X17282050Y-12313143D01*
X17337764Y-12403143D02*
X17342050Y-12407428D01*
X17342050Y-12407428D02*
X17346336Y-12403143D01*
X17346336Y-12403143D02*
X17342050Y-12398857D01*
X17342050Y-12398857D02*
X17337764Y-12403143D01*
X17337764Y-12403143D02*
X17346336Y-12403143D01*
X17264907Y-12441714D02*
X17260621Y-12446000D01*
X17260621Y-12446000D02*
X17256336Y-12454571D01*
X17256336Y-12454571D02*
X17256336Y-12476000D01*
X17256336Y-12476000D02*
X17260621Y-12484571D01*
X17260621Y-12484571D02*
X17264907Y-12488857D01*
X17264907Y-12488857D02*
X17273479Y-12493143D01*
X17273479Y-12493143D02*
X17282050Y-12493143D01*
X17282050Y-12493143D02*
X17294907Y-12488857D01*
X17294907Y-12488857D02*
X17346336Y-12437428D01*
X17346336Y-12437428D02*
X17346336Y-12493143D01*
X17256336Y-12548857D02*
X17256336Y-12557428D01*
X17256336Y-12557428D02*
X17260621Y-12566000D01*
X17260621Y-12566000D02*
X17264907Y-12570286D01*
X17264907Y-12570286D02*
X17273479Y-12574571D01*
X17273479Y-12574571D02*
X17290621Y-12578857D01*
X17290621Y-12578857D02*
X17312050Y-12578857D01*
X17312050Y-12578857D02*
X17329193Y-12574571D01*
X17329193Y-12574571D02*
X17337764Y-12570286D01*
X17337764Y-12570286D02*
X17342050Y-12566000D01*
X17342050Y-12566000D02*
X17346336Y-12557428D01*
X17346336Y-12557428D02*
X17346336Y-12548857D01*
X17346336Y-12548857D02*
X17342050Y-12540286D01*
X17342050Y-12540286D02*
X17337764Y-12536000D01*
X17337764Y-12536000D02*
X17329193Y-12531714D01*
X17329193Y-12531714D02*
X17312050Y-12527428D01*
X17312050Y-12527428D02*
X17290621Y-12527428D01*
X17290621Y-12527428D02*
X17273479Y-12531714D01*
X17273479Y-12531714D02*
X17264907Y-12536000D01*
X17264907Y-12536000D02*
X17260621Y-12540286D01*
X17260621Y-12540286D02*
X17256336Y-12548857D01*
X17264907Y-12613143D02*
X17260621Y-12617428D01*
X17260621Y-12617428D02*
X17256336Y-12626000D01*
X17256336Y-12626000D02*
X17256336Y-12647428D01*
X17256336Y-12647428D02*
X17260621Y-12656000D01*
X17260621Y-12656000D02*
X17264907Y-12660286D01*
X17264907Y-12660286D02*
X17273479Y-12664571D01*
X17273479Y-12664571D02*
X17282050Y-12664571D01*
X17282050Y-12664571D02*
X17294907Y-12660286D01*
X17294907Y-12660286D02*
X17346336Y-12608857D01*
X17346336Y-12608857D02*
X17346336Y-12664571D01*
X17256336Y-12694571D02*
X17256336Y-12750286D01*
X17256336Y-12750286D02*
X17290621Y-12720286D01*
X17290621Y-12720286D02*
X17290621Y-12733143D01*
X17290621Y-12733143D02*
X17294907Y-12741714D01*
X17294907Y-12741714D02*
X17299193Y-12746000D01*
X17299193Y-12746000D02*
X17307764Y-12750286D01*
X17307764Y-12750286D02*
X17329193Y-12750286D01*
X17329193Y-12750286D02*
X17337764Y-12746000D01*
X17337764Y-12746000D02*
X17342050Y-12741714D01*
X17342050Y-12741714D02*
X17346336Y-12733143D01*
X17346336Y-12733143D02*
X17346336Y-12707428D01*
X17346336Y-12707428D02*
X17342050Y-12698857D01*
X17342050Y-12698857D02*
X17337764Y-12694571D01*
D14*
%TO.C,R13*%
X16701786Y-11186262D02*
X16735119Y-11138643D01*
X16758928Y-11186262D02*
X16758928Y-11086262D01*
X16758928Y-11086262D02*
X16720833Y-11086262D01*
X16720833Y-11086262D02*
X16711309Y-11091024D01*
X16711309Y-11091024D02*
X16706548Y-11095786D01*
X16706548Y-11095786D02*
X16701786Y-11105310D01*
X16701786Y-11105310D02*
X16701786Y-11119595D01*
X16701786Y-11119595D02*
X16706548Y-11129119D01*
X16706548Y-11129119D02*
X16711309Y-11133881D01*
X16711309Y-11133881D02*
X16720833Y-11138643D01*
X16720833Y-11138643D02*
X16758928Y-11138643D01*
X16606548Y-11186262D02*
X16663690Y-11186262D01*
X16635119Y-11186262D02*
X16635119Y-11086262D01*
X16635119Y-11086262D02*
X16644643Y-11100548D01*
X16644643Y-11100548D02*
X16654167Y-11110071D01*
X16654167Y-11110071D02*
X16663690Y-11114833D01*
X16573214Y-11086262D02*
X16511309Y-11086262D01*
X16511309Y-11086262D02*
X16544643Y-11124357D01*
X16544643Y-11124357D02*
X16530357Y-11124357D01*
X16530357Y-11124357D02*
X16520833Y-11129119D01*
X16520833Y-11129119D02*
X16516071Y-11133881D01*
X16516071Y-11133881D02*
X16511309Y-11143405D01*
X16511309Y-11143405D02*
X16511309Y-11167214D01*
X16511309Y-11167214D02*
X16516071Y-11176738D01*
X16516071Y-11176738D02*
X16520833Y-11181500D01*
X16520833Y-11181500D02*
X16530357Y-11186262D01*
X16530357Y-11186262D02*
X16558928Y-11186262D01*
X16558928Y-11186262D02*
X16568452Y-11181500D01*
X16568452Y-11181500D02*
X16573214Y-11176738D01*
%TO.C,C2*%
X13038738Y-15225833D02*
X13043500Y-15221071D01*
X13043500Y-15221071D02*
X13048262Y-15206786D01*
X13048262Y-15206786D02*
X13048262Y-15197262D01*
X13048262Y-15197262D02*
X13043500Y-15182976D01*
X13043500Y-15182976D02*
X13033976Y-15173452D01*
X13033976Y-15173452D02*
X13024452Y-15168690D01*
X13024452Y-15168690D02*
X13005405Y-15163929D01*
X13005405Y-15163929D02*
X12991119Y-15163929D01*
X12991119Y-15163929D02*
X12972071Y-15168690D01*
X12972071Y-15168690D02*
X12962548Y-15173452D01*
X12962548Y-15173452D02*
X12953024Y-15182976D01*
X12953024Y-15182976D02*
X12948262Y-15197262D01*
X12948262Y-15197262D02*
X12948262Y-15206786D01*
X12948262Y-15206786D02*
X12953024Y-15221071D01*
X12953024Y-15221071D02*
X12957786Y-15225833D01*
X12957786Y-15263929D02*
X12953024Y-15268690D01*
X12953024Y-15268690D02*
X12948262Y-15278214D01*
X12948262Y-15278214D02*
X12948262Y-15302024D01*
X12948262Y-15302024D02*
X12953024Y-15311548D01*
X12953024Y-15311548D02*
X12957786Y-15316309D01*
X12957786Y-15316309D02*
X12967309Y-15321071D01*
X12967309Y-15321071D02*
X12976833Y-15321071D01*
X12976833Y-15321071D02*
X12991119Y-15316309D01*
X12991119Y-15316309D02*
X13048262Y-15259167D01*
X13048262Y-15259167D02*
X13048262Y-15321071D01*
%TO.C,R6*%
X14259167Y-9531262D02*
X14292500Y-9483643D01*
X14316309Y-9531262D02*
X14316309Y-9431262D01*
X14316309Y-9431262D02*
X14278214Y-9431262D01*
X14278214Y-9431262D02*
X14268690Y-9436024D01*
X14268690Y-9436024D02*
X14263928Y-9440786D01*
X14263928Y-9440786D02*
X14259167Y-9450310D01*
X14259167Y-9450310D02*
X14259167Y-9464595D01*
X14259167Y-9464595D02*
X14263928Y-9474119D01*
X14263928Y-9474119D02*
X14268690Y-9478881D01*
X14268690Y-9478881D02*
X14278214Y-9483643D01*
X14278214Y-9483643D02*
X14316309Y-9483643D01*
X14173452Y-9431262D02*
X14192500Y-9431262D01*
X14192500Y-9431262D02*
X14202024Y-9436024D01*
X14202024Y-9436024D02*
X14206786Y-9440786D01*
X14206786Y-9440786D02*
X14216309Y-9455071D01*
X14216309Y-9455071D02*
X14221071Y-9474119D01*
X14221071Y-9474119D02*
X14221071Y-9512214D01*
X14221071Y-9512214D02*
X14216309Y-9521738D01*
X14216309Y-9521738D02*
X14211547Y-9526500D01*
X14211547Y-9526500D02*
X14202024Y-9531262D01*
X14202024Y-9531262D02*
X14182976Y-9531262D01*
X14182976Y-9531262D02*
X14173452Y-9526500D01*
X14173452Y-9526500D02*
X14168690Y-9521738D01*
X14168690Y-9521738D02*
X14163928Y-9512214D01*
X14163928Y-9512214D02*
X14163928Y-9488405D01*
X14163928Y-9488405D02*
X14168690Y-9478881D01*
X14168690Y-9478881D02*
X14173452Y-9474119D01*
X14173452Y-9474119D02*
X14182976Y-9469357D01*
X14182976Y-9469357D02*
X14202024Y-9469357D01*
X14202024Y-9469357D02*
X14211547Y-9474119D01*
X14211547Y-9474119D02*
X14216309Y-9478881D01*
X14216309Y-9478881D02*
X14221071Y-9488405D01*
%TO.C,C6*%
X14966738Y-10255833D02*
X14971500Y-10251071D01*
X14971500Y-10251071D02*
X14976262Y-10236786D01*
X14976262Y-10236786D02*
X14976262Y-10227262D01*
X14976262Y-10227262D02*
X14971500Y-10212976D01*
X14971500Y-10212976D02*
X14961976Y-10203452D01*
X14961976Y-10203452D02*
X14952452Y-10198691D01*
X14952452Y-10198691D02*
X14933405Y-10193929D01*
X14933405Y-10193929D02*
X14919119Y-10193929D01*
X14919119Y-10193929D02*
X14900071Y-10198691D01*
X14900071Y-10198691D02*
X14890548Y-10203452D01*
X14890548Y-10203452D02*
X14881024Y-10212976D01*
X14881024Y-10212976D02*
X14876262Y-10227262D01*
X14876262Y-10227262D02*
X14876262Y-10236786D01*
X14876262Y-10236786D02*
X14881024Y-10251071D01*
X14881024Y-10251071D02*
X14885786Y-10255833D01*
X14876262Y-10341548D02*
X14876262Y-10322500D01*
X14876262Y-10322500D02*
X14881024Y-10312976D01*
X14881024Y-10312976D02*
X14885786Y-10308214D01*
X14885786Y-10308214D02*
X14900071Y-10298691D01*
X14900071Y-10298691D02*
X14919119Y-10293929D01*
X14919119Y-10293929D02*
X14957214Y-10293929D01*
X14957214Y-10293929D02*
X14966738Y-10298691D01*
X14966738Y-10298691D02*
X14971500Y-10303452D01*
X14971500Y-10303452D02*
X14976262Y-10312976D01*
X14976262Y-10312976D02*
X14976262Y-10332024D01*
X14976262Y-10332024D02*
X14971500Y-10341548D01*
X14971500Y-10341548D02*
X14966738Y-10346310D01*
X14966738Y-10346310D02*
X14957214Y-10351071D01*
X14957214Y-10351071D02*
X14933405Y-10351071D01*
X14933405Y-10351071D02*
X14923881Y-10346310D01*
X14923881Y-10346310D02*
X14919119Y-10341548D01*
X14919119Y-10341548D02*
X14914357Y-10332024D01*
X14914357Y-10332024D02*
X14914357Y-10312976D01*
X14914357Y-10312976D02*
X14919119Y-10303452D01*
X14919119Y-10303452D02*
X14923881Y-10298691D01*
X14923881Y-10298691D02*
X14933405Y-10293929D01*
%TO.C,R19*%
X15386262Y-11403214D02*
X15338643Y-11369881D01*
X15386262Y-11346071D02*
X15286262Y-11346071D01*
X15286262Y-11346071D02*
X15286262Y-11384167D01*
X15286262Y-11384167D02*
X15291024Y-11393690D01*
X15291024Y-11393690D02*
X15295786Y-11398452D01*
X15295786Y-11398452D02*
X15305309Y-11403214D01*
X15305309Y-11403214D02*
X15319595Y-11403214D01*
X15319595Y-11403214D02*
X15329119Y-11398452D01*
X15329119Y-11398452D02*
X15333881Y-11393690D01*
X15333881Y-11393690D02*
X15338643Y-11384167D01*
X15338643Y-11384167D02*
X15338643Y-11346071D01*
X15386262Y-11498452D02*
X15386262Y-11441309D01*
X15386262Y-11469881D02*
X15286262Y-11469881D01*
X15286262Y-11469881D02*
X15300548Y-11460357D01*
X15300548Y-11460357D02*
X15310071Y-11450833D01*
X15310071Y-11450833D02*
X15314833Y-11441309D01*
X15386262Y-11546071D02*
X15386262Y-11565119D01*
X15386262Y-11565119D02*
X15381500Y-11574643D01*
X15381500Y-11574643D02*
X15376738Y-11579405D01*
X15376738Y-11579405D02*
X15362452Y-11588928D01*
X15362452Y-11588928D02*
X15343405Y-11593690D01*
X15343405Y-11593690D02*
X15305309Y-11593690D01*
X15305309Y-11593690D02*
X15295786Y-11588928D01*
X15295786Y-11588928D02*
X15291024Y-11584167D01*
X15291024Y-11584167D02*
X15286262Y-11574643D01*
X15286262Y-11574643D02*
X15286262Y-11555595D01*
X15286262Y-11555595D02*
X15291024Y-11546071D01*
X15291024Y-11546071D02*
X15295786Y-11541309D01*
X15295786Y-11541309D02*
X15305309Y-11536548D01*
X15305309Y-11536548D02*
X15329119Y-11536548D01*
X15329119Y-11536548D02*
X15338643Y-11541309D01*
X15338643Y-11541309D02*
X15343405Y-11546071D01*
X15343405Y-11546071D02*
X15348167Y-11555595D01*
X15348167Y-11555595D02*
X15348167Y-11574643D01*
X15348167Y-11574643D02*
X15343405Y-11584167D01*
X15343405Y-11584167D02*
X15338643Y-11588928D01*
X15338643Y-11588928D02*
X15329119Y-11593690D01*
%TO.C,R4*%
X15903762Y-10543333D02*
X15856143Y-10510000D01*
X15903762Y-10486191D02*
X15803762Y-10486191D01*
X15803762Y-10486191D02*
X15803762Y-10524286D01*
X15803762Y-10524286D02*
X15808524Y-10533810D01*
X15808524Y-10533810D02*
X15813286Y-10538571D01*
X15813286Y-10538571D02*
X15822809Y-10543333D01*
X15822809Y-10543333D02*
X15837095Y-10543333D01*
X15837095Y-10543333D02*
X15846619Y-10538571D01*
X15846619Y-10538571D02*
X15851381Y-10533810D01*
X15851381Y-10533810D02*
X15856143Y-10524286D01*
X15856143Y-10524286D02*
X15856143Y-10486191D01*
X15837095Y-10629048D02*
X15903762Y-10629048D01*
X15799000Y-10605238D02*
X15870428Y-10581429D01*
X15870428Y-10581429D02*
X15870428Y-10643333D01*
%TO.C,C9*%
X15101738Y-9560833D02*
X15106500Y-9556071D01*
X15106500Y-9556071D02*
X15111262Y-9541786D01*
X15111262Y-9541786D02*
X15111262Y-9532262D01*
X15111262Y-9532262D02*
X15106500Y-9517976D01*
X15106500Y-9517976D02*
X15096976Y-9508452D01*
X15096976Y-9508452D02*
X15087452Y-9503691D01*
X15087452Y-9503691D02*
X15068405Y-9498929D01*
X15068405Y-9498929D02*
X15054119Y-9498929D01*
X15054119Y-9498929D02*
X15035071Y-9503691D01*
X15035071Y-9503691D02*
X15025548Y-9508452D01*
X15025548Y-9508452D02*
X15016024Y-9517976D01*
X15016024Y-9517976D02*
X15011262Y-9532262D01*
X15011262Y-9532262D02*
X15011262Y-9541786D01*
X15011262Y-9541786D02*
X15016024Y-9556071D01*
X15016024Y-9556071D02*
X15020786Y-9560833D01*
X15111262Y-9608452D02*
X15111262Y-9627500D01*
X15111262Y-9627500D02*
X15106500Y-9637024D01*
X15106500Y-9637024D02*
X15101738Y-9641786D01*
X15101738Y-9641786D02*
X15087452Y-9651310D01*
X15087452Y-9651310D02*
X15068405Y-9656071D01*
X15068405Y-9656071D02*
X15030309Y-9656071D01*
X15030309Y-9656071D02*
X15020786Y-9651310D01*
X15020786Y-9651310D02*
X15016024Y-9646548D01*
X15016024Y-9646548D02*
X15011262Y-9637024D01*
X15011262Y-9637024D02*
X15011262Y-9617976D01*
X15011262Y-9617976D02*
X15016024Y-9608452D01*
X15016024Y-9608452D02*
X15020786Y-9603691D01*
X15020786Y-9603691D02*
X15030309Y-9598929D01*
X15030309Y-9598929D02*
X15054119Y-9598929D01*
X15054119Y-9598929D02*
X15063643Y-9603691D01*
X15063643Y-9603691D02*
X15068405Y-9608452D01*
X15068405Y-9608452D02*
X15073167Y-9617976D01*
X15073167Y-9617976D02*
X15073167Y-9637024D01*
X15073167Y-9637024D02*
X15068405Y-9646548D01*
X15068405Y-9646548D02*
X15063643Y-9651310D01*
X15063643Y-9651310D02*
X15054119Y-9656071D01*
%TO.C,R17*%
X13857262Y-10914714D02*
X13809643Y-10881381D01*
X13857262Y-10857571D02*
X13757262Y-10857571D01*
X13757262Y-10857571D02*
X13757262Y-10895667D01*
X13757262Y-10895667D02*
X13762024Y-10905190D01*
X13762024Y-10905190D02*
X13766786Y-10909952D01*
X13766786Y-10909952D02*
X13776309Y-10914714D01*
X13776309Y-10914714D02*
X13790595Y-10914714D01*
X13790595Y-10914714D02*
X13800119Y-10909952D01*
X13800119Y-10909952D02*
X13804881Y-10905190D01*
X13804881Y-10905190D02*
X13809643Y-10895667D01*
X13809643Y-10895667D02*
X13809643Y-10857571D01*
X13857262Y-11009952D02*
X13857262Y-10952810D01*
X13857262Y-10981381D02*
X13757262Y-10981381D01*
X13757262Y-10981381D02*
X13771548Y-10971857D01*
X13771548Y-10971857D02*
X13781071Y-10962333D01*
X13781071Y-10962333D02*
X13785833Y-10952810D01*
X13757262Y-11043286D02*
X13757262Y-11109952D01*
X13757262Y-11109952D02*
X13857262Y-11067095D01*
%TO.C,C10*%
X13314481Y-9771058D02*
X13319243Y-9775820D01*
X13319243Y-9775820D02*
X13333528Y-9780582D01*
X13333528Y-9780582D02*
X13343052Y-9780582D01*
X13343052Y-9780582D02*
X13357338Y-9775820D01*
X13357338Y-9775820D02*
X13366862Y-9766296D01*
X13366862Y-9766296D02*
X13371624Y-9756772D01*
X13371624Y-9756772D02*
X13376385Y-9737725D01*
X13376385Y-9737725D02*
X13376385Y-9723439D01*
X13376385Y-9723439D02*
X13371624Y-9704392D01*
X13371624Y-9704392D02*
X13366862Y-9694868D01*
X13366862Y-9694868D02*
X13357338Y-9685344D01*
X13357338Y-9685344D02*
X13343052Y-9680582D01*
X13343052Y-9680582D02*
X13333528Y-9680582D01*
X13333528Y-9680582D02*
X13319243Y-9685344D01*
X13319243Y-9685344D02*
X13314481Y-9690106D01*
X13219243Y-9780582D02*
X13276385Y-9780582D01*
X13247814Y-9780582D02*
X13247814Y-9680582D01*
X13247814Y-9680582D02*
X13257338Y-9694868D01*
X13257338Y-9694868D02*
X13266862Y-9704392D01*
X13266862Y-9704392D02*
X13276385Y-9709153D01*
X13157338Y-9680582D02*
X13147814Y-9680582D01*
X13147814Y-9680582D02*
X13138290Y-9685344D01*
X13138290Y-9685344D02*
X13133528Y-9690106D01*
X13133528Y-9690106D02*
X13128766Y-9699630D01*
X13128766Y-9699630D02*
X13124005Y-9718677D01*
X13124005Y-9718677D02*
X13124005Y-9742487D01*
X13124005Y-9742487D02*
X13128766Y-9761534D01*
X13128766Y-9761534D02*
X13133528Y-9771058D01*
X13133528Y-9771058D02*
X13138290Y-9775820D01*
X13138290Y-9775820D02*
X13147814Y-9780582D01*
X13147814Y-9780582D02*
X13157338Y-9780582D01*
X13157338Y-9780582D02*
X13166862Y-9775820D01*
X13166862Y-9775820D02*
X13171624Y-9771058D01*
X13171624Y-9771058D02*
X13176385Y-9761534D01*
X13176385Y-9761534D02*
X13181147Y-9742487D01*
X13181147Y-9742487D02*
X13181147Y-9718677D01*
X13181147Y-9718677D02*
X13176385Y-9699630D01*
X13176385Y-9699630D02*
X13171624Y-9690106D01*
X13171624Y-9690106D02*
X13166862Y-9685344D01*
X13166862Y-9685344D02*
X13157338Y-9680582D01*
%TO.C,R11*%
X16704286Y-10418762D02*
X16737619Y-10371143D01*
X16761428Y-10418762D02*
X16761428Y-10318762D01*
X16761428Y-10318762D02*
X16723333Y-10318762D01*
X16723333Y-10318762D02*
X16713809Y-10323524D01*
X16713809Y-10323524D02*
X16709048Y-10328286D01*
X16709048Y-10328286D02*
X16704286Y-10337810D01*
X16704286Y-10337810D02*
X16704286Y-10352095D01*
X16704286Y-10352095D02*
X16709048Y-10361619D01*
X16709048Y-10361619D02*
X16713809Y-10366381D01*
X16713809Y-10366381D02*
X16723333Y-10371143D01*
X16723333Y-10371143D02*
X16761428Y-10371143D01*
X16609048Y-10418762D02*
X16666190Y-10418762D01*
X16637619Y-10418762D02*
X16637619Y-10318762D01*
X16637619Y-10318762D02*
X16647143Y-10333048D01*
X16647143Y-10333048D02*
X16656667Y-10342571D01*
X16656667Y-10342571D02*
X16666190Y-10347333D01*
X16513809Y-10418762D02*
X16570952Y-10418762D01*
X16542381Y-10418762D02*
X16542381Y-10318762D01*
X16542381Y-10318762D02*
X16551905Y-10333048D01*
X16551905Y-10333048D02*
X16561428Y-10342571D01*
X16561428Y-10342571D02*
X16570952Y-10347333D01*
%TO.C,R21*%
X15183762Y-11405714D02*
X15136143Y-11372381D01*
X15183762Y-11348571D02*
X15083762Y-11348571D01*
X15083762Y-11348571D02*
X15083762Y-11386667D01*
X15083762Y-11386667D02*
X15088524Y-11396190D01*
X15088524Y-11396190D02*
X15093286Y-11400952D01*
X15093286Y-11400952D02*
X15102809Y-11405714D01*
X15102809Y-11405714D02*
X15117095Y-11405714D01*
X15117095Y-11405714D02*
X15126619Y-11400952D01*
X15126619Y-11400952D02*
X15131381Y-11396190D01*
X15131381Y-11396190D02*
X15136143Y-11386667D01*
X15136143Y-11386667D02*
X15136143Y-11348571D01*
X15093286Y-11443809D02*
X15088524Y-11448571D01*
X15088524Y-11448571D02*
X15083762Y-11458095D01*
X15083762Y-11458095D02*
X15083762Y-11481905D01*
X15083762Y-11481905D02*
X15088524Y-11491428D01*
X15088524Y-11491428D02*
X15093286Y-11496190D01*
X15093286Y-11496190D02*
X15102809Y-11500952D01*
X15102809Y-11500952D02*
X15112333Y-11500952D01*
X15112333Y-11500952D02*
X15126619Y-11496190D01*
X15126619Y-11496190D02*
X15183762Y-11439048D01*
X15183762Y-11439048D02*
X15183762Y-11500952D01*
X15183762Y-11596190D02*
X15183762Y-11539048D01*
X15183762Y-11567619D02*
X15083762Y-11567619D01*
X15083762Y-11567619D02*
X15098048Y-11558095D01*
X15098048Y-11558095D02*
X15107571Y-11548571D01*
X15107571Y-11548571D02*
X15112333Y-11539048D01*
%TO.C,R8*%
X14343262Y-14497333D02*
X14295643Y-14464000D01*
X14343262Y-14440190D02*
X14243262Y-14440190D01*
X14243262Y-14440190D02*
X14243262Y-14478286D01*
X14243262Y-14478286D02*
X14248024Y-14487809D01*
X14248024Y-14487809D02*
X14252786Y-14492571D01*
X14252786Y-14492571D02*
X14262309Y-14497333D01*
X14262309Y-14497333D02*
X14276595Y-14497333D01*
X14276595Y-14497333D02*
X14286119Y-14492571D01*
X14286119Y-14492571D02*
X14290881Y-14487809D01*
X14290881Y-14487809D02*
X14295643Y-14478286D01*
X14295643Y-14478286D02*
X14295643Y-14440190D01*
X14286119Y-14554476D02*
X14281357Y-14544952D01*
X14281357Y-14544952D02*
X14276595Y-14540190D01*
X14276595Y-14540190D02*
X14267071Y-14535429D01*
X14267071Y-14535429D02*
X14262309Y-14535429D01*
X14262309Y-14535429D02*
X14252786Y-14540190D01*
X14252786Y-14540190D02*
X14248024Y-14544952D01*
X14248024Y-14544952D02*
X14243262Y-14554476D01*
X14243262Y-14554476D02*
X14243262Y-14573524D01*
X14243262Y-14573524D02*
X14248024Y-14583048D01*
X14248024Y-14583048D02*
X14252786Y-14587809D01*
X14252786Y-14587809D02*
X14262309Y-14592571D01*
X14262309Y-14592571D02*
X14267071Y-14592571D01*
X14267071Y-14592571D02*
X14276595Y-14587809D01*
X14276595Y-14587809D02*
X14281357Y-14583048D01*
X14281357Y-14583048D02*
X14286119Y-14573524D01*
X14286119Y-14573524D02*
X14286119Y-14554476D01*
X14286119Y-14554476D02*
X14290881Y-14544952D01*
X14290881Y-14544952D02*
X14295643Y-14540190D01*
X14295643Y-14540190D02*
X14305167Y-14535429D01*
X14305167Y-14535429D02*
X14324214Y-14535429D01*
X14324214Y-14535429D02*
X14333738Y-14540190D01*
X14333738Y-14540190D02*
X14338500Y-14544952D01*
X14338500Y-14544952D02*
X14343262Y-14554476D01*
X14343262Y-14554476D02*
X14343262Y-14573524D01*
X14343262Y-14573524D02*
X14338500Y-14583048D01*
X14338500Y-14583048D02*
X14333738Y-14587809D01*
X14333738Y-14587809D02*
X14324214Y-14592571D01*
X14324214Y-14592571D02*
X14305167Y-14592571D01*
X14305167Y-14592571D02*
X14295643Y-14587809D01*
X14295643Y-14587809D02*
X14290881Y-14583048D01*
X14290881Y-14583048D02*
X14286119Y-14573524D01*
%TO.C,R1*%
X15861667Y-9321262D02*
X15895000Y-9273643D01*
X15918809Y-9321262D02*
X15918809Y-9221262D01*
X15918809Y-9221262D02*
X15880714Y-9221262D01*
X15880714Y-9221262D02*
X15871190Y-9226024D01*
X15871190Y-9226024D02*
X15866428Y-9230786D01*
X15866428Y-9230786D02*
X15861667Y-9240310D01*
X15861667Y-9240310D02*
X15861667Y-9254595D01*
X15861667Y-9254595D02*
X15866428Y-9264119D01*
X15866428Y-9264119D02*
X15871190Y-9268881D01*
X15871190Y-9268881D02*
X15880714Y-9273643D01*
X15880714Y-9273643D02*
X15918809Y-9273643D01*
X15766428Y-9321262D02*
X15823571Y-9321262D01*
X15795000Y-9321262D02*
X15795000Y-9221262D01*
X15795000Y-9221262D02*
X15804524Y-9235548D01*
X15804524Y-9235548D02*
X15814047Y-9245071D01*
X15814047Y-9245071D02*
X15823571Y-9249833D01*
%TO.C,R20*%
X14972262Y-12717714D02*
X14924643Y-12684381D01*
X14972262Y-12660571D02*
X14872262Y-12660571D01*
X14872262Y-12660571D02*
X14872262Y-12698667D01*
X14872262Y-12698667D02*
X14877024Y-12708190D01*
X14877024Y-12708190D02*
X14881786Y-12712952D01*
X14881786Y-12712952D02*
X14891309Y-12717714D01*
X14891309Y-12717714D02*
X14905595Y-12717714D01*
X14905595Y-12717714D02*
X14915119Y-12712952D01*
X14915119Y-12712952D02*
X14919881Y-12708190D01*
X14919881Y-12708190D02*
X14924643Y-12698667D01*
X14924643Y-12698667D02*
X14924643Y-12660571D01*
X14881786Y-12755809D02*
X14877024Y-12760571D01*
X14877024Y-12760571D02*
X14872262Y-12770095D01*
X14872262Y-12770095D02*
X14872262Y-12793905D01*
X14872262Y-12793905D02*
X14877024Y-12803428D01*
X14877024Y-12803428D02*
X14881786Y-12808190D01*
X14881786Y-12808190D02*
X14891309Y-12812952D01*
X14891309Y-12812952D02*
X14900833Y-12812952D01*
X14900833Y-12812952D02*
X14915119Y-12808190D01*
X14915119Y-12808190D02*
X14972262Y-12751048D01*
X14972262Y-12751048D02*
X14972262Y-12812952D01*
X14872262Y-12874857D02*
X14872262Y-12884381D01*
X14872262Y-12884381D02*
X14877024Y-12893905D01*
X14877024Y-12893905D02*
X14881786Y-12898667D01*
X14881786Y-12898667D02*
X14891309Y-12903428D01*
X14891309Y-12903428D02*
X14910357Y-12908190D01*
X14910357Y-12908190D02*
X14934167Y-12908190D01*
X14934167Y-12908190D02*
X14953214Y-12903428D01*
X14953214Y-12903428D02*
X14962738Y-12898667D01*
X14962738Y-12898667D02*
X14967500Y-12893905D01*
X14967500Y-12893905D02*
X14972262Y-12884381D01*
X14972262Y-12884381D02*
X14972262Y-12874857D01*
X14972262Y-12874857D02*
X14967500Y-12865333D01*
X14967500Y-12865333D02*
X14962738Y-12860571D01*
X14962738Y-12860571D02*
X14953214Y-12855809D01*
X14953214Y-12855809D02*
X14934167Y-12851048D01*
X14934167Y-12851048D02*
X14910357Y-12851048D01*
X14910357Y-12851048D02*
X14891309Y-12855809D01*
X14891309Y-12855809D02*
X14881786Y-12860571D01*
X14881786Y-12860571D02*
X14877024Y-12865333D01*
X14877024Y-12865333D02*
X14872262Y-12874857D01*
%TO.C,C24*%
X14104238Y-11227214D02*
X14109000Y-11222452D01*
X14109000Y-11222452D02*
X14113762Y-11208167D01*
X14113762Y-11208167D02*
X14113762Y-11198643D01*
X14113762Y-11198643D02*
X14109000Y-11184357D01*
X14109000Y-11184357D02*
X14099476Y-11174833D01*
X14099476Y-11174833D02*
X14089952Y-11170071D01*
X14089952Y-11170071D02*
X14070905Y-11165310D01*
X14070905Y-11165310D02*
X14056619Y-11165310D01*
X14056619Y-11165310D02*
X14037571Y-11170071D01*
X14037571Y-11170071D02*
X14028048Y-11174833D01*
X14028048Y-11174833D02*
X14018524Y-11184357D01*
X14018524Y-11184357D02*
X14013762Y-11198643D01*
X14013762Y-11198643D02*
X14013762Y-11208167D01*
X14013762Y-11208167D02*
X14018524Y-11222452D01*
X14018524Y-11222452D02*
X14023286Y-11227214D01*
X14023286Y-11265309D02*
X14018524Y-11270071D01*
X14018524Y-11270071D02*
X14013762Y-11279595D01*
X14013762Y-11279595D02*
X14013762Y-11303405D01*
X14013762Y-11303405D02*
X14018524Y-11312928D01*
X14018524Y-11312928D02*
X14023286Y-11317690D01*
X14023286Y-11317690D02*
X14032809Y-11322452D01*
X14032809Y-11322452D02*
X14042333Y-11322452D01*
X14042333Y-11322452D02*
X14056619Y-11317690D01*
X14056619Y-11317690D02*
X14113762Y-11260548D01*
X14113762Y-11260548D02*
X14113762Y-11322452D01*
X14047095Y-11408167D02*
X14113762Y-11408167D01*
X14009000Y-11384357D02*
X14080428Y-11360548D01*
X14080428Y-11360548D02*
X14080428Y-11422452D01*
%TO.C,C13*%
X13334286Y-10441738D02*
X13339048Y-10446500D01*
X13339048Y-10446500D02*
X13353333Y-10451262D01*
X13353333Y-10451262D02*
X13362857Y-10451262D01*
X13362857Y-10451262D02*
X13377143Y-10446500D01*
X13377143Y-10446500D02*
X13386667Y-10436976D01*
X13386667Y-10436976D02*
X13391428Y-10427452D01*
X13391428Y-10427452D02*
X13396190Y-10408405D01*
X13396190Y-10408405D02*
X13396190Y-10394119D01*
X13396190Y-10394119D02*
X13391428Y-10375071D01*
X13391428Y-10375071D02*
X13386667Y-10365548D01*
X13386667Y-10365548D02*
X13377143Y-10356024D01*
X13377143Y-10356024D02*
X13362857Y-10351262D01*
X13362857Y-10351262D02*
X13353333Y-10351262D01*
X13353333Y-10351262D02*
X13339048Y-10356024D01*
X13339048Y-10356024D02*
X13334286Y-10360786D01*
X13239048Y-10451262D02*
X13296190Y-10451262D01*
X13267619Y-10451262D02*
X13267619Y-10351262D01*
X13267619Y-10351262D02*
X13277143Y-10365548D01*
X13277143Y-10365548D02*
X13286667Y-10375071D01*
X13286667Y-10375071D02*
X13296190Y-10379833D01*
X13205714Y-10351262D02*
X13143809Y-10351262D01*
X13143809Y-10351262D02*
X13177143Y-10389357D01*
X13177143Y-10389357D02*
X13162857Y-10389357D01*
X13162857Y-10389357D02*
X13153333Y-10394119D01*
X13153333Y-10394119D02*
X13148571Y-10398881D01*
X13148571Y-10398881D02*
X13143809Y-10408405D01*
X13143809Y-10408405D02*
X13143809Y-10432214D01*
X13143809Y-10432214D02*
X13148571Y-10441738D01*
X13148571Y-10441738D02*
X13153333Y-10446500D01*
X13153333Y-10446500D02*
X13162857Y-10451262D01*
X13162857Y-10451262D02*
X13191428Y-10451262D01*
X13191428Y-10451262D02*
X13200952Y-10446500D01*
X13200952Y-10446500D02*
X13205714Y-10441738D01*
%TO.C,R3*%
X15864167Y-9586262D02*
X15897500Y-9538643D01*
X15921309Y-9586262D02*
X15921309Y-9486262D01*
X15921309Y-9486262D02*
X15883214Y-9486262D01*
X15883214Y-9486262D02*
X15873690Y-9491024D01*
X15873690Y-9491024D02*
X15868928Y-9495786D01*
X15868928Y-9495786D02*
X15864167Y-9505310D01*
X15864167Y-9505310D02*
X15864167Y-9519595D01*
X15864167Y-9519595D02*
X15868928Y-9529119D01*
X15868928Y-9529119D02*
X15873690Y-9533881D01*
X15873690Y-9533881D02*
X15883214Y-9538643D01*
X15883214Y-9538643D02*
X15921309Y-9538643D01*
X15830833Y-9486262D02*
X15768928Y-9486262D01*
X15768928Y-9486262D02*
X15802262Y-9524357D01*
X15802262Y-9524357D02*
X15787976Y-9524357D01*
X15787976Y-9524357D02*
X15778452Y-9529119D01*
X15778452Y-9529119D02*
X15773690Y-9533881D01*
X15773690Y-9533881D02*
X15768928Y-9543405D01*
X15768928Y-9543405D02*
X15768928Y-9567214D01*
X15768928Y-9567214D02*
X15773690Y-9576738D01*
X15773690Y-9576738D02*
X15778452Y-9581500D01*
X15778452Y-9581500D02*
X15787976Y-9586262D01*
X15787976Y-9586262D02*
X15816547Y-9586262D01*
X15816547Y-9586262D02*
X15826071Y-9581500D01*
X15826071Y-9581500D02*
X15830833Y-9576738D01*
%TO.C,R22*%
X14616262Y-12308714D02*
X14568643Y-12275381D01*
X14616262Y-12251571D02*
X14516262Y-12251571D01*
X14516262Y-12251571D02*
X14516262Y-12289667D01*
X14516262Y-12289667D02*
X14521024Y-12299190D01*
X14521024Y-12299190D02*
X14525786Y-12303952D01*
X14525786Y-12303952D02*
X14535309Y-12308714D01*
X14535309Y-12308714D02*
X14549595Y-12308714D01*
X14549595Y-12308714D02*
X14559119Y-12303952D01*
X14559119Y-12303952D02*
X14563881Y-12299190D01*
X14563881Y-12299190D02*
X14568643Y-12289667D01*
X14568643Y-12289667D02*
X14568643Y-12251571D01*
X14525786Y-12346809D02*
X14521024Y-12351571D01*
X14521024Y-12351571D02*
X14516262Y-12361095D01*
X14516262Y-12361095D02*
X14516262Y-12384905D01*
X14516262Y-12384905D02*
X14521024Y-12394428D01*
X14521024Y-12394428D02*
X14525786Y-12399190D01*
X14525786Y-12399190D02*
X14535309Y-12403952D01*
X14535309Y-12403952D02*
X14544833Y-12403952D01*
X14544833Y-12403952D02*
X14559119Y-12399190D01*
X14559119Y-12399190D02*
X14616262Y-12342048D01*
X14616262Y-12342048D02*
X14616262Y-12403952D01*
X14525786Y-12442048D02*
X14521024Y-12446809D01*
X14521024Y-12446809D02*
X14516262Y-12456333D01*
X14516262Y-12456333D02*
X14516262Y-12480143D01*
X14516262Y-12480143D02*
X14521024Y-12489667D01*
X14521024Y-12489667D02*
X14525786Y-12494428D01*
X14525786Y-12494428D02*
X14535309Y-12499190D01*
X14535309Y-12499190D02*
X14544833Y-12499190D01*
X14544833Y-12499190D02*
X14559119Y-12494428D01*
X14559119Y-12494428D02*
X14616262Y-12437286D01*
X14616262Y-12437286D02*
X14616262Y-12499190D01*
%TO.C,R5*%
X14264167Y-9753762D02*
X14297500Y-9706143D01*
X14321309Y-9753762D02*
X14321309Y-9653762D01*
X14321309Y-9653762D02*
X14283214Y-9653762D01*
X14283214Y-9653762D02*
X14273690Y-9658524D01*
X14273690Y-9658524D02*
X14268928Y-9663286D01*
X14268928Y-9663286D02*
X14264167Y-9672810D01*
X14264167Y-9672810D02*
X14264167Y-9687095D01*
X14264167Y-9687095D02*
X14268928Y-9696619D01*
X14268928Y-9696619D02*
X14273690Y-9701381D01*
X14273690Y-9701381D02*
X14283214Y-9706143D01*
X14283214Y-9706143D02*
X14321309Y-9706143D01*
X14173690Y-9653762D02*
X14221309Y-9653762D01*
X14221309Y-9653762D02*
X14226071Y-9701381D01*
X14226071Y-9701381D02*
X14221309Y-9696619D01*
X14221309Y-9696619D02*
X14211786Y-9691857D01*
X14211786Y-9691857D02*
X14187976Y-9691857D01*
X14187976Y-9691857D02*
X14178452Y-9696619D01*
X14178452Y-9696619D02*
X14173690Y-9701381D01*
X14173690Y-9701381D02*
X14168928Y-9710905D01*
X14168928Y-9710905D02*
X14168928Y-9734714D01*
X14168928Y-9734714D02*
X14173690Y-9744238D01*
X14173690Y-9744238D02*
X14178452Y-9749000D01*
X14178452Y-9749000D02*
X14187976Y-9753762D01*
X14187976Y-9753762D02*
X14211786Y-9753762D01*
X14211786Y-9753762D02*
X14221309Y-9749000D01*
X14221309Y-9749000D02*
X14226071Y-9744238D01*
%TO.C,R10*%
X15199286Y-8538762D02*
X15232619Y-8491143D01*
X15256428Y-8538762D02*
X15256428Y-8438762D01*
X15256428Y-8438762D02*
X15218333Y-8438762D01*
X15218333Y-8438762D02*
X15208809Y-8443524D01*
X15208809Y-8443524D02*
X15204048Y-8448286D01*
X15204048Y-8448286D02*
X15199286Y-8457810D01*
X15199286Y-8457810D02*
X15199286Y-8472095D01*
X15199286Y-8472095D02*
X15204048Y-8481619D01*
X15204048Y-8481619D02*
X15208809Y-8486381D01*
X15208809Y-8486381D02*
X15218333Y-8491143D01*
X15218333Y-8491143D02*
X15256428Y-8491143D01*
X15104048Y-8538762D02*
X15161190Y-8538762D01*
X15132619Y-8538762D02*
X15132619Y-8438762D01*
X15132619Y-8438762D02*
X15142143Y-8453048D01*
X15142143Y-8453048D02*
X15151667Y-8462571D01*
X15151667Y-8462571D02*
X15161190Y-8467333D01*
X15042143Y-8438762D02*
X15032619Y-8438762D01*
X15032619Y-8438762D02*
X15023095Y-8443524D01*
X15023095Y-8443524D02*
X15018333Y-8448286D01*
X15018333Y-8448286D02*
X15013571Y-8457810D01*
X15013571Y-8457810D02*
X15008809Y-8476857D01*
X15008809Y-8476857D02*
X15008809Y-8500667D01*
X15008809Y-8500667D02*
X15013571Y-8519714D01*
X15013571Y-8519714D02*
X15018333Y-8529238D01*
X15018333Y-8529238D02*
X15023095Y-8534000D01*
X15023095Y-8534000D02*
X15032619Y-8538762D01*
X15032619Y-8538762D02*
X15042143Y-8538762D01*
X15042143Y-8538762D02*
X15051667Y-8534000D01*
X15051667Y-8534000D02*
X15056428Y-8529238D01*
X15056428Y-8529238D02*
X15061190Y-8519714D01*
X15061190Y-8519714D02*
X15065952Y-8500667D01*
X15065952Y-8500667D02*
X15065952Y-8476857D01*
X15065952Y-8476857D02*
X15061190Y-8457810D01*
X15061190Y-8457810D02*
X15056428Y-8448286D01*
X15056428Y-8448286D02*
X15051667Y-8443524D01*
X15051667Y-8443524D02*
X15042143Y-8438762D01*
%TO.C,U6*%
X13761262Y-9881310D02*
X13842214Y-9881310D01*
X13842214Y-9881310D02*
X13851738Y-9886071D01*
X13851738Y-9886071D02*
X13856500Y-9890833D01*
X13856500Y-9890833D02*
X13861262Y-9900357D01*
X13861262Y-9900357D02*
X13861262Y-9919405D01*
X13861262Y-9919405D02*
X13856500Y-9928929D01*
X13856500Y-9928929D02*
X13851738Y-9933690D01*
X13851738Y-9933690D02*
X13842214Y-9938452D01*
X13842214Y-9938452D02*
X13761262Y-9938452D01*
X13761262Y-10028929D02*
X13761262Y-10009881D01*
X13761262Y-10009881D02*
X13766024Y-10000357D01*
X13766024Y-10000357D02*
X13770786Y-9995595D01*
X13770786Y-9995595D02*
X13785071Y-9986071D01*
X13785071Y-9986071D02*
X13804119Y-9981310D01*
X13804119Y-9981310D02*
X13842214Y-9981310D01*
X13842214Y-9981310D02*
X13851738Y-9986071D01*
X13851738Y-9986071D02*
X13856500Y-9990833D01*
X13856500Y-9990833D02*
X13861262Y-10000357D01*
X13861262Y-10000357D02*
X13861262Y-10019405D01*
X13861262Y-10019405D02*
X13856500Y-10028929D01*
X13856500Y-10028929D02*
X13851738Y-10033690D01*
X13851738Y-10033690D02*
X13842214Y-10038452D01*
X13842214Y-10038452D02*
X13818405Y-10038452D01*
X13818405Y-10038452D02*
X13808881Y-10033690D01*
X13808881Y-10033690D02*
X13804119Y-10028929D01*
X13804119Y-10028929D02*
X13799357Y-10019405D01*
X13799357Y-10019405D02*
X13799357Y-10000357D01*
X13799357Y-10000357D02*
X13804119Y-9990833D01*
X13804119Y-9990833D02*
X13808881Y-9986071D01*
X13808881Y-9986071D02*
X13818405Y-9981310D01*
%TO.C,R2*%
X15861667Y-9451262D02*
X15895000Y-9403643D01*
X15918809Y-9451262D02*
X15918809Y-9351262D01*
X15918809Y-9351262D02*
X15880714Y-9351262D01*
X15880714Y-9351262D02*
X15871190Y-9356024D01*
X15871190Y-9356024D02*
X15866428Y-9360786D01*
X15866428Y-9360786D02*
X15861667Y-9370310D01*
X15861667Y-9370310D02*
X15861667Y-9384595D01*
X15861667Y-9384595D02*
X15866428Y-9394119D01*
X15866428Y-9394119D02*
X15871190Y-9398881D01*
X15871190Y-9398881D02*
X15880714Y-9403643D01*
X15880714Y-9403643D02*
X15918809Y-9403643D01*
X15823571Y-9360786D02*
X15818809Y-9356024D01*
X15818809Y-9356024D02*
X15809286Y-9351262D01*
X15809286Y-9351262D02*
X15785476Y-9351262D01*
X15785476Y-9351262D02*
X15775952Y-9356024D01*
X15775952Y-9356024D02*
X15771190Y-9360786D01*
X15771190Y-9360786D02*
X15766428Y-9370310D01*
X15766428Y-9370310D02*
X15766428Y-9379833D01*
X15766428Y-9379833D02*
X15771190Y-9394119D01*
X15771190Y-9394119D02*
X15828333Y-9451262D01*
X15828333Y-9451262D02*
X15766428Y-9451262D01*
%TO.C,R9*%
X15191667Y-8321262D02*
X15225000Y-8273643D01*
X15248809Y-8321262D02*
X15248809Y-8221262D01*
X15248809Y-8221262D02*
X15210714Y-8221262D01*
X15210714Y-8221262D02*
X15201190Y-8226024D01*
X15201190Y-8226024D02*
X15196428Y-8230786D01*
X15196428Y-8230786D02*
X15191667Y-8240309D01*
X15191667Y-8240309D02*
X15191667Y-8254595D01*
X15191667Y-8254595D02*
X15196428Y-8264119D01*
X15196428Y-8264119D02*
X15201190Y-8268881D01*
X15201190Y-8268881D02*
X15210714Y-8273643D01*
X15210714Y-8273643D02*
X15248809Y-8273643D01*
X15144047Y-8321262D02*
X15125000Y-8321262D01*
X15125000Y-8321262D02*
X15115476Y-8316500D01*
X15115476Y-8316500D02*
X15110714Y-8311738D01*
X15110714Y-8311738D02*
X15101190Y-8297452D01*
X15101190Y-8297452D02*
X15096428Y-8278405D01*
X15096428Y-8278405D02*
X15096428Y-8240309D01*
X15096428Y-8240309D02*
X15101190Y-8230786D01*
X15101190Y-8230786D02*
X15105952Y-8226024D01*
X15105952Y-8226024D02*
X15115476Y-8221262D01*
X15115476Y-8221262D02*
X15134524Y-8221262D01*
X15134524Y-8221262D02*
X15144047Y-8226024D01*
X15144047Y-8226024D02*
X15148809Y-8230786D01*
X15148809Y-8230786D02*
X15153571Y-8240309D01*
X15153571Y-8240309D02*
X15153571Y-8264119D01*
X15153571Y-8264119D02*
X15148809Y-8273643D01*
X15148809Y-8273643D02*
X15144047Y-8278405D01*
X15144047Y-8278405D02*
X15134524Y-8283167D01*
X15134524Y-8283167D02*
X15115476Y-8283167D01*
X15115476Y-8283167D02*
X15105952Y-8278405D01*
X15105952Y-8278405D02*
X15101190Y-8273643D01*
X15101190Y-8273643D02*
X15096428Y-8264119D01*
%TO.C,R12*%
X16701786Y-9816262D02*
X16735119Y-9768643D01*
X16758928Y-9816262D02*
X16758928Y-9716262D01*
X16758928Y-9716262D02*
X16720833Y-9716262D01*
X16720833Y-9716262D02*
X16711309Y-9721024D01*
X16711309Y-9721024D02*
X16706548Y-9725786D01*
X16706548Y-9725786D02*
X16701786Y-9735310D01*
X16701786Y-9735310D02*
X16701786Y-9749595D01*
X16701786Y-9749595D02*
X16706548Y-9759119D01*
X16706548Y-9759119D02*
X16711309Y-9763881D01*
X16711309Y-9763881D02*
X16720833Y-9768643D01*
X16720833Y-9768643D02*
X16758928Y-9768643D01*
X16606548Y-9816262D02*
X16663690Y-9816262D01*
X16635119Y-9816262D02*
X16635119Y-9716262D01*
X16635119Y-9716262D02*
X16644643Y-9730548D01*
X16644643Y-9730548D02*
X16654167Y-9740071D01*
X16654167Y-9740071D02*
X16663690Y-9744833D01*
X16568452Y-9725786D02*
X16563690Y-9721024D01*
X16563690Y-9721024D02*
X16554167Y-9716262D01*
X16554167Y-9716262D02*
X16530357Y-9716262D01*
X16530357Y-9716262D02*
X16520833Y-9721024D01*
X16520833Y-9721024D02*
X16516071Y-9725786D01*
X16516071Y-9725786D02*
X16511309Y-9735310D01*
X16511309Y-9735310D02*
X16511309Y-9744833D01*
X16511309Y-9744833D02*
X16516071Y-9759119D01*
X16516071Y-9759119D02*
X16573214Y-9816262D01*
X16573214Y-9816262D02*
X16511309Y-9816262D01*
%TO.C,C15*%
X15169286Y-10831738D02*
X15174048Y-10836500D01*
X15174048Y-10836500D02*
X15188333Y-10841262D01*
X15188333Y-10841262D02*
X15197857Y-10841262D01*
X15197857Y-10841262D02*
X15212143Y-10836500D01*
X15212143Y-10836500D02*
X15221667Y-10826976D01*
X15221667Y-10826976D02*
X15226428Y-10817452D01*
X15226428Y-10817452D02*
X15231190Y-10798405D01*
X15231190Y-10798405D02*
X15231190Y-10784119D01*
X15231190Y-10784119D02*
X15226428Y-10765071D01*
X15226428Y-10765071D02*
X15221667Y-10755548D01*
X15221667Y-10755548D02*
X15212143Y-10746024D01*
X15212143Y-10746024D02*
X15197857Y-10741262D01*
X15197857Y-10741262D02*
X15188333Y-10741262D01*
X15188333Y-10741262D02*
X15174048Y-10746024D01*
X15174048Y-10746024D02*
X15169286Y-10750786D01*
X15074048Y-10841262D02*
X15131190Y-10841262D01*
X15102619Y-10841262D02*
X15102619Y-10741262D01*
X15102619Y-10741262D02*
X15112143Y-10755548D01*
X15112143Y-10755548D02*
X15121667Y-10765071D01*
X15121667Y-10765071D02*
X15131190Y-10769833D01*
X14983571Y-10741262D02*
X15031190Y-10741262D01*
X15031190Y-10741262D02*
X15035952Y-10788881D01*
X15035952Y-10788881D02*
X15031190Y-10784119D01*
X15031190Y-10784119D02*
X15021667Y-10779357D01*
X15021667Y-10779357D02*
X14997857Y-10779357D01*
X14997857Y-10779357D02*
X14988333Y-10784119D01*
X14988333Y-10784119D02*
X14983571Y-10788881D01*
X14983571Y-10788881D02*
X14978809Y-10798405D01*
X14978809Y-10798405D02*
X14978809Y-10822214D01*
X14978809Y-10822214D02*
X14983571Y-10831738D01*
X14983571Y-10831738D02*
X14988333Y-10836500D01*
X14988333Y-10836500D02*
X14997857Y-10841262D01*
X14997857Y-10841262D02*
X15021667Y-10841262D01*
X15021667Y-10841262D02*
X15031190Y-10836500D01*
X15031190Y-10836500D02*
X15035952Y-10831738D01*
%TO.C,C23*%
X14666738Y-11209714D02*
X14671500Y-11204952D01*
X14671500Y-11204952D02*
X14676262Y-11190667D01*
X14676262Y-11190667D02*
X14676262Y-11181143D01*
X14676262Y-11181143D02*
X14671500Y-11166857D01*
X14671500Y-11166857D02*
X14661976Y-11157333D01*
X14661976Y-11157333D02*
X14652452Y-11152571D01*
X14652452Y-11152571D02*
X14633405Y-11147810D01*
X14633405Y-11147810D02*
X14619119Y-11147810D01*
X14619119Y-11147810D02*
X14600071Y-11152571D01*
X14600071Y-11152571D02*
X14590548Y-11157333D01*
X14590548Y-11157333D02*
X14581024Y-11166857D01*
X14581024Y-11166857D02*
X14576262Y-11181143D01*
X14576262Y-11181143D02*
X14576262Y-11190667D01*
X14576262Y-11190667D02*
X14581024Y-11204952D01*
X14581024Y-11204952D02*
X14585786Y-11209714D01*
X14585786Y-11247809D02*
X14581024Y-11252571D01*
X14581024Y-11252571D02*
X14576262Y-11262095D01*
X14576262Y-11262095D02*
X14576262Y-11285905D01*
X14576262Y-11285905D02*
X14581024Y-11295428D01*
X14581024Y-11295428D02*
X14585786Y-11300190D01*
X14585786Y-11300190D02*
X14595309Y-11304952D01*
X14595309Y-11304952D02*
X14604833Y-11304952D01*
X14604833Y-11304952D02*
X14619119Y-11300190D01*
X14619119Y-11300190D02*
X14676262Y-11243048D01*
X14676262Y-11243048D02*
X14676262Y-11304952D01*
X14576262Y-11338286D02*
X14576262Y-11400190D01*
X14576262Y-11400190D02*
X14614357Y-11366857D01*
X14614357Y-11366857D02*
X14614357Y-11381143D01*
X14614357Y-11381143D02*
X14619119Y-11390667D01*
X14619119Y-11390667D02*
X14623881Y-11395428D01*
X14623881Y-11395428D02*
X14633405Y-11400190D01*
X14633405Y-11400190D02*
X14657214Y-11400190D01*
X14657214Y-11400190D02*
X14666738Y-11395428D01*
X14666738Y-11395428D02*
X14671500Y-11390667D01*
X14671500Y-11390667D02*
X14676262Y-11381143D01*
X14676262Y-11381143D02*
X14676262Y-11352571D01*
X14676262Y-11352571D02*
X14671500Y-11343048D01*
X14671500Y-11343048D02*
X14666738Y-11338286D01*
%TO.C,C3*%
X13051738Y-13490833D02*
X13056500Y-13486071D01*
X13056500Y-13486071D02*
X13061262Y-13471786D01*
X13061262Y-13471786D02*
X13061262Y-13462262D01*
X13061262Y-13462262D02*
X13056500Y-13447976D01*
X13056500Y-13447976D02*
X13046976Y-13438452D01*
X13046976Y-13438452D02*
X13037452Y-13433690D01*
X13037452Y-13433690D02*
X13018405Y-13428929D01*
X13018405Y-13428929D02*
X13004119Y-13428929D01*
X13004119Y-13428929D02*
X12985071Y-13433690D01*
X12985071Y-13433690D02*
X12975548Y-13438452D01*
X12975548Y-13438452D02*
X12966024Y-13447976D01*
X12966024Y-13447976D02*
X12961262Y-13462262D01*
X12961262Y-13462262D02*
X12961262Y-13471786D01*
X12961262Y-13471786D02*
X12966024Y-13486071D01*
X12966024Y-13486071D02*
X12970786Y-13490833D01*
X12961262Y-13524167D02*
X12961262Y-13586071D01*
X12961262Y-13586071D02*
X12999357Y-13552738D01*
X12999357Y-13552738D02*
X12999357Y-13567024D01*
X12999357Y-13567024D02*
X13004119Y-13576548D01*
X13004119Y-13576548D02*
X13008881Y-13581309D01*
X13008881Y-13581309D02*
X13018405Y-13586071D01*
X13018405Y-13586071D02*
X13042214Y-13586071D01*
X13042214Y-13586071D02*
X13051738Y-13581309D01*
X13051738Y-13581309D02*
X13056500Y-13576548D01*
X13056500Y-13576548D02*
X13061262Y-13567024D01*
X13061262Y-13567024D02*
X13061262Y-13538452D01*
X13061262Y-13538452D02*
X13056500Y-13528929D01*
X13056500Y-13528929D02*
X13051738Y-13524167D01*
%TO.C,R16*%
X16184262Y-13056714D02*
X16136643Y-13023381D01*
X16184262Y-12999571D02*
X16084262Y-12999571D01*
X16084262Y-12999571D02*
X16084262Y-13037667D01*
X16084262Y-13037667D02*
X16089024Y-13047190D01*
X16089024Y-13047190D02*
X16093786Y-13051952D01*
X16093786Y-13051952D02*
X16103309Y-13056714D01*
X16103309Y-13056714D02*
X16117595Y-13056714D01*
X16117595Y-13056714D02*
X16127119Y-13051952D01*
X16127119Y-13051952D02*
X16131881Y-13047190D01*
X16131881Y-13047190D02*
X16136643Y-13037667D01*
X16136643Y-13037667D02*
X16136643Y-12999571D01*
X16184262Y-13151952D02*
X16184262Y-13094809D01*
X16184262Y-13123381D02*
X16084262Y-13123381D01*
X16084262Y-13123381D02*
X16098548Y-13113857D01*
X16098548Y-13113857D02*
X16108071Y-13104333D01*
X16108071Y-13104333D02*
X16112833Y-13094809D01*
X16084262Y-13237667D02*
X16084262Y-13218619D01*
X16084262Y-13218619D02*
X16089024Y-13209095D01*
X16089024Y-13209095D02*
X16093786Y-13204333D01*
X16093786Y-13204333D02*
X16108071Y-13194809D01*
X16108071Y-13194809D02*
X16127119Y-13190048D01*
X16127119Y-13190048D02*
X16165214Y-13190048D01*
X16165214Y-13190048D02*
X16174738Y-13194809D01*
X16174738Y-13194809D02*
X16179500Y-13199571D01*
X16179500Y-13199571D02*
X16184262Y-13209095D01*
X16184262Y-13209095D02*
X16184262Y-13228143D01*
X16184262Y-13228143D02*
X16179500Y-13237667D01*
X16179500Y-13237667D02*
X16174738Y-13242428D01*
X16174738Y-13242428D02*
X16165214Y-13247190D01*
X16165214Y-13247190D02*
X16141405Y-13247190D01*
X16141405Y-13247190D02*
X16131881Y-13242428D01*
X16131881Y-13242428D02*
X16127119Y-13237667D01*
X16127119Y-13237667D02*
X16122357Y-13228143D01*
X16122357Y-13228143D02*
X16122357Y-13209095D01*
X16122357Y-13209095D02*
X16127119Y-13199571D01*
X16127119Y-13199571D02*
X16131881Y-13194809D01*
X16131881Y-13194809D02*
X16141405Y-13190048D01*
%TO.C,R7*%
X13643262Y-10911333D02*
X13595643Y-10878000D01*
X13643262Y-10854191D02*
X13543262Y-10854191D01*
X13543262Y-10854191D02*
X13543262Y-10892286D01*
X13543262Y-10892286D02*
X13548024Y-10901810D01*
X13548024Y-10901810D02*
X13552786Y-10906571D01*
X13552786Y-10906571D02*
X13562309Y-10911333D01*
X13562309Y-10911333D02*
X13576595Y-10911333D01*
X13576595Y-10911333D02*
X13586119Y-10906571D01*
X13586119Y-10906571D02*
X13590881Y-10901810D01*
X13590881Y-10901810D02*
X13595643Y-10892286D01*
X13595643Y-10892286D02*
X13595643Y-10854191D01*
X13543262Y-10944667D02*
X13543262Y-11011333D01*
X13543262Y-11011333D02*
X13643262Y-10968476D01*
%TO.C,R18*%
X15886262Y-12332714D02*
X15838643Y-12299381D01*
X15886262Y-12275571D02*
X15786262Y-12275571D01*
X15786262Y-12275571D02*
X15786262Y-12313667D01*
X15786262Y-12313667D02*
X15791024Y-12323190D01*
X15791024Y-12323190D02*
X15795786Y-12327952D01*
X15795786Y-12327952D02*
X15805309Y-12332714D01*
X15805309Y-12332714D02*
X15819595Y-12332714D01*
X15819595Y-12332714D02*
X15829119Y-12327952D01*
X15829119Y-12327952D02*
X15833881Y-12323190D01*
X15833881Y-12323190D02*
X15838643Y-12313667D01*
X15838643Y-12313667D02*
X15838643Y-12275571D01*
X15886262Y-12427952D02*
X15886262Y-12370809D01*
X15886262Y-12399381D02*
X15786262Y-12399381D01*
X15786262Y-12399381D02*
X15800548Y-12389857D01*
X15800548Y-12389857D02*
X15810071Y-12380333D01*
X15810071Y-12380333D02*
X15814833Y-12370809D01*
X15829119Y-12485095D02*
X15824357Y-12475571D01*
X15824357Y-12475571D02*
X15819595Y-12470809D01*
X15819595Y-12470809D02*
X15810071Y-12466048D01*
X15810071Y-12466048D02*
X15805309Y-12466048D01*
X15805309Y-12466048D02*
X15795786Y-12470809D01*
X15795786Y-12470809D02*
X15791024Y-12475571D01*
X15791024Y-12475571D02*
X15786262Y-12485095D01*
X15786262Y-12485095D02*
X15786262Y-12504143D01*
X15786262Y-12504143D02*
X15791024Y-12513667D01*
X15791024Y-12513667D02*
X15795786Y-12518428D01*
X15795786Y-12518428D02*
X15805309Y-12523190D01*
X15805309Y-12523190D02*
X15810071Y-12523190D01*
X15810071Y-12523190D02*
X15819595Y-12518428D01*
X15819595Y-12518428D02*
X15824357Y-12513667D01*
X15824357Y-12513667D02*
X15829119Y-12504143D01*
X15829119Y-12504143D02*
X15829119Y-12485095D01*
X15829119Y-12485095D02*
X15833881Y-12475571D01*
X15833881Y-12475571D02*
X15838643Y-12470809D01*
X15838643Y-12470809D02*
X15848167Y-12466048D01*
X15848167Y-12466048D02*
X15867214Y-12466048D01*
X15867214Y-12466048D02*
X15876738Y-12470809D01*
X15876738Y-12470809D02*
X15881500Y-12475571D01*
X15881500Y-12475571D02*
X15886262Y-12485095D01*
X15886262Y-12485095D02*
X15886262Y-12504143D01*
X15886262Y-12504143D02*
X15881500Y-12513667D01*
X15881500Y-12513667D02*
X15876738Y-12518428D01*
X15876738Y-12518428D02*
X15867214Y-12523190D01*
X15867214Y-12523190D02*
X15848167Y-12523190D01*
X15848167Y-12523190D02*
X15838643Y-12518428D01*
X15838643Y-12518428D02*
X15833881Y-12513667D01*
X15833881Y-12513667D02*
X15829119Y-12504143D01*
%TO.C,U3*%
X14026262Y-8911310D02*
X14107214Y-8911310D01*
X14107214Y-8911310D02*
X14116738Y-8916071D01*
X14116738Y-8916071D02*
X14121500Y-8920833D01*
X14121500Y-8920833D02*
X14126262Y-8930357D01*
X14126262Y-8930357D02*
X14126262Y-8949405D01*
X14126262Y-8949405D02*
X14121500Y-8958929D01*
X14121500Y-8958929D02*
X14116738Y-8963690D01*
X14116738Y-8963690D02*
X14107214Y-8968452D01*
X14107214Y-8968452D02*
X14026262Y-8968452D01*
X14026262Y-9006548D02*
X14026262Y-9068452D01*
X14026262Y-9068452D02*
X14064357Y-9035119D01*
X14064357Y-9035119D02*
X14064357Y-9049405D01*
X14064357Y-9049405D02*
X14069119Y-9058929D01*
X14069119Y-9058929D02*
X14073881Y-9063690D01*
X14073881Y-9063690D02*
X14083405Y-9068452D01*
X14083405Y-9068452D02*
X14107214Y-9068452D01*
X14107214Y-9068452D02*
X14116738Y-9063690D01*
X14116738Y-9063690D02*
X14121500Y-9058929D01*
X14121500Y-9058929D02*
X14126262Y-9049405D01*
X14126262Y-9049405D02*
X14126262Y-9020833D01*
X14126262Y-9020833D02*
X14121500Y-9011310D01*
X14121500Y-9011310D02*
X14116738Y-9006548D01*
X14171262Y-8555595D02*
X14171262Y-8612738D01*
X14271262Y-8584167D02*
X14171262Y-8584167D01*
X14261738Y-8703214D02*
X14266500Y-8698452D01*
X14266500Y-8698452D02*
X14271262Y-8684167D01*
X14271262Y-8684167D02*
X14271262Y-8674643D01*
X14271262Y-8674643D02*
X14266500Y-8660357D01*
X14266500Y-8660357D02*
X14256976Y-8650833D01*
X14256976Y-8650833D02*
X14247452Y-8646071D01*
X14247452Y-8646071D02*
X14228405Y-8641310D01*
X14228405Y-8641310D02*
X14214119Y-8641310D01*
X14214119Y-8641310D02*
X14195071Y-8646071D01*
X14195071Y-8646071D02*
X14185548Y-8650833D01*
X14185548Y-8650833D02*
X14176024Y-8660357D01*
X14176024Y-8660357D02*
X14171262Y-8674643D01*
X14171262Y-8674643D02*
X14171262Y-8684167D01*
X14171262Y-8684167D02*
X14176024Y-8698452D01*
X14176024Y-8698452D02*
X14180786Y-8703214D01*
X14242690Y-8741310D02*
X14242690Y-8788929D01*
X14271262Y-8731786D02*
X14171262Y-8765119D01*
X14171262Y-8765119D02*
X14271262Y-8798452D01*
X14271262Y-8836548D02*
X14271262Y-8855595D01*
X14271262Y-8855595D02*
X14266500Y-8865119D01*
X14266500Y-8865119D02*
X14261738Y-8869881D01*
X14261738Y-8869881D02*
X14247452Y-8879405D01*
X14247452Y-8879405D02*
X14228405Y-8884167D01*
X14228405Y-8884167D02*
X14190309Y-8884167D01*
X14190309Y-8884167D02*
X14180786Y-8879405D01*
X14180786Y-8879405D02*
X14176024Y-8874643D01*
X14176024Y-8874643D02*
X14171262Y-8865119D01*
X14171262Y-8865119D02*
X14171262Y-8846071D01*
X14171262Y-8846071D02*
X14176024Y-8836548D01*
X14176024Y-8836548D02*
X14180786Y-8831786D01*
X14180786Y-8831786D02*
X14190309Y-8827024D01*
X14190309Y-8827024D02*
X14214119Y-8827024D01*
X14214119Y-8827024D02*
X14223643Y-8831786D01*
X14223643Y-8831786D02*
X14228405Y-8836548D01*
X14228405Y-8836548D02*
X14233167Y-8846071D01*
X14233167Y-8846071D02*
X14233167Y-8865119D01*
X14233167Y-8865119D02*
X14228405Y-8874643D01*
X14228405Y-8874643D02*
X14223643Y-8879405D01*
X14223643Y-8879405D02*
X14214119Y-8884167D01*
X14171262Y-8974643D02*
X14171262Y-8927024D01*
X14171262Y-8927024D02*
X14218881Y-8922262D01*
X14218881Y-8922262D02*
X14214119Y-8927024D01*
X14214119Y-8927024D02*
X14209357Y-8936548D01*
X14209357Y-8936548D02*
X14209357Y-8960357D01*
X14209357Y-8960357D02*
X14214119Y-8969881D01*
X14214119Y-8969881D02*
X14218881Y-8974643D01*
X14218881Y-8974643D02*
X14228405Y-8979405D01*
X14228405Y-8979405D02*
X14252214Y-8979405D01*
X14252214Y-8979405D02*
X14261738Y-8974643D01*
X14261738Y-8974643D02*
X14266500Y-8969881D01*
X14266500Y-8969881D02*
X14271262Y-8960357D01*
X14271262Y-8960357D02*
X14271262Y-8936548D01*
X14271262Y-8936548D02*
X14266500Y-8927024D01*
X14266500Y-8927024D02*
X14261738Y-8922262D01*
X14271262Y-9074643D02*
X14271262Y-9017500D01*
X14271262Y-9046071D02*
X14171262Y-9046071D01*
X14171262Y-9046071D02*
X14185548Y-9036548D01*
X14185548Y-9036548D02*
X14195071Y-9027024D01*
X14195071Y-9027024D02*
X14199833Y-9017500D01*
X14171262Y-9107976D02*
X14171262Y-9174643D01*
X14171262Y-9174643D02*
X14271262Y-9131786D01*
X14271262Y-9212738D02*
X14171262Y-9212738D01*
X14171262Y-9212738D02*
X14171262Y-9236548D01*
X14171262Y-9236548D02*
X14176024Y-9250833D01*
X14176024Y-9250833D02*
X14185548Y-9260357D01*
X14185548Y-9260357D02*
X14195071Y-9265119D01*
X14195071Y-9265119D02*
X14214119Y-9269881D01*
X14214119Y-9269881D02*
X14228405Y-9269881D01*
X14228405Y-9269881D02*
X14247452Y-9265119D01*
X14247452Y-9265119D02*
X14256976Y-9260357D01*
X14256976Y-9260357D02*
X14266500Y-9250833D01*
X14266500Y-9250833D02*
X14271262Y-9236548D01*
X14271262Y-9236548D02*
X14271262Y-9212738D01*
X14271262Y-9369881D02*
X14223643Y-9336548D01*
X14271262Y-9312738D02*
X14171262Y-9312738D01*
X14171262Y-9312738D02*
X14171262Y-9350833D01*
X14171262Y-9350833D02*
X14176024Y-9360357D01*
X14176024Y-9360357D02*
X14180786Y-9365119D01*
X14180786Y-9365119D02*
X14190309Y-9369881D01*
X14190309Y-9369881D02*
X14204595Y-9369881D01*
X14204595Y-9369881D02*
X14214119Y-9365119D01*
X14214119Y-9365119D02*
X14218881Y-9360357D01*
X14218881Y-9360357D02*
X14223643Y-9350833D01*
X14223643Y-9350833D02*
X14223643Y-9312738D01*
%TO.C,C4*%
X14967738Y-8757333D02*
X14972500Y-8752571D01*
X14972500Y-8752571D02*
X14977262Y-8738286D01*
X14977262Y-8738286D02*
X14977262Y-8728762D01*
X14977262Y-8728762D02*
X14972500Y-8714476D01*
X14972500Y-8714476D02*
X14962976Y-8704952D01*
X14962976Y-8704952D02*
X14953452Y-8700191D01*
X14953452Y-8700191D02*
X14934405Y-8695429D01*
X14934405Y-8695429D02*
X14920119Y-8695429D01*
X14920119Y-8695429D02*
X14901071Y-8700191D01*
X14901071Y-8700191D02*
X14891548Y-8704952D01*
X14891548Y-8704952D02*
X14882024Y-8714476D01*
X14882024Y-8714476D02*
X14877262Y-8728762D01*
X14877262Y-8728762D02*
X14877262Y-8738286D01*
X14877262Y-8738286D02*
X14882024Y-8752571D01*
X14882024Y-8752571D02*
X14886786Y-8757333D01*
X14910595Y-8843048D02*
X14977262Y-8843048D01*
X14872500Y-8819238D02*
X14943928Y-8795429D01*
X14943928Y-8795429D02*
X14943928Y-8857333D01*
%TO.C,R15*%
X13966262Y-14241964D02*
X13918643Y-14208631D01*
X13966262Y-14184821D02*
X13866262Y-14184821D01*
X13866262Y-14184821D02*
X13866262Y-14222917D01*
X13866262Y-14222917D02*
X13871024Y-14232440D01*
X13871024Y-14232440D02*
X13875786Y-14237202D01*
X13875786Y-14237202D02*
X13885309Y-14241964D01*
X13885309Y-14241964D02*
X13899595Y-14241964D01*
X13899595Y-14241964D02*
X13909119Y-14237202D01*
X13909119Y-14237202D02*
X13913881Y-14232440D01*
X13913881Y-14232440D02*
X13918643Y-14222917D01*
X13918643Y-14222917D02*
X13918643Y-14184821D01*
X13966262Y-14337202D02*
X13966262Y-14280059D01*
X13966262Y-14308631D02*
X13866262Y-14308631D01*
X13866262Y-14308631D02*
X13880548Y-14299107D01*
X13880548Y-14299107D02*
X13890071Y-14289583D01*
X13890071Y-14289583D02*
X13894833Y-14280059D01*
X13866262Y-14427678D02*
X13866262Y-14380059D01*
X13866262Y-14380059D02*
X13913881Y-14375298D01*
X13913881Y-14375298D02*
X13909119Y-14380059D01*
X13909119Y-14380059D02*
X13904357Y-14389583D01*
X13904357Y-14389583D02*
X13904357Y-14413393D01*
X13904357Y-14413393D02*
X13909119Y-14422917D01*
X13909119Y-14422917D02*
X13913881Y-14427678D01*
X13913881Y-14427678D02*
X13923405Y-14432440D01*
X13923405Y-14432440D02*
X13947214Y-14432440D01*
X13947214Y-14432440D02*
X13956738Y-14427678D01*
X13956738Y-14427678D02*
X13961500Y-14422917D01*
X13961500Y-14422917D02*
X13966262Y-14413393D01*
X13966262Y-14413393D02*
X13966262Y-14389583D01*
X13966262Y-14389583D02*
X13961500Y-14380059D01*
X13961500Y-14380059D02*
X13956738Y-14375298D01*
D11*
%TO.C,R13*%
X16711976Y-11058160D02*
X16566564Y-11058160D01*
X16711976Y-10876160D02*
X16566564Y-10876160D01*
%TO.C,C2*%
X13101000Y-15313625D02*
X13101000Y-15171375D01*
X13283000Y-15313625D02*
X13283000Y-15171375D01*
%TO.C,R6*%
X14647706Y-9576000D02*
X14502294Y-9576000D01*
X14647706Y-9394000D02*
X14502294Y-9394000D01*
%TO.C,C6*%
X14829000Y-10011125D02*
X14829000Y-9868875D01*
X15011000Y-10011125D02*
X15011000Y-9868875D01*
%TO.C,R19*%
X15257750Y-11184966D02*
X15257750Y-11039554D01*
X15439750Y-11184966D02*
X15439750Y-11039554D01*
%TO.C,R4*%
X15772960Y-10479924D02*
X15772960Y-10625336D01*
X15590960Y-10479924D02*
X15590960Y-10625336D01*
%TO.C,C9*%
X15155000Y-9185375D02*
X15155000Y-9327625D01*
X14973000Y-9185375D02*
X14973000Y-9327625D01*
%TO.C,R17*%
X13901000Y-10543544D02*
X13901000Y-10688956D01*
X13719000Y-10543544D02*
X13719000Y-10688956D01*
%TO.C,C10*%
X13154070Y-9835820D02*
X13296320Y-9835820D01*
X13154070Y-10017820D02*
X13296320Y-10017820D01*
%TO.C,R11*%
X16711976Y-10290660D02*
X16566564Y-10290660D01*
X16711976Y-10108660D02*
X16566564Y-10108660D01*
%TO.C,R21*%
X15025250Y-11184966D02*
X15025250Y-11039554D01*
X15207250Y-11184966D02*
X15207250Y-11039554D01*
%TO.C,R8*%
X14368956Y-14391000D02*
X14223544Y-14391000D01*
X14368956Y-14209000D02*
X14223544Y-14209000D01*
%TO.C,R1*%
X15763544Y-9604000D02*
X15908956Y-9604000D01*
X15763544Y-9786000D02*
X15908956Y-9786000D01*
%TO.C,R20*%
X14844250Y-13226456D02*
X14844250Y-13081044D01*
X15026250Y-13226456D02*
X15026250Y-13081044D01*
%TO.C,C24*%
X14323500Y-11200375D02*
X14323500Y-11342625D01*
X14141500Y-11200375D02*
X14141500Y-11342625D01*
%TO.C,C13*%
X13156375Y-10124000D02*
X13298625Y-10124000D01*
X13156375Y-10306000D02*
X13298625Y-10306000D01*
%TO.C,R3*%
X15900916Y-10294180D02*
X15755504Y-10294180D01*
X15900916Y-10112180D02*
X15755504Y-10112180D01*
%TO.C,R22*%
X14646456Y-12736000D02*
X14501044Y-12736000D01*
X14646456Y-12554000D02*
X14501044Y-12554000D01*
%TO.C,R5*%
X14646456Y-9801000D02*
X14501044Y-9801000D01*
X14646456Y-9619000D02*
X14501044Y-9619000D01*
%TO.C,R10*%
X14825206Y-8588500D02*
X14679794Y-8588500D01*
X14825206Y-8406500D02*
X14679794Y-8406500D01*
D14*
%TO.C,U6*%
X14140000Y-9861750D02*
X14140000Y-9917500D01*
X14140000Y-9861750D02*
X14555000Y-9861750D01*
X14140000Y-10709250D02*
X14027500Y-10709250D01*
X14140000Y-10756750D02*
X14140000Y-10709250D01*
X14140000Y-10756750D02*
X14555000Y-10756750D01*
X14555000Y-9861750D02*
X14555000Y-9917500D01*
X14555000Y-10756750D02*
X14555000Y-10701000D01*
D11*
%TO.C,R2*%
X15900516Y-10040180D02*
X15755104Y-10040180D01*
X15900516Y-9858180D02*
X15755104Y-9858180D01*
%TO.C,R9*%
X14823956Y-8361000D02*
X14678544Y-8361000D01*
X14823956Y-8179000D02*
X14678544Y-8179000D01*
%TO.C,R12*%
X16711976Y-10040660D02*
X16566564Y-10040660D01*
X16711976Y-9858660D02*
X16566564Y-9858660D01*
%TO.C,C15*%
X15181125Y-10716000D02*
X15038875Y-10716000D01*
X15181125Y-10534000D02*
X15038875Y-10534000D01*
%TO.C,C23*%
X14553500Y-11200375D02*
X14553500Y-11342625D01*
X14371500Y-11200375D02*
X14371500Y-11342625D01*
%TO.C,C3*%
X13291000Y-13436375D02*
X13291000Y-13578625D01*
X13109000Y-13436375D02*
X13109000Y-13578625D01*
%TO.C,R16*%
X15866500Y-13216456D02*
X15866500Y-13071044D01*
X16048500Y-13216456D02*
X16048500Y-13071044D01*
%TO.C,R7*%
X13668500Y-10546044D02*
X13668500Y-10691456D01*
X13486500Y-10546044D02*
X13486500Y-10691456D01*
%TO.C,R18*%
X15761044Y-12566260D02*
X15906456Y-12566260D01*
X15761044Y-12748260D02*
X15906456Y-12748260D01*
D15*
%TO.C,U3*%
X14278750Y-9184500D02*
X14278750Y-8794500D01*
X14783750Y-9184500D02*
X14783750Y-8794500D01*
D12*
X14771750Y-9393500D02*
G75*
G03*
X14771750Y-9393500I-10000J0D01*
G01*
D11*
%TO.C,C4*%
X15004000Y-8843625D02*
X15004000Y-8701375D01*
X15186000Y-8843625D02*
X15186000Y-8701375D01*
%TO.C,R15*%
X13824000Y-14022706D02*
X13824000Y-13877294D01*
X14006000Y-14022706D02*
X14006000Y-13877294D01*
%TD*%
D16*
X17104000Y-8143000D02*
G75*
G03*
X17104000Y-8143000I-150000J0D01*
G01*
X13102000Y-8142000D02*
G75*
G03*
X13102000Y-8142000I-150000J0D01*
G01*
X13101000Y-16038000D02*
G75*
G03*
X13101000Y-16038000I-150000J0D01*
G01*
X16965500Y-8793000D02*
X17237000Y-8793000D01*
X17237000Y-11913000D01*
X16965500Y-11913000D01*
X16965500Y-8793000D01*
X17101000Y-16037000D02*
G75*
G03*
X17101000Y-16037000I-150000J0D01*
G01*
X12496500Y-7836500D02*
X17404000Y-7836500D01*
X17404000Y-16369000D01*
X12496500Y-16369000D01*
X12496500Y-7836500D01*
D17*
%TO.C,J3*%
X12499000Y-8804000D02*
X12499000Y-9664000D01*
%TO.C,J5*%
X12498500Y-10481000D02*
X12498500Y-11341000D01*
%TD*%
M02*
