%TF.GenerationSoftware,KiCad,Pcbnew,7.0.1*%
%TF.CreationDate,2023-11-03T16:30:39+00:00*%
%TF.ProjectId,SI4735,53493437-3335-42e6-9b69-6361645f7063,rev?*%
%TF.SameCoordinates,Original*%
%TF.FileFunction,Soldermask,Top*%
%TF.FilePolarity,Negative*%
%FSLAX45Y45*%
G04 Gerber Fmt 4.5, Leading zero omitted, Abs format (unit mm)*
G04 Created by KiCad (PCBNEW 7.0.1) date 2023-11-03 16:30:39*
%MOMM*%
%LPD*%
G01*
G04 APERTURE LIST*
G04 Aperture macros list*
%AMRoundRect*
0 Rectangle with rounded corners*
0 $1 Rounding radius*
0 $2 $3 $4 $5 $6 $7 $8 $9 X,Y pos of 4 corners*
0 Add a 4 corners polygon primitive as box body*
4,1,4,$2,$3,$4,$5,$6,$7,$8,$9,$2,$3,0*
0 Add four circle primitives for the rounded corners*
1,1,$1+$1,$2,$3*
1,1,$1+$1,$4,$5*
1,1,$1+$1,$6,$7*
1,1,$1+$1,$8,$9*
0 Add four rect primitives between the rounded corners*
20,1,$1+$1,$2,$3,$4,$5,0*
20,1,$1+$1,$4,$5,$6,$7,0*
20,1,$1+$1,$6,$7,$8,$9,0*
20,1,$1+$1,$8,$9,$2,$3,0*%
G04 Aperture macros list end*
%ADD10C,1.600000*%
%ADD11O,1.600000X1.600000*%
%ADD12R,1.600000X1.600000*%
%ADD13R,1.500000X1.050000*%
%ADD14O,1.500000X1.050000*%
%ADD15R,1.700000X1.700000*%
%ADD16O,1.700000X1.700000*%
%ADD17RoundRect,0.200100X0.949900X-0.949900X0.949900X0.949900X-0.949900X0.949900X-0.949900X-0.949900X0*%
%ADD18C,2.500000*%
%ADD19C,1.700000*%
%ADD20R,2.200000X2.800000*%
%ADD21R,2.800000X2.800000*%
%ADD22R,1.200000X1.200000*%
%ADD23C,1.200000*%
%ADD24R,2.000000X1.500000*%
%ADD25R,2.000000X3.800000*%
%ADD26R,1.050000X1.500000*%
%ADD27O,1.050000X1.500000*%
%ADD28C,2.000000*%
%ADD29C,1.000000*%
%ADD30R,1.000000X1.000000*%
%ADD31RoundRect,0.250000X-0.625000X0.312500X-0.625000X-0.312500X0.625000X-0.312500X0.625000X0.312500X0*%
%ADD32R,1.676400X1.676400*%
%ADD33C,1.676400*%
%TA.AperFunction,Profile*%
%ADD34C,0.050000*%
%TD*%
%TA.AperFunction,Profile*%
%ADD35C,0.100000*%
%TD*%
G04 APERTURE END LIST*
D10*
%TO.C,L1*%
X13782500Y-9232500D03*
D11*
X13782500Y-9740500D03*
%TD*%
D12*
%TO.C,C7*%
X15266989Y-10400000D03*
D10*
X15466989Y-10400000D03*
%TD*%
D13*
%TO.C,Q3*%
X14721250Y-13134000D03*
D14*
X14721250Y-13007000D03*
X14721250Y-12880000D03*
%TD*%
D15*
%TO.C,J4*%
X14829800Y-15636210D03*
D16*
X15083800Y-15636210D03*
X15337800Y-15636210D03*
%TD*%
D12*
%TO.C,D4*%
X13807500Y-11751500D03*
D11*
X13045500Y-11751500D03*
%TD*%
D13*
%TO.C,Q2*%
X15695000Y-13116260D03*
D14*
X15695000Y-12989260D03*
X15695000Y-12862260D03*
%TD*%
D17*
%TO.C,J3*%
X12949000Y-9234000D03*
D18*
X12695000Y-9488000D03*
X13203000Y-9488000D03*
X12695000Y-8980000D03*
X13203000Y-8980000D03*
%TD*%
D15*
%TO.C,J2*%
X15337300Y-15993710D03*
D16*
X15083300Y-15993710D03*
X14829300Y-15993710D03*
%TD*%
D12*
%TO.C,U4*%
X14705480Y-14397100D03*
D11*
X14959480Y-14397100D03*
X15213480Y-14397100D03*
X15467480Y-14397100D03*
X15467480Y-13635100D03*
X15213480Y-13635100D03*
X14959480Y-13635100D03*
X14705480Y-13635100D03*
%TD*%
D10*
%TO.C,C21*%
X14865000Y-10995000D03*
X14865000Y-11245000D03*
%TD*%
D15*
%TO.C,J1*%
X16250920Y-8933180D03*
D16*
X16250920Y-9187180D03*
X16250920Y-9441180D03*
X16250920Y-9695180D03*
X16250920Y-9949180D03*
X16250920Y-10203180D03*
X16250920Y-10457180D03*
X16250920Y-10711180D03*
X16250920Y-10965180D03*
X16250920Y-11219180D03*
X16250920Y-11473180D03*
X16250920Y-11727180D03*
%TD*%
D12*
%TO.C,C16*%
X13495000Y-15715000D03*
D10*
X13495000Y-15915000D03*
%TD*%
D19*
%TO.C,J10*%
X12820000Y-12437500D03*
X13520000Y-12437500D03*
D20*
X12910000Y-12067500D03*
X12710000Y-12807500D03*
D21*
X13650000Y-12807500D03*
%TD*%
D12*
%TO.C,C1*%
X15377500Y-8375000D03*
D10*
X15377500Y-8175000D03*
%TD*%
D22*
%TO.C,C20*%
X14212500Y-13080000D03*
D23*
X14212500Y-12880000D03*
%TD*%
D22*
%TO.C,C18*%
X15487500Y-11680000D03*
D23*
X15487500Y-11480000D03*
%TD*%
D12*
%TO.C,C11*%
X16132500Y-15820000D03*
D10*
X15752500Y-15820000D03*
%TD*%
D12*
%TO.C,C12*%
X14025000Y-15819700D03*
D10*
X14405000Y-15819700D03*
%TD*%
D22*
%TO.C,C19*%
X15182500Y-13064760D03*
D23*
X15182500Y-12864760D03*
%TD*%
D22*
%TO.C,C14*%
X13887500Y-13612120D03*
D23*
X13887500Y-13412120D03*
%TD*%
D12*
%TO.C,C8*%
X15290000Y-9727000D03*
D10*
X15290000Y-9527000D03*
%TD*%
D15*
%TO.C,J7*%
X14992000Y-12120000D03*
D16*
X15246000Y-12120000D03*
X15500000Y-12120000D03*
%TD*%
D24*
%TO.C,U1*%
X14857500Y-10620000D03*
X14857500Y-10390000D03*
D25*
X14227500Y-10390000D03*
D24*
X14857500Y-10160000D03*
%TD*%
D12*
%TO.C,D3*%
X13044500Y-11499000D03*
D11*
X13806500Y-11499000D03*
%TD*%
D26*
%TO.C,Q1*%
X14400580Y-13937240D03*
D27*
X14273580Y-13937240D03*
X14146580Y-13937240D03*
%TD*%
D28*
%TO.C,L2*%
X12847500Y-10280000D03*
X12847500Y-9880000D03*
%TD*%
D10*
%TO.C,C17*%
X15582500Y-11007500D03*
X15582500Y-11257500D03*
%TD*%
D12*
%TO.C,C5*%
X15287000Y-9179511D03*
D10*
X15287000Y-8979511D03*
%TD*%
D29*
%TO.C,Y1*%
X14250000Y-10975000D03*
X14440000Y-10975000D03*
%TD*%
D12*
%TO.C,D1*%
X14064500Y-8660000D03*
D11*
X13302500Y-8660000D03*
%TD*%
D30*
%TO.C,J8*%
X14075000Y-11634000D03*
%TD*%
%TO.C,J9*%
X14617500Y-11625000D03*
%TD*%
D31*
%TO.C,R14*%
X14273580Y-13380580D03*
X14273580Y-13673080D03*
%TD*%
D12*
%TO.C,D2*%
X13304000Y-8410000D03*
D11*
X14066000Y-8410000D03*
%TD*%
D17*
%TO.C,J5*%
X12948500Y-10911000D03*
D18*
X12694500Y-11165000D03*
X13202500Y-11165000D03*
X12694500Y-10657000D03*
X13202500Y-10657000D03*
%TD*%
D32*
%TO.C,U5*%
X13474500Y-15392000D03*
D33*
X13474500Y-15138000D03*
X13474500Y-14884000D03*
X13474500Y-14630000D03*
X13474500Y-14376000D03*
X13474500Y-14122000D03*
X13474500Y-13868000D03*
X13474500Y-13614000D03*
X13474500Y-13360000D03*
X12712500Y-13360000D03*
X12712500Y-13614000D03*
X12712500Y-13868000D03*
X12712500Y-14122000D03*
X12712500Y-14376000D03*
X12712500Y-14630000D03*
X12712500Y-14884000D03*
X12712500Y-15138000D03*
X12712500Y-15392000D03*
%TD*%
D24*
%TO.C,U2*%
X14857500Y-9867500D03*
X14857500Y-9637500D03*
D25*
X14227500Y-9637500D03*
D24*
X14857500Y-9407500D03*
%TD*%
D22*
%TO.C,C22*%
X15007500Y-11689760D03*
D23*
X15007500Y-11489760D03*
%TD*%
G36*
X12976657Y-12631407D02*
G01*
X12982846Y-12633069D01*
X12987379Y-12637599D01*
X12989044Y-12643787D01*
X12989505Y-12933969D01*
X12987845Y-12940186D01*
X12983293Y-12944735D01*
X12977074Y-12946389D01*
X12599913Y-12945451D01*
X12593720Y-12943776D01*
X12589193Y-12939231D01*
X12587543Y-12933032D01*
X12587981Y-12643394D01*
X12589651Y-12637198D01*
X12594194Y-12632667D01*
X12600394Y-12631013D01*
X12976657Y-12631407D01*
G37*
G36*
X13164315Y-11925658D02*
G01*
X13168853Y-11930188D01*
X13170521Y-11936379D01*
X13170979Y-12204595D01*
X13169327Y-12210799D01*
X13164794Y-12215346D01*
X13158595Y-12217016D01*
X12805996Y-12217470D01*
X12799784Y-12215811D01*
X12795238Y-12211264D01*
X12793580Y-12205052D01*
X12793981Y-11936381D01*
X12795649Y-11930189D01*
X12800187Y-11925658D01*
X12806381Y-11924000D01*
X13158121Y-11924000D01*
X13164315Y-11925658D01*
G37*
G36*
X13783800Y-12655097D02*
G01*
X13788347Y-12659645D01*
X13790004Y-12665859D01*
X13789545Y-12949040D01*
X13787877Y-12955232D01*
X13783339Y-12959762D01*
X13777145Y-12961420D01*
X13411984Y-12961420D01*
X13405767Y-12959749D01*
X13401226Y-12955186D01*
X13399584Y-12948960D01*
X13400941Y-12666322D01*
X13402619Y-12660153D01*
X13407147Y-12655639D01*
X13413322Y-12653982D01*
X13777586Y-12653438D01*
X13783800Y-12655097D01*
G37*
G36*
X14525144Y-11156418D02*
G01*
X14531320Y-11158113D01*
X14535827Y-11162664D01*
X14537462Y-11168856D01*
X14535038Y-11949138D01*
X14533364Y-11955322D01*
X14528827Y-11959845D01*
X14522638Y-11961500D01*
X14172438Y-11961500D01*
X14166227Y-11959832D01*
X14161687Y-11955278D01*
X14160038Y-11949062D01*
X14162461Y-11166444D01*
X14164149Y-11160237D01*
X14168720Y-11155710D01*
X14174944Y-11154083D01*
X14525144Y-11156418D01*
G37*
D34*
X17104000Y-8143000D02*
G75*
G03*
X17104000Y-8143000I-150000J0D01*
G01*
X13102000Y-8142000D02*
G75*
G03*
X13102000Y-8142000I-150000J0D01*
G01*
X13101000Y-16038000D02*
G75*
G03*
X13101000Y-16038000I-150000J0D01*
G01*
X16965500Y-8793000D02*
X17237000Y-8793000D01*
X17237000Y-11913000D01*
X16965500Y-11913000D01*
X16965500Y-8793000D01*
X17101000Y-16037000D02*
G75*
G03*
X17101000Y-16037000I-150000J0D01*
G01*
X12496500Y-7836500D02*
X17404000Y-7836500D01*
X17404000Y-16369000D01*
X12496500Y-16369000D01*
X12496500Y-7836500D01*
D35*
%TO.C,J3*%
X12499000Y-8804000D02*
X12499000Y-9664000D01*
%TO.C,J5*%
X12498500Y-10481000D02*
X12498500Y-11341000D01*
%TD*%
M02*
