%TF.GenerationSoftware,KiCad,Pcbnew,7.0.1*%
%TF.CreationDate,2023-11-03T16:30:39+00:00*%
%TF.ProjectId,SI4735,53493437-3335-42e6-9b69-6361645f7063,rev?*%
%TF.SameCoordinates,Original*%
%TF.FileFunction,Other,User*%
%FSLAX45Y45*%
G04 Gerber Fmt 4.5, Leading zero omitted, Abs format (unit mm)*
G04 Created by KiCad (PCBNEW 7.0.1) date 2023-11-03 16:30:39*
%MOMM*%
%LPD*%
G01*
G04 APERTURE LIST*
%ADD10C,0.050000*%
%TA.AperFunction,Profile*%
%ADD11C,0.050000*%
%TD*%
%TA.AperFunction,Profile*%
%ADD12C,0.100000*%
%TD*%
G04 APERTURE END LIST*
D10*
%TO.C,L1*%
X13972500Y-9042500D02*
X13592500Y-9042500D01*
X13592500Y-9042500D02*
X13592500Y-9846500D01*
X13972500Y-9846500D02*
X13972500Y-9042500D01*
X13592500Y-9846500D02*
X13972500Y-9846500D01*
%TO.C,C7*%
X15641989Y-10400000D02*
G75*
G03*
X15641989Y-10400000I-275000J0D01*
G01*
%TO.C,Q3*%
X14448250Y-13280000D02*
X14922250Y-13280000D01*
X14448250Y-13280000D02*
X14448250Y-12734000D01*
X14922250Y-12734000D02*
X14922250Y-13280000D01*
X14922250Y-12734000D02*
X14448250Y-12734000D01*
%TO.C,J4*%
X14649800Y-15816210D02*
X14649800Y-15461210D01*
X15514800Y-15816210D02*
X14649800Y-15816210D01*
X14649800Y-15461210D02*
X15514800Y-15461210D01*
X15514800Y-15461210D02*
X15514800Y-15816210D01*
%TO.C,D4*%
X13912500Y-11876500D02*
X13912500Y-11626500D01*
X13912500Y-11626500D02*
X12940500Y-11626500D01*
X12940500Y-11876500D02*
X13912500Y-11876500D01*
X12940500Y-11626500D02*
X12940500Y-11876500D01*
%TO.C,Q2*%
X15422000Y-13262260D02*
X15896000Y-13262260D01*
X15422000Y-13262260D02*
X15422000Y-12716260D01*
X15896000Y-12716260D02*
X15896000Y-13262260D01*
X15896000Y-12716260D02*
X15422000Y-12716260D01*
%TO.C,J3*%
X11749000Y-9664000D02*
X13379000Y-9664000D01*
X11749000Y-9664000D02*
X11749000Y-8804000D01*
X13379000Y-8804000D02*
X13379000Y-9664000D01*
X13379000Y-8804000D02*
X11749000Y-8804000D01*
%TO.C,J2*%
X15517300Y-15813710D02*
X15517300Y-16168710D01*
X14652300Y-15813710D02*
X15517300Y-15813710D01*
X15517300Y-16168710D02*
X14652300Y-16168710D01*
X14652300Y-16168710D02*
X14652300Y-15813710D01*
%TO.C,U4*%
X14550480Y-14507100D02*
X15620480Y-14507100D01*
X15620480Y-14507100D02*
X15620480Y-13527100D01*
X14550480Y-13527100D02*
X14550480Y-14507100D01*
X15620480Y-13527100D02*
X14550480Y-13527100D01*
%TO.C,C21*%
X14995000Y-10890000D02*
X14735000Y-10890000D01*
X14735000Y-10890000D02*
X14735000Y-11350000D01*
X14995000Y-11350000D02*
X14995000Y-10890000D01*
X14735000Y-11350000D02*
X14995000Y-11350000D01*
%TO.C,J1*%
X16070920Y-8753180D02*
X16425920Y-8753180D01*
X16070920Y-11903180D02*
X16070920Y-8753180D01*
X16425920Y-8753180D02*
X16425920Y-11903180D01*
X16425920Y-11903180D02*
X16070920Y-11903180D01*
%TO.C,C16*%
X13770000Y-15815000D02*
G75*
G03*
X13770000Y-15815000I-275000J0D01*
G01*
%TO.C,J10*%
X12170000Y-12997500D02*
X12170000Y-11877500D01*
X13970000Y-12997500D02*
X12170000Y-12997500D01*
X12170000Y-11877500D02*
X13970000Y-11877500D01*
X13970000Y-11877500D02*
X13970000Y-12997500D01*
%TO.C,C1*%
X15652500Y-8275000D02*
G75*
G03*
X15652500Y-8275000I-275000J0D01*
G01*
%TO.C,C20*%
X14437500Y-12980000D02*
G75*
G03*
X14437500Y-12980000I-225000J0D01*
G01*
%TO.C,C18*%
X15712500Y-11580000D02*
G75*
G03*
X15712500Y-11580000I-225000J0D01*
G01*
%TO.C,C11*%
X16367500Y-15820000D02*
G75*
G03*
X16367500Y-15820000I-425000J0D01*
G01*
%TO.C,C12*%
X14640000Y-15819700D02*
G75*
G03*
X14640000Y-15819700I-425000J0D01*
G01*
%TO.C,C19*%
X15407500Y-12964760D02*
G75*
G03*
X15407500Y-12964760I-225000J0D01*
G01*
%TO.C,C14*%
X14112500Y-13512120D02*
G75*
G03*
X14112500Y-13512120I-225000J0D01*
G01*
%TO.C,C8*%
X15565000Y-9627000D02*
G75*
G03*
X15565000Y-9627000I-275000J0D01*
G01*
%TO.C,J7*%
X14812000Y-12300000D02*
X14812000Y-11945000D01*
X15677000Y-12300000D02*
X14812000Y-12300000D01*
X14812000Y-11945000D02*
X15677000Y-11945000D01*
X15677000Y-11945000D02*
X15677000Y-12300000D01*
%TO.C,U1*%
X14982500Y-10750000D02*
X14982500Y-10030000D01*
X14982500Y-10030000D02*
X14102500Y-10030000D01*
X14102500Y-10750000D02*
X14982500Y-10750000D01*
X14102500Y-10030000D02*
X14102500Y-10750000D01*
%TO.C,D3*%
X12939500Y-11374000D02*
X12939500Y-11624000D01*
X12939500Y-11624000D02*
X13911500Y-11624000D01*
X13911500Y-11374000D02*
X12939500Y-11374000D01*
X13911500Y-11624000D02*
X13911500Y-11374000D01*
%TO.C,Q1*%
X14546580Y-14210240D02*
X14546580Y-13736240D01*
X14546580Y-14210240D02*
X14000580Y-14210240D01*
X14000580Y-13736240D02*
X14546580Y-13736240D01*
X14000580Y-13736240D02*
X14000580Y-14210240D01*
%TO.C,L2*%
X13196500Y-10080000D02*
G75*
G03*
X13196500Y-10080000I-349000J0D01*
G01*
%TO.C,C17*%
X15712500Y-10902500D02*
X15452500Y-10902500D01*
X15452500Y-10902500D02*
X15452500Y-11362500D01*
X15712500Y-11362500D02*
X15712500Y-10902500D01*
X15452500Y-11362500D02*
X15712500Y-11362500D01*
%TO.C,C5*%
X15562000Y-9079511D02*
G75*
G03*
X15562000Y-9079511I-275000J0D01*
G01*
%TO.C,Y1*%
X14120000Y-10895000D02*
X14120000Y-12105000D01*
X14120000Y-12105000D02*
X14570000Y-12105000D01*
X14570000Y-10895000D02*
X14120000Y-10895000D01*
X14570000Y-12105000D02*
X14570000Y-10895000D01*
%TO.C,D1*%
X14169500Y-8785000D02*
X14169500Y-8535000D01*
X14169500Y-8535000D02*
X13197500Y-8535000D01*
X13197500Y-8785000D02*
X14169500Y-8785000D01*
X13197500Y-8535000D02*
X13197500Y-8785000D01*
%TO.C,J8*%
X13960000Y-11814000D02*
X13960000Y-11459000D01*
X14190000Y-11814000D02*
X13960000Y-11814000D01*
X13960000Y-11459000D02*
X14190000Y-11459000D01*
X14190000Y-11459000D02*
X14190000Y-11814000D01*
%TO.C,J9*%
X14502500Y-11805000D02*
X14502500Y-11450000D01*
X14732500Y-11805000D02*
X14502500Y-11805000D01*
X14502500Y-11450000D02*
X14732500Y-11450000D01*
X14732500Y-11450000D02*
X14732500Y-11805000D01*
%TO.C,R14*%
X14385580Y-13298830D02*
X14385580Y-13754830D01*
X14161580Y-13298830D02*
X14385580Y-13298830D01*
X14385580Y-13754830D02*
X14161580Y-13754830D01*
X14161580Y-13754830D02*
X14161580Y-13298830D01*
%TO.C,D2*%
X13199000Y-8285000D02*
X13199000Y-8535000D01*
X13199000Y-8535000D02*
X14171000Y-8535000D01*
X14171000Y-8285000D02*
X13199000Y-8285000D01*
X14171000Y-8535000D02*
X14171000Y-8285000D01*
%TO.C,J5*%
X11748500Y-11341000D02*
X13378500Y-11341000D01*
X11748500Y-11341000D02*
X11748500Y-10481000D01*
X13378500Y-10481000D02*
X13378500Y-11341000D01*
X13378500Y-10481000D02*
X11748500Y-10481000D01*
%TO.C,U2*%
X14982500Y-9997500D02*
X14982500Y-9277500D01*
X14982500Y-9277500D02*
X14102500Y-9277500D01*
X14102500Y-9997500D02*
X14982500Y-9997500D01*
X14102500Y-9277500D02*
X14102500Y-9997500D01*
%TO.C,C22*%
X15232500Y-11589760D02*
G75*
G03*
X15232500Y-11589760I-225000J0D01*
G01*
%TD*%
D11*
X17104000Y-8143000D02*
G75*
G03*
X17104000Y-8143000I-150000J0D01*
G01*
X13102000Y-8142000D02*
G75*
G03*
X13102000Y-8142000I-150000J0D01*
G01*
X13101000Y-16038000D02*
G75*
G03*
X13101000Y-16038000I-150000J0D01*
G01*
X16965500Y-8793000D02*
X17237000Y-8793000D01*
X17237000Y-11913000D01*
X16965500Y-11913000D01*
X16965500Y-8793000D01*
X17101000Y-16037000D02*
G75*
G03*
X17101000Y-16037000I-150000J0D01*
G01*
X12496500Y-7836500D02*
X17404000Y-7836500D01*
X17404000Y-16369000D01*
X12496500Y-16369000D01*
X12496500Y-7836500D01*
D12*
%TO.C,J3*%
X12499000Y-8804000D02*
X12499000Y-9664000D01*
%TO.C,J5*%
X12498500Y-10481000D02*
X12498500Y-11341000D01*
%TD*%
M02*
