%TF.GenerationSoftware,KiCad,Pcbnew,7.0.1*%
%TF.CreationDate,2023-11-03T16:30:39+00:00*%
%TF.ProjectId,SI4735,53493437-3335-42e6-9b69-6361645f7063,rev?*%
%TF.SameCoordinates,Original*%
%TF.FileFunction,Soldermask,Bot*%
%TF.FilePolarity,Negative*%
%FSLAX45Y45*%
G04 Gerber Fmt 4.5, Leading zero omitted, Abs format (unit mm)*
G04 Created by KiCad (PCBNEW 7.0.1) date 2023-11-03 16:30:39*
%MOMM*%
%LPD*%
G01*
G04 APERTURE LIST*
G04 Aperture macros list*
%AMRoundRect*
0 Rectangle with rounded corners*
0 $1 Rounding radius*
0 $2 $3 $4 $5 $6 $7 $8 $9 X,Y pos of 4 corners*
0 Add a 4 corners polygon primitive as box body*
4,1,4,$2,$3,$4,$5,$6,$7,$8,$9,$2,$3,0*
0 Add four circle primitives for the rounded corners*
1,1,$1+$1,$2,$3*
1,1,$1+$1,$4,$5*
1,1,$1+$1,$6,$7*
1,1,$1+$1,$8,$9*
0 Add four rect primitives between the rounded corners*
20,1,$1+$1,$2,$3,$4,$5,0*
20,1,$1+$1,$4,$5,$6,$7,0*
20,1,$1+$1,$6,$7,$8,$9,0*
20,1,$1+$1,$8,$9,$2,$3,0*%
G04 Aperture macros list end*
%ADD10C,1.600000*%
%ADD11O,1.600000X1.600000*%
%ADD12R,1.600000X1.600000*%
%ADD13R,1.500000X1.050000*%
%ADD14O,1.500000X1.050000*%
%ADD15R,1.700000X1.700000*%
%ADD16O,1.700000X1.700000*%
%ADD17RoundRect,0.200100X0.949900X-0.949900X0.949900X0.949900X-0.949900X0.949900X-0.949900X-0.949900X0*%
%ADD18C,2.500000*%
%ADD19C,1.700000*%
%ADD20R,1.200000X1.200000*%
%ADD21C,1.200000*%
%ADD22R,1.050000X1.500000*%
%ADD23O,1.050000X1.500000*%
%ADD24C,2.000000*%
%ADD25C,1.000000*%
%ADD26R,1.000000X1.000000*%
%ADD27R,1.676400X1.676400*%
%ADD28C,1.676400*%
%ADD29RoundRect,0.250000X0.312500X0.625000X-0.312500X0.625000X-0.312500X-0.625000X0.312500X-0.625000X0*%
%ADD30RoundRect,0.250000X0.650000X-0.325000X0.650000X0.325000X-0.650000X0.325000X-0.650000X-0.325000X0*%
%ADD31RoundRect,0.250000X0.625000X-0.312500X0.625000X0.312500X-0.625000X0.312500X-0.625000X-0.312500X0*%
%ADD32RoundRect,0.250000X-0.625000X0.312500X-0.625000X-0.312500X0.625000X-0.312500X0.625000X0.312500X0*%
%ADD33RoundRect,0.250000X-0.650000X0.325000X-0.650000X-0.325000X0.650000X-0.325000X0.650000X0.325000X0*%
%ADD34RoundRect,0.250000X-0.325000X-0.650000X0.325000X-0.650000X0.325000X0.650000X-0.325000X0.650000X0*%
%ADD35RoundRect,0.250000X-0.312500X-0.625000X0.312500X-0.625000X0.312500X0.625000X-0.312500X0.625000X0*%
%ADD36R,1.200000X0.400000*%
%ADD37RoundRect,0.250000X0.325000X0.650000X-0.325000X0.650000X-0.325000X-0.650000X0.325000X-0.650000X0*%
%ADD38RoundRect,0.042000X0.258000X-0.943000X0.258000X0.943000X-0.258000X0.943000X-0.258000X-0.943000X0*%
%TA.AperFunction,Profile*%
%ADD39C,0.050000*%
%TD*%
%TA.AperFunction,Profile*%
%ADD40C,0.100000*%
%TD*%
G04 APERTURE END LIST*
D10*
%TO.C,L1*%
X13782500Y-9232500D03*
D11*
X13782500Y-9740500D03*
%TD*%
D12*
%TO.C,C7*%
X15266989Y-10400000D03*
D10*
X15466989Y-10400000D03*
%TD*%
D13*
%TO.C,Q3*%
X14721250Y-13134000D03*
D14*
X14721250Y-13007000D03*
X14721250Y-12880000D03*
%TD*%
D15*
%TO.C,J4*%
X14829800Y-15636210D03*
D16*
X15083800Y-15636210D03*
X15337800Y-15636210D03*
%TD*%
D12*
%TO.C,D4*%
X13807500Y-11751500D03*
D11*
X13045500Y-11751500D03*
%TD*%
D13*
%TO.C,Q2*%
X15695000Y-13116260D03*
D14*
X15695000Y-12989260D03*
X15695000Y-12862260D03*
%TD*%
D17*
%TO.C,J3*%
X12949000Y-9234000D03*
D18*
X12695000Y-9488000D03*
X13203000Y-9488000D03*
X12695000Y-8980000D03*
X13203000Y-8980000D03*
%TD*%
D15*
%TO.C,J2*%
X15337300Y-15993710D03*
D16*
X15083300Y-15993710D03*
X14829300Y-15993710D03*
%TD*%
D12*
%TO.C,U4*%
X14705480Y-14397100D03*
D11*
X14959480Y-14397100D03*
X15213480Y-14397100D03*
X15467480Y-14397100D03*
X15467480Y-13635100D03*
X15213480Y-13635100D03*
X14959480Y-13635100D03*
X14705480Y-13635100D03*
%TD*%
D10*
%TO.C,C21*%
X14865000Y-10995000D03*
X14865000Y-11245000D03*
%TD*%
D15*
%TO.C,J1*%
X16250920Y-8933180D03*
D16*
X16250920Y-9187180D03*
X16250920Y-9441180D03*
X16250920Y-9695180D03*
X16250920Y-9949180D03*
X16250920Y-10203180D03*
X16250920Y-10457180D03*
X16250920Y-10711180D03*
X16250920Y-10965180D03*
X16250920Y-11219180D03*
X16250920Y-11473180D03*
X16250920Y-11727180D03*
%TD*%
D12*
%TO.C,C16*%
X13495000Y-15715000D03*
D10*
X13495000Y-15915000D03*
%TD*%
D19*
%TO.C,J10*%
X12820000Y-12437500D03*
X13520000Y-12437500D03*
%TD*%
D12*
%TO.C,C1*%
X15377500Y-8375000D03*
D10*
X15377500Y-8175000D03*
%TD*%
D20*
%TO.C,C20*%
X14212500Y-13080000D03*
D21*
X14212500Y-12880000D03*
%TD*%
D20*
%TO.C,C18*%
X15487500Y-11680000D03*
D21*
X15487500Y-11480000D03*
%TD*%
D12*
%TO.C,C11*%
X16132500Y-15820000D03*
D10*
X15752500Y-15820000D03*
%TD*%
D12*
%TO.C,C12*%
X14025000Y-15819700D03*
D10*
X14405000Y-15819700D03*
%TD*%
D20*
%TO.C,C19*%
X15182500Y-13064760D03*
D21*
X15182500Y-12864760D03*
%TD*%
D20*
%TO.C,C14*%
X13887500Y-13612120D03*
D21*
X13887500Y-13412120D03*
%TD*%
D12*
%TO.C,C8*%
X15290000Y-9727000D03*
D10*
X15290000Y-9527000D03*
%TD*%
D15*
%TO.C,J7*%
X14992000Y-12120000D03*
D16*
X15246000Y-12120000D03*
X15500000Y-12120000D03*
%TD*%
D12*
%TO.C,D3*%
X13044500Y-11499000D03*
D11*
X13806500Y-11499000D03*
%TD*%
D22*
%TO.C,Q1*%
X14400580Y-13937240D03*
D23*
X14273580Y-13937240D03*
X14146580Y-13937240D03*
%TD*%
D24*
%TO.C,L2*%
X12847500Y-10280000D03*
X12847500Y-9880000D03*
%TD*%
D10*
%TO.C,C17*%
X15582500Y-11007500D03*
X15582500Y-11257500D03*
%TD*%
D12*
%TO.C,C5*%
X15287000Y-9179511D03*
D10*
X15287000Y-8979511D03*
%TD*%
D25*
%TO.C,Y1*%
X14250000Y-10975000D03*
X14440000Y-10975000D03*
%TD*%
D12*
%TO.C,D1*%
X14064500Y-8660000D03*
D11*
X13302500Y-8660000D03*
%TD*%
D26*
%TO.C,J8*%
X14075000Y-11634000D03*
%TD*%
%TO.C,J9*%
X14617500Y-11625000D03*
%TD*%
D12*
%TO.C,D2*%
X13304000Y-8410000D03*
D11*
X14066000Y-8410000D03*
%TD*%
D17*
%TO.C,J5*%
X12948500Y-10911000D03*
D18*
X12694500Y-11165000D03*
X13202500Y-11165000D03*
X12694500Y-10657000D03*
X13202500Y-10657000D03*
%TD*%
D27*
%TO.C,U5*%
X13474500Y-15392000D03*
D28*
X13474500Y-15138000D03*
X13474500Y-14884000D03*
X13474500Y-14630000D03*
X13474500Y-14376000D03*
X13474500Y-14122000D03*
X13474500Y-13868000D03*
X13474500Y-13614000D03*
X13474500Y-13360000D03*
X12712500Y-13360000D03*
X12712500Y-13614000D03*
X12712500Y-13868000D03*
X12712500Y-14122000D03*
X12712500Y-14376000D03*
X12712500Y-14630000D03*
X12712500Y-14884000D03*
X12712500Y-15138000D03*
X12712500Y-15392000D03*
%TD*%
D20*
%TO.C,C22*%
X15007500Y-11689760D03*
D21*
X15007500Y-11489760D03*
%TD*%
D29*
%TO.C,R13*%
X16785520Y-10967160D03*
X16493020Y-10967160D03*
%TD*%
D30*
%TO.C,C2*%
X13192000Y-15390000D03*
X13192000Y-15095000D03*
%TD*%
D29*
%TO.C,R6*%
X14721250Y-9485000D03*
X14428750Y-9485000D03*
%TD*%
D30*
%TO.C,C6*%
X14920000Y-10087500D03*
X14920000Y-9792500D03*
%TD*%
D31*
%TO.C,R19*%
X15348750Y-11258510D03*
X15348750Y-10966010D03*
%TD*%
D32*
%TO.C,R4*%
X15681960Y-10406380D03*
X15681960Y-10698880D03*
%TD*%
D33*
%TO.C,C9*%
X15064000Y-9109000D03*
X15064000Y-9404000D03*
%TD*%
D32*
%TO.C,R17*%
X13810000Y-10470000D03*
X13810000Y-10762500D03*
%TD*%
D34*
%TO.C,C10*%
X13077695Y-9926820D03*
X13372695Y-9926820D03*
%TD*%
D29*
%TO.C,R11*%
X16785520Y-10199660D03*
X16493020Y-10199660D03*
%TD*%
D31*
%TO.C,R21*%
X15116250Y-11258510D03*
X15116250Y-10966010D03*
%TD*%
D29*
%TO.C,R8*%
X14442500Y-14300000D03*
X14150000Y-14300000D03*
%TD*%
D35*
%TO.C,R1*%
X15690000Y-9695000D03*
X15982500Y-9695000D03*
%TD*%
D31*
%TO.C,R20*%
X14935250Y-13300000D03*
X14935250Y-13007500D03*
%TD*%
D33*
%TO.C,C24*%
X14232500Y-11124000D03*
X14232500Y-11419000D03*
%TD*%
D34*
%TO.C,C13*%
X13080000Y-10215000D03*
X13375000Y-10215000D03*
%TD*%
D29*
%TO.C,R3*%
X15974460Y-10203180D03*
X15681960Y-10203180D03*
%TD*%
%TO.C,R22*%
X14720000Y-12645000D03*
X14427500Y-12645000D03*
%TD*%
%TO.C,R5*%
X14720000Y-9710000D03*
X14427500Y-9710000D03*
%TD*%
%TO.C,R10*%
X14898750Y-8497500D03*
X14606250Y-8497500D03*
%TD*%
D36*
%TO.C,U6*%
X14087500Y-10658500D03*
X14087500Y-10595000D03*
X14087500Y-10531500D03*
X14087500Y-10468000D03*
X14087500Y-10404500D03*
X14087500Y-10341000D03*
X14087500Y-10277500D03*
X14087500Y-10214000D03*
X14087500Y-10150500D03*
X14087500Y-10087000D03*
X14087500Y-10023500D03*
X14087500Y-9960000D03*
X14607500Y-9960000D03*
X14607500Y-10023500D03*
X14607500Y-10087000D03*
X14607500Y-10150500D03*
X14607500Y-10214000D03*
X14607500Y-10277500D03*
X14607500Y-10341000D03*
X14607500Y-10404500D03*
X14607500Y-10468000D03*
X14607500Y-10531500D03*
X14607500Y-10595000D03*
X14607500Y-10658500D03*
%TD*%
D29*
%TO.C,R2*%
X15974060Y-9949180D03*
X15681560Y-9949180D03*
%TD*%
%TO.C,R9*%
X14897500Y-8270000D03*
X14605000Y-8270000D03*
%TD*%
%TO.C,R12*%
X16785520Y-9949660D03*
X16493020Y-9949660D03*
%TD*%
D37*
%TO.C,C15*%
X15257500Y-10625000D03*
X14962500Y-10625000D03*
%TD*%
D33*
%TO.C,C23*%
X14462500Y-11124000D03*
X14462500Y-11419000D03*
%TD*%
%TO.C,C3*%
X13200000Y-13360000D03*
X13200000Y-13655000D03*
%TD*%
D31*
%TO.C,R16*%
X15957500Y-13290000D03*
X15957500Y-12997500D03*
%TD*%
D32*
%TO.C,R7*%
X13577500Y-10472500D03*
X13577500Y-10765000D03*
%TD*%
D35*
%TO.C,R18*%
X15687500Y-12657260D03*
X15980000Y-12657260D03*
%TD*%
D38*
%TO.C,U3*%
X14721750Y-9236500D03*
X14594750Y-9236500D03*
X14467750Y-9236500D03*
X14340750Y-9236500D03*
X14340750Y-8742500D03*
X14467750Y-8742500D03*
X14594750Y-8742500D03*
X14721750Y-8742500D03*
%TD*%
D30*
%TO.C,C4*%
X15095000Y-8920000D03*
X15095000Y-8625000D03*
%TD*%
D31*
%TO.C,R15*%
X13915000Y-14096250D03*
X13915000Y-13803750D03*
%TD*%
D39*
X17104000Y-8143000D02*
G75*
G03*
X17104000Y-8143000I-150000J0D01*
G01*
X13102000Y-8142000D02*
G75*
G03*
X13102000Y-8142000I-150000J0D01*
G01*
X13101000Y-16038000D02*
G75*
G03*
X13101000Y-16038000I-150000J0D01*
G01*
X16965500Y-8793000D02*
X17237000Y-8793000D01*
X17237000Y-11913000D01*
X16965500Y-11913000D01*
X16965500Y-8793000D01*
X17101000Y-16037000D02*
G75*
G03*
X17101000Y-16037000I-150000J0D01*
G01*
X12496500Y-7836500D02*
X17404000Y-7836500D01*
X17404000Y-16369000D01*
X12496500Y-16369000D01*
X12496500Y-7836500D01*
D40*
%TO.C,J3*%
X12499000Y-8804000D02*
X12499000Y-9664000D01*
%TO.C,J5*%
X12498500Y-10481000D02*
X12498500Y-11341000D01*
%TD*%
M02*
